<?xml version="1.0" standalone="no"?>
<!DOCTYPE svg PUBLIC "-//W3C//DTD SVG 1.1//EN" "http://www.w3.org/Graphics/SVG/1.1/DTD/svg11.dtd" >
<svg xmlns="http://www.w3.org/2000/svg" xmlns:xlink="http://www.w3.org/1999/xlink" version="1.1">
<metadata>
Created by FontForge 20201107 at Fri Nov  8 17:14:36 2024
 By 
Copyright (c) 2020 by Matthieu Salvaggio x Blaze Type. All rights reserved.
</metadata>
<defs>
<font id="Area-Regular" horiz-adv-x="2048" >
  <font-face 
    font-family="Area"
    font-weight="400"
    font-stretch="normal"
    units-per-em="2048"
    panose-1="0 0 5 0 0 0 0 0 0 0"
    ascent="1638"
    descent="-410"
    x-height="1130"
    cap-height="1597"
    bbox="-1657 -520 2578 2154"
    underline-thickness="102"
    underline-position="-204"
    unicode-range="U+0020-25CA"
  />
<missing-glyph horiz-adv-x="1452" 
d="M1253 0h-1054v1597h1054v-1597zM319 1485v-1286l760 1286h-760zM1130 1368l-739 -1249h739v1249z" />
    <glyph glyph-name=".notdef" horiz-adv-x="1452" 
d="M1253 0h-1054v1597h1054v-1597zM319 1485v-1286l760 1286h-760zM1130 1368l-739 -1249h739v1249z" />
    <glyph glyph-name=".null" horiz-adv-x="0" 
 />
    <glyph glyph-name="nonmarkingreturn" horiz-adv-x="682" 
 />
    <glyph glyph-name="space" unicode=" " horiz-adv-x="538" 
 />
    <glyph glyph-name="exclam" unicode="!" horiz-adv-x="528" 
d="M305 391h-82l-41 1102v104h164v-104zM264 -14q-47 0 -79.5 33.5t-32.5 82.5q0 46 32.5 79.5t79.5 33.5q46 0 79.5 -33.5t33.5 -79.5q0 -49 -33 -82.5t-80 -33.5z" />
    <glyph glyph-name="quotedbl" unicode="&#x22;" horiz-adv-x="696" 
d="M283 1155h-140v442h140v-442zM553 1155h-139v442h139v-442z" />
    <glyph glyph-name="numbersign" unicode="#" horiz-adv-x="1417" 
d="M1335 1081l-24 -116h-244l-76 -381h244l-25 -117h-241l-92 -467h-127l92 467h-398l-92 -467h-127l92 467h-237l24 117h236l76 381h-236l25 116h233l103 516h127l-103 -516h398l102 516h127l-102 -516h245zM467 584h397l76 381h-397z" />
    <glyph glyph-name="dollar" unicode="$" horiz-adv-x="1183" 
d="M1059 485q0 -157 -112 -262.5t-306 -111.5v-193h-94v197q-156 16 -270 104t-166 250l127 45q84 -238 309 -270v493l-6 2q-37 9 -72 21t-82 33t-85 50t-72 66.5t-53 90t-19 112.5q0 79 33 145.5t88.5 109.5t124 68.5t143.5 30.5v172h94v-176q141 -17 249.5 -102
t141.5 -207l-119 -55q-32 92 -102.5 156t-169.5 81v-485l21 -6q45 -12 78 -22t77 -27.5t75.5 -36t65 -46t54 -59.5t34 -75t13.5 -93zM299 1122q0 -41 15 -76.5t38 -60t57.5 -46t66.5 -35t71 -25.5v462q-108 -8 -178 -66t-70 -153zM641 713v-475q51 3 98 17.5t88.5 40.5
t66 71t24.5 102t-22 99t-65 69.5t-85.5 44t-104.5 31.5z" />
    <glyph glyph-name="percent" unicode="%" horiz-adv-x="1685" 
d="M348 788q-121 0 -195.5 102.5t-74.5 264.5q0 164 74.5 267.5t195.5 103.5q122 0 197.5 -103.5t75.5 -267.5q0 -162 -75.5 -264.5t-197.5 -102.5zM348 0h-131l1139 1468h123zM348 893q69 0 110.5 69t41.5 193t-41.5 194t-110.5 70t-110 -70t-41 -194t41 -193t110 -69z
M1337 -29q-121 0 -195.5 102.5t-74.5 264.5q0 164 74.5 267.5t195.5 103.5q122 0 197.5 -103.5t75.5 -267.5q0 -162 -75.5 -264.5t-197.5 -102.5zM1337 76q69 0 110.5 69t41.5 193t-41.5 194t-110.5 70t-110 -70t-41 -194t41 -193t110 -69z" />
    <glyph glyph-name="ampersand" unicode="&#x26;" horiz-adv-x="1404" 
d="M557 -35q-123 0 -225.5 46t-167 138t-64.5 213q0 67 22 128.5t54 107t83.5 93t95 78t104.5 69.5q-51 55 -86.5 98t-75.5 103t-61 122.5t-21 124.5q0 148 110 246t275 98q168 0 273.5 -105.5t105.5 -248.5q0 -133 -91 -248t-233 -207l351 -370q66 143 106 331l131 -28
q-67 -253 -145 -400l334 -352h-172l-232 244q-189 -281 -471 -281zM573 907q66 46 106.5 79t79 76.5t55.5 92t17 107.5q0 114 -66 176.5t-171 62.5q-98 0 -165 -57.5t-67 -157.5q0 -65 33 -136t72 -120.5t106 -122.5zM563 94q220 0 375 244l-391 410q-49 -31 -77.5 -50.5
t-69 -50.5t-63.5 -57.5t-46.5 -61t-34 -72.5t-10.5 -81q0 -127 92 -204t225 -77z" />
    <glyph glyph-name="quotesingle" unicode="'" horiz-adv-x="428" 
d="M283 1155h-140v442h140v-442z" />
    <glyph glyph-name="parenleft" unicode="(" horiz-adv-x="620" 
d="M594 -307h-145q-167 198 -256 445.5t-89 506.5q0 260 89 507t256 445h145q-164 -198 -251 -445t-87 -507q0 -259 87 -506.5t251 -445.5z" />
    <glyph glyph-name="parenright" unicode=")" horiz-adv-x="620" 
d="M172 -307h-143q164 198 251 445.5t87 506.5q0 260 -87 507t-251 445h143q167 -198 255.5 -445t88.5 -507q0 -259 -88.5 -506.5t-255.5 -445.5z" />
    <glyph glyph-name="asterisk" unicode="*" horiz-adv-x="839" 
d="M465 1024h-92l2 207l-180 -105l-48 80l185 105l-185 104l48 80l180 -104l-2 206h92v-206l180 104l47 -80l-184 -104l184 -105l-47 -80l-180 105v-207z" />
    <glyph glyph-name="plus" unicode="+" horiz-adv-x="1007" 
d="M567 686h301v-123h-301v-313h-125v313h-303v123h303v313h125v-313z" />
    <glyph glyph-name="comma" unicode="," horiz-adv-x="452" 
d="M156 -258h-88l125 254q-35 12 -54.5 40.5t-19.5 65.5q0 47 32.5 80t81.5 33q46 0 78.5 -33.5t32.5 -79.5q0 -39 -33 -100.5t-155 -259.5z" />
    <glyph glyph-name="hyphen" unicode="-" horiz-adv-x="798" 
d="M678 563h-557v121h557v-121z" />
    <glyph glyph-name="period" unicode="." horiz-adv-x="479" 
d="M242 -14q-49 0 -82 33t-33 83q0 46 33 79.5t82 33.5q45 0 77.5 -33.5t32.5 -79.5q0 -49 -32 -82.5t-78 -33.5z" />
    <glyph glyph-name="slash" unicode="/" horiz-adv-x="847" 
d="M211 -135h-133l557 1773h133z" />
    <glyph glyph-name="zero" unicode="0" horiz-adv-x="1437" 
d="M721 -35q-176 0 -312 105t-211 294t-75 431q0 244 75 434t211 295.5t312 105.5q174 0 309.5 -105.5t210 -296t74.5 -433.5q0 -242 -74.5 -431t-210 -294t-309.5 -105zM721 102q196 0 316 189.5t120 503.5q0 315 -120 506.5t-316 191.5q-197 0 -318.5 -191.5
t-121.5 -506.5q0 -314 121.5 -503.5t318.5 -189.5z" />
    <glyph glyph-name="one" unicode="1" horiz-adv-x="790" 
d="M571 0h-147v1296q-59 -83 -156 -137t-215 -69v141q166 29 271.5 131.5t105.5 234.5h141v-1597z" />
    <glyph glyph-name="two" unicode="2" horiz-adv-x="1267" 
d="M1159 0h-1036v12q9 90 25.5 160t52.5 132t63.5 102t95 96t108.5 86.5t139 98.5q38 26 57 40q48 33 84 61t85 75t80.5 92t54.5 106t23 123q0 137 -97 226t-253 89q-181 0 -293 -119.5t-112 -310.5l-132 23q0 237 149 387.5t390 150.5q218 0 359 -125t141 -325
q0 -82 -25 -155.5t-73.5 -136t-99.5 -110t-122 -100.5q-51 -38 -122 -87t-115 -79t-96.5 -74t-85 -83t-61 -95t-42.5 -121h858v-139z" />
    <glyph glyph-name="three" unicode="3" horiz-adv-x="1304" 
d="M649 -35q-203 0 -355.5 99.5t-203.5 265.5l125 63q43 -129 158.5 -212t275.5 -83q168 0 275.5 92.5t107.5 243.5q0 145 -106 235.5t-310 90.5h-157v121h170q170 0 263 87.5t93 221.5q0 140 -100.5 223.5t-257.5 83.5q-148 0 -250 -81.5t-125 -229.5l-129 26
q26 189 169.5 303.5t348.5 114.5q135 0 246.5 -49t180.5 -145.5t69 -223.5q0 -137 -77 -242t-200 -141v-2q146 -29 235 -129t89 -254q0 -96 -36.5 -182.5t-103.5 -152.5t-169.5 -105t-225.5 -39z" />
    <glyph glyph-name="four" unicode="4" horiz-adv-x="1329" 
d="M1016 0h-146v393h-817v144l819 1060h144v-1071h235v-133h-235v-393zM870 1397l-665 -871h665v871z" />
    <glyph glyph-name="five" unicode="5" horiz-adv-x="1298" 
d="M637 -35q-198 0 -356.5 99t-219.5 270l121 67q57 -143 181.5 -224t275.5 -81q173 0 291.5 114t118.5 294q0 171 -112 281t-280 110q-124 0 -223 -59t-153 -156l-119 47l186 870h764v-129h-661l-132 -612h5q47 68 145.5 114t216.5 46q100 0 192 -34.5t164.5 -98t116 -161
t43.5 -214.5q0 -156 -75.5 -281t-204.5 -193.5t-285 -68.5z" />
    <glyph glyph-name="six" unicode="6" horiz-adv-x="1357" 
d="M702 -35q-263 0 -422 200t-159 550q0 200 54.5 370.5t151 290t232 187t293.5 67.5q210 0 356 -117l-92 -104q-117 90 -285 90q-119 0 -222 -53.5t-178.5 -150t-118.5 -239.5t-44 -315h4q45 130 174.5 211.5t284.5 81.5q103 0 199 -39t169 -107t117 -168t44 -216
q0 -232 -159.5 -385.5t-398.5 -153.5zM705 96q167 0 285 115.5t118 294.5q0 118 -55 212t-146.5 144.5t-199.5 50.5q-171 0 -287.5 -121t-116.5 -292q0 -113 55.5 -206.5t147.5 -145.5t199 -52z" />
    <glyph glyph-name="seven" unicode="7" horiz-adv-x="1200" 
d="M457 0h-150q0 209 88.5 486t249.5 552.5t352 454.5h-962v131h1126v-141q-197 -179 -360.5 -448.5t-253.5 -544t-90 -490.5z" />
    <glyph glyph-name="eight" unicode="8" horiz-adv-x="1337" 
d="M670 -35q-242 0 -397.5 132.5t-155.5 330.5q0 149 85 259.5t226 150.5v4q-121 51 -186.5 144.5t-65.5 213.5q0 183 139.5 306.5t354.5 123.5q212 0 350.5 -119.5t138.5 -300.5q0 -120 -65.5 -219t-186.5 -149v-4q141 -40 227.5 -150.5t86.5 -259.5q0 -199 -156.5 -331
t-394.5 -132zM670 893q148 0 246 88.5t98 224.5q0 131 -98 216t-246 85q-150 0 -249 -85t-99 -216q0 -136 98.5 -224.5t249.5 -88.5zM668 92q169 0 284 97.5t115 254.5q0 153 -103.5 245.5t-293.5 92.5q-192 0 -296 -91.5t-104 -246.5q0 -157 114.5 -254.5t283.5 -97.5z" />
    <glyph glyph-name="nine" unicode="9" horiz-adv-x="1384" 
d="M627 -35q-138 0 -268 58.5t-230 179.5l92 94q173 -203 391 -203q125 0 221.5 59.5t156 164.5t90 239.5t30.5 292.5h-4q-41 -145 -171 -234.5t-292 -89.5q-105 0 -201.5 41t-168.5 112.5t-115 174.5t-43 221q0 238 159.5 396.5t407.5 158.5q93 0 174.5 -23.5t157 -79.5
t129 -141t85.5 -215t32 -294q0 -121 -17.5 -234.5t-51.5 -215.5t-87.5 -186.5t-122 -146t-159 -95.5t-195.5 -34zM659 649q116 0 210.5 60.5t148 163t53.5 225.5q0 184 -116 294.5t-281 110.5q-171 0 -289.5 -119t-118.5 -309q0 -184 112.5 -305t280.5 -121z" />
    <glyph glyph-name="colon" unicode=":" horiz-adv-x="518" 
d="M260 930q-47 0 -81 35t-34 82t33.5 79.5t81.5 32.5q46 0 79.5 -32.5t33.5 -79.5t-33.5 -82t-79.5 -35zM260 -14q-47 0 -81 34.5t-34 81.5q0 46 34 79.5t81 33.5q46 0 79.5 -33.5t33.5 -79.5q0 -47 -33.5 -81.5t-79.5 -34.5z" />
    <glyph glyph-name="semicolon" unicode=";" horiz-adv-x="585" 
d="M305 930q-49 0 -82 34.5t-33 82.5q0 47 33 79.5t82 32.5q46 0 78.5 -32.5t32.5 -79.5t-32.5 -82t-78.5 -35zM225 -262h-90l127 258q-34 12 -53 40.5t-19 65.5q0 46 33 79.5t80 33.5t80 -33.5t33 -79.5q0 -38 -34 -102t-157 -262z" />
    <glyph glyph-name="less" unicode="&#x3c;" horiz-adv-x="1028" 
d="M862 428v-119l-719 242v141l719 242v-119l-583 -192z" />
    <glyph glyph-name="equal" unicode="=" horiz-adv-x="1044" 
d="M889 768h-733v123h733v-123zM889 350h-733v123h733v-123z" />
    <glyph glyph-name="greater" unicode="&#x3e;" horiz-adv-x="1028" 
d="M883 551l-717 -242v119l582 195l-582 192v119l717 -242v-141z" />
    <glyph glyph-name="question" unicode="?" horiz-adv-x="1089" 
d="M543 381h-140q-12 62 -12 115q0 47 12 88t29 71t52 66t63.5 60t81.5 65q108 87 166.5 171.5t58.5 186.5q0 134 -92.5 214.5t-224.5 80.5q-136 0 -233 -89t-97 -239q0 -23 4 -63l-129 22q-6 34 -6 64q0 131 66 232t172 152.5t231 51.5q91 0 173.5 -28.5t147 -80.5
t102.5 -132t38 -175q0 -73 -23.5 -139.5t-69 -124t-88.5 -99t-106 -91.5q-45 -36 -62 -51t-48.5 -46t-44 -54t-23.5 -56.5t-11 -71.5q0 -37 13 -100zM492 -14q-49 0 -82 34t-33 82q0 46 32.5 79.5t79.5 33.5q46 0 79.5 -33.5t33.5 -79.5q0 -49 -32 -82.5t-78 -33.5z" />
    <glyph glyph-name="at" unicode="@" horiz-adv-x="1968" 
d="M915 -195q-189 0 -345 64t-258.5 173.5t-158 255t-55.5 310.5q0 196 79 382t213.5 327t325 227t400.5 86q167 0 311.5 -55t249.5 -153.5t164.5 -243t59.5 -316.5q0 -177 -60 -324.5t-165.5 -233t-233.5 -85.5q-115 0 -171 67t-44 169q-71 -109 -176 -164t-213 -55
q-152 0 -245 110t-93 275q0 146 71.5 279t189.5 213.5t247 80.5q105 0 185.5 -56t113.5 -155l32 184h109l-105 -596q-3 -22 -4 -27.5t-3.5 -32t-2 -38t2 -36.5t6.5 -38t14 -31t22.5 -27.5t33 -16.5t44.5 -7q131 0 226.5 151.5t95.5 375.5q0 305 -181 492.5t-483 187.5
q-184 0 -350.5 -75t-284 -199.5t-187 -292.5t-69.5 -349q0 -150 48.5 -277t138 -219t224 -144t298.5 -52q154 0 295.5 45t251.5 129l59 -88q-128 -98 -293.5 -147.5t-329.5 -49.5zM877 348q105 0 193 67t135.5 170.5t47.5 215.5q0 128 -63 204t-180 76q-105 0 -193 -64.5
t-136 -167.5t-48 -216q0 -128 63.5 -206.5t180.5 -78.5z" />
    <glyph glyph-name="A" unicode="A" horiz-adv-x="1513" 
d="M184 0h-155l647 1597h162l647 -1597h-156q-89 213 -229 559h-692zM461 694h586q-123 305 -289 736h-4q-28 -71 -132 -331t-161 -405z" />
    <glyph glyph-name="B" unicode="B" horiz-adv-x="1460" 
d="M858 0h-643v1597h573q120 0 218 -34t160.5 -91.5t96 -132t33.5 -157.5q0 -80 -28.5 -151t-95 -131t-162.5 -85v-4q166 -31 253 -137.5t87 -245.5q0 -186 -142.5 -307t-349.5 -121zM362 868h404q174 0 275.5 81t101.5 212q0 137 -110.5 220t-280.5 83h-390v-596zM362 133
h451q173 0 277 82.5t104 214.5q0 137 -110 223t-285 86h-437v-606z" />
    <glyph glyph-name="C" unicode="C" horiz-adv-x="1720" 
d="M915 -35q-234 0 -417.5 105t-286 293.5t-102.5 429.5q0 149 40.5 281t113.5 232.5t171.5 174t219 111.5t251.5 38q113 0 221 -29.5t203 -85.5t169 -146.5t112 -205.5l-133 -53q-71 180 -225 281.5t-345 101.5q-130 0 -246.5 -48.5t-204.5 -136.5t-140 -222t-52 -295
q0 -169 57 -303.5t152 -217t212 -125.5t245 -43q121 0 225 38.5t178.5 106t126 153t80.5 186.5l131 -47q-38 -125 -104.5 -228.5t-159.5 -181.5t-219 -121t-273 -43z" />
    <glyph glyph-name="D" unicode="D" horiz-adv-x="1648" 
d="M797 0h-582v1597h563q156 0 283 -40.5t214.5 -112t146.5 -171.5t86.5 -216t27.5 -248q0 -238 -87 -420t-255.5 -285.5t-396.5 -103.5zM362 133h443q265 0 421 178t156 486q0 317 -169.5 492t-467.5 175h-383v-1331z" />
    <glyph glyph-name="E" unicode="E" horiz-adv-x="1347" 
d="M1241 0h-1026v1597h1006v-133h-859v-575h818v-137h-818v-613h879v-139z" />
    <glyph glyph-name="F" unicode="F" horiz-adv-x="1271" 
d="M1200 1597v-139h-838v-586h797v-135h-797v-737h-147v1597h985z" />
    <glyph glyph-name="G" unicode="G" horiz-adv-x="1798" 
d="M899 -35q-171 0 -317.5 61.5t-250.5 170t-163 263t-59 333.5q0 184 62 341.5t169 265.5t253.5 169t311.5 61q114 0 222 -29.5t203 -86t168.5 -147t111.5 -204.5l-133 -53q-71 180 -225 281.5t-345 101.5q-129 0 -245.5 -48.5t-205 -136t-140.5 -222t-52 -295.5
q0 -136 37.5 -251t101.5 -194.5t149 -135.5t179 -82t193 -26q124 0 230 42t181.5 115.5t122 174.5t55.5 219h-555v127h701v-780h-121q0 122 -4 360h-10q-84 -189 -242 -292t-383 -103z" />
    <glyph glyph-name="H" unicode="H" horiz-adv-x="1656" 
d="M1294 872v725h146v-1597h-146v737h-932v-737h-147v1597h147v-725h932z" />
    <glyph glyph-name="I" unicode="I" horiz-adv-x="577" 
d="M362 0h-147v1597h147v-1597z" />
    <glyph glyph-name="J" unicode="J" horiz-adv-x="1202" 
d="M553 -35q-76 0 -145.5 16.5t-135 55.5t-113 96.5t-76 147t-28.5 200.5v45l138 19v-37q0 -90 21.5 -161.5t56 -117t81.5 -75.5t96 -42t101 -12q49 0 90.5 11.5t71.5 29.5t53.5 47.5t39 57t26 66.5t16 68t8.5 70t3.5 64t0.5 57v1026h146v-987q0 -60 -1 -98t-9.5 -113
t-24.5 -125.5t-49.5 -114t-80 -102t-120 -65.5t-166.5 -27z" />
    <glyph glyph-name="K" unicode="K" horiz-adv-x="1368" 
d="M362 0h-147v1597h147v-856h5q245 274 792 856h176l-651 -700q114 -149 344.5 -448t345.5 -449h-178q-280 358 -616 784q-114 -120 -218 -233v-551z" />
    <glyph glyph-name="L" unicode="L" horiz-adv-x="1212" 
d="M362 1597v-1458h818v-139h-965v1597h147z" />
    <glyph glyph-name="M" unicode="M" horiz-adv-x="2062" 
d="M362 0h-147v1597h178q336 -716 637 -1396h4q470 1030 635 1396h178v-1597h-147v1311h-8q-270 -612 -592 -1311h-137q-322 699 -592 1311h-9v-1311z" />
    <glyph glyph-name="N" unicode="N" horiz-adv-x="1689" 
d="M362 0h-147v1597h160q71 -102 230 -328.5t250 -357t224 -323t244 -357.5h4v1366h148v-1597h-160q-105 149 -436.5 616.5t-513.5 731.5h-3v-1348z" />
    <glyph glyph-name="O" unicode="O" horiz-adv-x="1816" 
d="M907 -35q-162 0 -309.5 63t-255.5 172t-172 264.5t-64 332.5t63.5 332.5t172 265t256 172.5t311.5 63q166 0 315 -65t255.5 -176t168.5 -265.5t62 -326.5q0 -174 -63 -329t-170.5 -265t-256 -174t-313.5 -64zM911 102q128 0 245 53t204.5 144t139.5 221t52 277
t-51.5 277.5t-139 221.5t-205 144t-245.5 53q-129 0 -247.5 -52.5t-206.5 -143.5t-140.5 -221.5t-52.5 -278.5t52.5 -278t140.5 -221t206.5 -143.5t247.5 -52.5z" />
    <glyph glyph-name="P" unicode="P" horiz-adv-x="1368" 
d="M215 1597h561q147 0 264 -53.5t188.5 -162.5t71.5 -257q0 -118 -42 -213.5t-112 -154t-156.5 -90t-180.5 -31.5h-447v-635h-147v1597zM362 772h402q177 0 280 89t103 255q0 165 -109.5 256.5t-287.5 91.5h-388v-692z" />
    <glyph glyph-name="Q" unicode="Q" horiz-adv-x="1824" 
d="M1655 -100l-105 -88l-227 268q-193 -115 -412 -115q-164 0 -312 63t-256.5 172t-172.5 264.5t-64 332.5t63.5 332.5t172 265t257.5 172.5t314 63q167 0 316.5 -65t256.5 -176t169.5 -265.5t62.5 -326.5q0 -192 -74.5 -357.5t-207.5 -281.5zM915 102q162 0 310 95
l-299 354l104 86l309 -367q104 96 163 232t59 295q0 147 -51.5 277.5t-139 221.5t-206.5 144t-249 53q-132 0 -252 -52.5t-208.5 -143.5t-140.5 -221.5t-52 -278.5t52 -278t140.5 -221t208.5 -143.5t252 -52.5z" />
    <glyph glyph-name="R" unicode="R" horiz-adv-x="1421" 
d="M362 0h-147v1597h561q108 0 202.5 -31.5t166.5 -90.5t113.5 -150t41.5 -203q0 -202 -114 -331t-299 -148v-2q394 -586 430 -641h-164l-426 637h-365v-637zM362 768h402q177 0 280 90t103 256q0 164 -110 257t-287 93h-388v-696z" />
    <glyph glyph-name="S" unicode="S" horiz-adv-x="1320" 
d="M680 -35q-93 0 -181 25t-171 77.5t-148 146.5t-98 220l135 49q49 -186 175 -284.5t292 -98.5q70 0 135.5 18.5t122 54.5t91 98t34.5 141q0 47 -12 85.5t-36 66.5t-50 48.5t-65 37t-69.5 27.5t-74.5 24q-22 7 -33 10l-149 47q-44 14 -75.5 25t-81 33.5t-85 45t-75.5 58
t-65 75t-42 94t-17 115.5q0 103 44.5 186t119 134.5t165.5 78.5t189 27q192 0 335 -100.5t194 -282.5l-131 -53q-45 139 -153 220t-259 81q-149 0 -249.5 -77.5t-100.5 -203.5q0 -44 14.5 -82.5t34 -66.5t53.5 -54.5t59 -41.5t66.5 -32t59 -23t51.5 -17l155 -51
q151 -48 203 -72q184 -85 225 -238q13 -48 13 -104q0 -138 -75.5 -246t-199 -164.5t-270.5 -56.5z" />
    <glyph glyph-name="T" unicode="T" horiz-adv-x="1300" 
d="M723 0h-145v1464h-547v133h1239v-133h-547v-1464z" />
    <glyph glyph-name="U" unicode="U" horiz-adv-x="1540" 
d="M764 -35q-276 0 -421.5 159.5t-145.5 455.5v1017h145v-1009q0 -249 112 -368.5t316 -119.5q205 0 316.5 119.5t111.5 368.5v1009h145v-1017q0 -133 -33 -242.5t-101 -194t-181.5 -131.5t-263.5 -47z" />
    <glyph glyph-name="V" unicode="V" horiz-adv-x="1513" 
d="M838 0h-162l-647 1597h155q242 -579 574 -1427h4q85 214 281 706.5t286 720.5h156z" />
    <glyph glyph-name="W" unicode="W" horiz-adv-x="2326" 
d="M729 0h-176l-516 1597h158q245 -734 446 -1402h4q25 80 188.5 602.5t247.5 799.5h164q51 -164 205 -650.5t236 -751.5h4q325 1045 442 1402h158l-514 -1597h-177q-209 630 -434 1386h-4q-256 -857 -432 -1386z" />
    <glyph glyph-name="X" unicode="X" horiz-adv-x="1331" 
d="M197 0h-170q63 92 253.5 376.5t297.5 438.5v6q-317 452 -539 776h170q91 -130 257.5 -374t197.5 -289h4q334 493 456 663h168q-275 -401 -538 -776v-6q100 -144 283 -418t268 -397h-170q-54 80 -214.5 323t-252.5 379h-4z" />
    <glyph glyph-name="Y" unicode="Y" horiz-adv-x="1411" 
d="M778 0h-145v586q-299 504 -594 1011h160l506 -872h4l510 872h155l-596 -1011v-586z" />
    <glyph glyph-name="Z" unicode="Z" horiz-adv-x="1349" 
d="M1284 0h-1223v143q57 73 1024 1317v4h-985v133h1166v-139q-171 -220 -513 -657.5t-513 -657.5v-4h1044v-139z" />
    <glyph glyph-name="bracketleft" unicode="[" horiz-adv-x="671" 
d="M621 -336h-422v1933h422v-122h-285v-1680h285v-131z" />
    <glyph glyph-name="backslash" unicode="\" horiz-adv-x="847" 
d="M770 -135h-135l-557 1773h135z" />
    <glyph glyph-name="bracketright" unicode="]" horiz-adv-x="671" 
d="M473 -336h-422v131h285v1680h-285v122h422v-1933z" />
    <glyph glyph-name="asciicircum" unicode="^" horiz-adv-x="876" 
d="M244 1049h-127l254 548h137l250 -548h-125l-193 438h-4z" />
    <glyph glyph-name="underscore" unicode="_" horiz-adv-x="1034" 
d="M993 -225h-954v116h954v-116z" />
    <glyph glyph-name="a" unicode="a" horiz-adv-x="1173" 
d="M455 -35q-154 0 -256.5 76.5t-102.5 218.5q0 77 32.5 137t92 100t127.5 65.5t156 43.5q28 6 74.5 14.5t70.5 13.5t59.5 13.5t53.5 16.5t41 21.5t33.5 28.5t18 36.5t7.5 48.5q0 99 -80.5 172t-206.5 73q-112 0 -192.5 -63.5t-114.5 -173.5l-133 47q33 104 105.5 175.5
t160 102.5t185.5 31q80 0 152.5 -22t133.5 -65.5t97.5 -118t36.5 -171.5v-432q0 -132 8.5 -206.5t27.5 -147.5h-139q-26 104 -26 236h-5q-58 -123 -163.5 -197t-253.5 -74zM479 78q85 0 160 37t122.5 93.5t75 121.5t27.5 123v153q-47 -36 -100 -55t-168 -41
q-36 -7 -61.5 -12.5t-65 -16.5t-67 -23t-59.5 -31.5t-51.5 -41.5t-32.5 -52.5t-13 -66.5q0 -86 63 -137t170 -51z" />
    <glyph glyph-name="b" unicode="b" horiz-adv-x="1370" 
d="M752 -35q-140 0 -254.5 69.5t-178.5 194.5h-4v-229h-133v1638h137v-745q70 133 185.5 201.5t251.5 68.5q225 0 372.5 -169t147.5 -429q0 -175 -70 -313t-189 -212.5t-265 -74.5zM729 92q173 0 286 134.5t113 338.5t-113.5 337.5t-285.5 133.5t-291 -133.5t-119 -339.5
t119.5 -338.5t290.5 -132.5z" />
    <glyph glyph-name="c" unicode="c" horiz-adv-x="1245" 
d="M657 -35q-248 0 -405.5 166t-157.5 432q0 267 157 433.5t406 166.5q105 0 196 -31.5t170 -105.5t122 -184l-133 -51q-43 117 -138 181t-223 64q-185 0 -297 -134t-112 -339q0 -211 117 -341t303 -130q145 0 248.5 80.5t156.5 212.5l125 -45q-65 -181 -206.5 -278
t-328.5 -97z" />
    <glyph glyph-name="d" unicode="d" horiz-adv-x="1372" 
d="M621 -35q-228 0 -376.5 168t-148.5 430q0 132 41 245t112 190.5t167.5 121t206.5 43.5q135 0 246 -66.5t178 -191.5h4v733h137v-1284q0 -132 8.5 -205.5t28.5 -148.5h-140q-29 118 -26 227h-4q-68 -127 -183 -194.5t-251 -67.5zM641 92q172 0 292 133.5t120 339.5
q0 207 -120 339t-292 132q-173 0 -286 -134.5t-113 -338.5t113.5 -337.5t285.5 -133.5z" />
    <glyph glyph-name="e" unicode="e" horiz-adv-x="1269" 
d="M651 -35q-119 0 -221.5 43.5t-176.5 121t-116.5 189.5t-42.5 244q0 173 70.5 310t197.5 213.5t287 76.5q69 0 135.5 -14.5t137.5 -54.5t123.5 -101t86 -163t33.5 -232v-72h-925q3 -201 118.5 -319.5t298.5 -118.5q142 0 245 80.5t153 208.5l125 -45q-63 -172 -204 -269.5
t-325 -97.5zM246 655h772q-1 83 -23.5 150t-59 110.5t-85.5 72.5t-100 41.5t-105 12.5q-160 0 -267.5 -107t-131.5 -280z" />
    <glyph glyph-name="f" unicode="f" horiz-adv-x="712" 
d="M367 0h-138v1010h-170v120h170v150q0 71 6.5 124.5t25.5 106t51.5 86.5t87.5 55t130 21q122 0 211 -53v-127q-94 59 -190 59q-39 0 -68.5 -8t-48.5 -18.5t-32.5 -33.5t-20 -40t-10 -51.5t-4 -55.5t-0.5 -63v-152h331v-120h-331v-1010z" />
    <glyph glyph-name="g" unicode="g" horiz-adv-x="1368" 
d="M664 -483q-390 0 -510 329l127 45q87 -253 383 -253q80 0 145 23t121 75.5t87.5 151t31.5 235.5v139h-5q-66 -128 -177.5 -194t-248.5 -66q-151 0 -271 77t-186.5 210t-66.5 297q0 251 150.5 414t373.5 163q137 0 251 -68.5t180 -197.5h4v233h133v-991q0 -136 -25.5 -242
t-71 -177t-112 -117t-143.5 -66t-170 -20zM639 129q111 0 205.5 59.5t150.5 165.5t56 234q0 96 -33 180t-88.5 142.5t-131 92t-159.5 33.5q-172 0 -285.5 -129t-113.5 -321q0 -126 52 -231t143.5 -165.5t203.5 -60.5z" />
    <glyph glyph-name="h" unicode="h" horiz-adv-x="1296" 
d="M319 0h-137v1638h137v-725h5q128 250 393 250q63 0 120.5 -14t111.5 -47.5t93.5 -84.5t63.5 -130t24 -178v-709h-137v647q0 199 -87.5 294t-223.5 95q-111 0 -195.5 -60.5t-126 -151.5t-41.5 -193v-631z" />
    <glyph glyph-name="i" unicode="i" horiz-adv-x="501" 
d="M252 1413q-50 0 -82.5 33.5t-32.5 83.5q0 46 33 79t82 33q47 0 80 -33t33 -79q0 -49 -33 -83t-80 -34zM319 0h-137v1130h137v-1130z" />
    <glyph glyph-name="j" unicode="j" horiz-adv-x="501" 
d="M252 1413q-50 0 -82.5 33.5t-32.5 83.5q0 47 32.5 79.5t82.5 32.5q47 0 80 -33t33 -79q0 -49 -33 -83t-80 -34zM2 -483q-125 0 -215 55v129q98 -61 190 -61q42 0 75.5 14t55 33.5t36.5 53.5t22 60.5t11 69t4.5 65.5t0.5 62v1132h137v-1144q0 -39 -0.5 -61.5t-3 -65.5
t-8 -70.5t-16.5 -67.5t-26.5 -65.5t-39.5 -54t-55 -45.5t-74 -28t-94 -11z" />
    <glyph glyph-name="k" unicode="k" horiz-adv-x="1071" 
d="M584 686l501 -686h-159l-434 588l-170 -176v-412h-140v1638h140v-1054h4q76 82 162 173t191.5 201.5t162.5 171.5h170z" />
    <glyph glyph-name="l" unicode="l" horiz-adv-x="501" 
d="M319 0h-137v1638h137v-1638z" />
    <glyph glyph-name="m" unicode="m" horiz-adv-x="2066" 
d="M319 0h-137v1130h133v-217h4q63 127 167 188.5t227 61.5q60 0 114.5 -14.5t106.5 -45t91.5 -86.5t59.5 -132h5q145 278 407 278q77 0 145.5 -24t128 -74.5t95 -142t35.5 -213.5v-709h-138v647q0 103 -24.5 180.5t-67 121.5t-94.5 65.5t-113 21.5q-106 0 -188.5 -60
t-124 -151t-41.5 -194v-631h-137v647q0 103 -24.5 180.5t-67 121.5t-94.5 65.5t-113 21.5q-106 0 -189 -60t-124.5 -151.5t-41.5 -193.5v-631z" />
    <glyph glyph-name="n" unicode="n" horiz-adv-x="1296" 
d="M319 0h-137v1130h133v-217h4q65 127 169 188.5t231 61.5q63 0 120 -14t111 -47.5t93.5 -84.5t63 -130t23.5 -178v-709h-137v647q0 199 -87.5 294t-223.5 95q-111 0 -195.5 -60t-126 -151t-41.5 -194v-631z" />
    <glyph glyph-name="o" unicode="o" horiz-adv-x="1320" 
d="M662 -35q-251 0 -409.5 167t-158.5 431t159 432t409 168q249 0 406 -168t157 -432t-157 -431t-406 -167zM662 92q185 0 301 131.5t116 339.5t-116 340.5t-301 132.5t-302.5 -132.5t-117.5 -340.5q0 -207 117 -339t303 -132z" />
    <glyph glyph-name="p" unicode="p" horiz-adv-x="1370" 
d="M319 -451h-137v1581h133v-237h4q72 133 186.5 201.5t250.5 68.5q225 0 372.5 -169t147.5 -429q0 -175 -70 -313t-189 -212.5t-265 -74.5q-140 0 -254.5 69.5t-178.5 194.5v-680zM729 92q173 0 286 134.5t113 338.5t-113.5 337.5t-285.5 133.5q-171 0 -290.5 -133
t-119.5 -340q0 -206 119.5 -338.5t290.5 -132.5z" />
    <glyph glyph-name="q" unicode="q" horiz-adv-x="1370" 
d="M1188 -451h-137v684q-68 -130 -182.5 -199t-252.5 -69q-149 0 -268 77t-186.5 214t-67.5 309q0 131 41.5 244t112 190t167.5 120.5t206 43.5q137 0 250 -68.5t180 -197.5h4v233h133v-1581zM641 92q172 0 291 133.5t119 339.5t-119.5 338.5t-290.5 132.5
q-173 0 -286 -134.5t-113 -338.5t113.5 -337.5t285.5 -133.5z" />
    <glyph glyph-name="r" unicode="r" horiz-adv-x="839" 
d="M319 0h-137v1130h133v-233h9q43 119 142.5 192.5t223.5 73.5q73 0 129 -22v-150q-69 27 -139 27t-130 -27t-102 -72.5t-71.5 -105.5t-43.5 -127t-14 -137v-549z" />
    <glyph glyph-name="s" unicode="s" horiz-adv-x="1013" 
d="M532 -35q-166 0 -292 87t-172 231l129 41q42 -106 137.5 -173t200.5 -67q39 0 80 10.5t82.5 32.5t67.5 64t26 98q0 46 -18.5 80t-57 57t-72.5 35.5t-90 27.5l-109 31q-30 9 -51.5 16t-58 22.5t-62.5 31.5t-56.5 42.5t-49.5 56t-32 71t-13 88.5q0 77 33 139t87.5 99.5
t119.5 57t133 19.5q142 0 252 -78.5t149 -197.5l-133 -45q-30 86 -103.5 144t-177.5 58q-97 0 -159 -50.5t-62 -133.5q0 -41 18 -75.5t42 -56.5t64 -42t68 -30t70 -23l107 -31q35 -10 56.5 -16.5t57.5 -21t59 -29t51 -37.5t44.5 -49t27.5 -62.5t11 -79.5q0 -147 -113 -244.5
t-291 -97.5z" />
    <glyph glyph-name="t" unicode="t" horiz-adv-x="782" 
d="M526 -35q-45 0 -82 9t-64 22.5t-48 36.5t-34.5 44t-23 52.5t-14 53.5t-7 56.5t-3 52t-0.5 48.5v668h-225v122h225v336h137v-336h346v-122h-346v-629v-44t1.5 -43t4.5 -44.5t8.5 -40.5t13.5 -38.5t20 -31.5t28 -26t38 -15t48 -6q88 0 184 62v-132q-85 -55 -207 -55z" />
    <glyph glyph-name="u" unicode="u" horiz-adv-x="1277" 
d="M571 -35q-63 0 -119.5 14.5t-109.5 48.5t-91.5 85t-61.5 130.5t-23 178.5v708h137v-655q0 -104 25.5 -181t70 -119.5t96 -62.5t111.5 -20q82 0 150 36t110.5 94.5t66 128.5t23.5 141v638h138v-776q0 -133 8.5 -207t27.5 -147h-139q-28 115 -28 209h-5
q-121 -244 -387 -244z" />
    <glyph glyph-name="v" unicode="v" horiz-adv-x="1110" 
d="M631 0h-150l-448 1130h149q121 -307 373 -964h4q260 677 371 964h147z" />
    <glyph glyph-name="w" unicode="w" horiz-adv-x="1859" 
d="M592 0h-146l-411 1130h153l336 -944h4l334 944h137l342 -944h5l325 944h154l-410 -1130h-149q-199 545 -334 954h-4q-147 -444 -336 -954z" />
    <glyph glyph-name="x" unicode="x" horiz-adv-x="1048" 
d="M186 0h-153q67 95 202 284.5t201 284.5v2l-405 559h159q117 -164 334 -464h4q62 89 179 251t153 213h158q-387 -534 -406 -559v-2q43 -60 186.5 -260t219.5 -309h-154q-206 293 -336 475h-4z" />
    <glyph glyph-name="y" unicode="y" horiz-adv-x="1116" 
d="M451 -451h-132l170 435l-456 1146h149q57 -140 119.5 -300.5t137.5 -355.5t120 -310h4q259 684 371 966h149z" />
    <glyph glyph-name="z" unicode="z" horiz-adv-x="999" 
d="M948 0h-887v106l654 898h-619v126h805v-106l-657 -897h704v-127z" />
    <glyph glyph-name="braceleft" unicode="{" horiz-adv-x="761" 
d="M717 -305h-80q-104 0 -180.5 23t-122 61t-73 96.5t-37 119.5t-9.5 140v170q0 50 -1.5 88.5t-7 66.5t-10 47t-15.5 31.5t-18 19t-24 9.5t-27 3.5t-32 0.5v150q22 0 32 0.5t27 3.5t24 9.5t18 19t15.5 31.5t10 47t7 66.5t1.5 88.5v170q0 79 9.5 140t37 119.5t73 96.5t122 61
t180.5 23h80v-122h-74q-159 0 -225 -73t-66 -214v-197q0 -125 -16 -198t-42.5 -102t-72.5 -44v-4q46 -15 72 -43.5t42.5 -101t16.5 -197.5v-199q0 -140 65.5 -212t225.5 -72h74v-123z" />
    <glyph glyph-name="bar" unicode="|" horiz-adv-x="528" 
d="M330 -451h-131v2089h131v-2089z" />
    <glyph glyph-name="braceright" unicode="}" horiz-adv-x="761" 
d="M125 -305h-80v123h72q161 0 227 71.5t66 212.5v199q0 125 16.5 197.5t42.5 101t72 43.5v4q-46 15 -72.5 44t-42.5 102t-16 198v197q0 141 -66 214t-227 73h-72v122h80q104 0 180.5 -23t122 -61t73 -96.5t37 -119.5t9.5 -140v-170q0 -50 1.5 -88.5t7 -66.5t10 -47
t15.5 -31.5t18 -19t24 -9.5t27 -3.5t32 -0.5v-150q-22 0 -32 -0.5t-27 -3.5t-24 -9.5t-18 -19t-15.5 -31.5t-10 -47t-7 -66.5t-1.5 -88.5v-170q0 -79 -9.5 -140t-37 -119.5t-73 -96.5t-122 -61t-180.5 -23z" />
    <glyph glyph-name="asciitilde" unicode="~" horiz-adv-x="1071" 
d="M702 569q-53 0 -99.5 22t-74.5 48t-65 48t-74 22q-55 0 -81.5 -39.5t-26.5 -98.5h-121q0 123 68 190.5t163 67.5q42 0 79 -14.5t63.5 -34.5t51.5 -40.5t54.5 -35t60.5 -14.5q48 0 72.5 38.5t24.5 98.5h121q0 -127 -60.5 -192.5t-155.5 -65.5z" />
    <glyph glyph-name="uni00A0" unicode="&#xa0;" horiz-adv-x="538" 
 />
    <glyph glyph-name="exclamdown" unicode="&#xa1;" horiz-adv-x="497" 
d="M250 934q-49 0 -82 33.5t-33 79.5q0 48 33 82t82 34q46 0 78 -34.5t32 -81.5q0 -46 -32.5 -79.5t-77.5 -33.5zM330 -446h-164v102l41 1100h82l41 -1100v-102z" />
    <glyph glyph-name="cent" unicode="&#xa2;" horiz-adv-x="1140" 
d="M934 580l104 -39q-52 -138 -158 -216t-245 -87v-238h-94v242q-180 21 -292 153.5t-112 335.5t112 336.5t292 155.5v243h94v-239q121 -8 217.5 -72.5t146.5 -189.5l-108 -41q-31 83 -98.5 134t-157.5 60v-772q108 7 184 70.5t115 163.5zM260 731q0 -153 77.5 -256
t203.5 -125v766q-128 -20 -204.5 -126t-76.5 -259z" />
    <glyph glyph-name="sterling" unicode="&#xa3;" horiz-adv-x="1222" 
d="M334 133h803v-133h-1035v135q179 70 282 185.5t103 244.5q0 80 -45 168h-313v105h248q-8 11 -37 51.5t-39 56.5t-33.5 52.5t-33 60.5t-23 59t-18.5 69t-5 70q0 172 121 272.5t307 100.5q57 0 111 -10t115 -37t110 -69t91 -113t63 -162l-131 -53q-24 88 -65 152
t-90.5 97.5t-99.5 48.5t-104 15q-119 0 -197.5 -64t-78.5 -180q0 -56 22.5 -115t49 -98.5t72.5 -103t69 -100.5h430v-105h-377q29 -76 29 -151q0 -129 -79.5 -247.5t-221.5 -201.5z" />
    <glyph glyph-name="currency" unicode="&#xa4;" horiz-adv-x="1353" 
d="M1061 823q0 -152 -84 -260l270 -321l-92 -82l-272 321q-86 -53 -203 -53q-116 0 -209 55l-272 -323l-95 82l273 323q-84 108 -84 258t82 256l-271 322l95 84l270 -322q94 56 209 56q116 0 207 -56l270 322l92 -84l-268 -320q82 -109 82 -258zM678 539q117 0 186.5 79
t69.5 205t-69.5 205.5t-186.5 79.5t-187.5 -79.5t-70.5 -205.5t71 -205t187 -79z" />
    <glyph glyph-name="yen" unicode="&#xa5;" horiz-adv-x="1452" 
d="M799 0h-148v274h-370v117h370v191h-370v116h315l-533 899h158q385 -657 502 -860h4l506 860h156l-535 -899h320v-116h-375v-191h375v-117h-375v-274z" />
    <glyph glyph-name="brokenbar" unicode="&#xa6;" horiz-adv-x="528" 
d="M330 838h-131v800h131v-800zM330 -451h-131v793h131v-793z" />
    <glyph glyph-name="section" unicode="&#xa7;" horiz-adv-x="1093" 
d="M559 -301q-169 0 -298.5 95t-174.5 245l125 39q43 -113 142 -188.5t208 -75.5q39 0 79 10.5t78.5 32.5t62.5 63t24 96q0 27 -7 50t-16.5 39.5t-28.5 32.5t-34.5 25.5t-44.5 21.5t-47.5 18.5t-53.5 17.5l-106 37q-43 15 -73 27t-79 40.5t-80 60.5t-55 83.5t-24 112.5
q0 99 56.5 168t149.5 100v4q-85 41 -137.5 109.5t-52.5 164.5q0 80 33.5 143t89 100t122 56t138.5 19q91 0 166 -27.5t138 -97t93 -178.5l-133 -41q-36 119 -99.5 174t-174.5 55q-105 0 -169.5 -50.5t-64.5 -137.5q0 -40 17 -74.5t40 -56.5t61.5 -42.5t65.5 -30.5t68 -24
l125 -41q37 -13 51 -18.5t51 -22t55.5 -29t46.5 -36t41.5 -47.5t24.5 -58t11 -73q0 -98 -57.5 -178t-151.5 -115v-4q190 -79 190 -260q0 -140 -110 -237t-281 -97zM537 371l53 -17q39 2 78 14.5t76.5 35.5t61 64.5t23.5 94.5q0 27 -7 50.5t-16.5 40t-28.5 32t-34 25
t-43.5 20.5t-46 17t-51.5 16l-78 24q-63 20 -118.5 -4t-86 -75.5t-30.5 -110.5q0 -39 17 -73t40.5 -56.5t60.5 -43t65 -31.5t65 -23z" />
    <glyph glyph-name="copyright" unicode="&#xa9;" horiz-adv-x="1933" 
d="M969 -35q-184 0 -341.5 65.5t-264.5 178.5t-167.5 265.5t-60.5 324.5q0 171 60.5 323.5t167.5 264.5t264.5 177.5t341.5 65.5q183 0 340 -65.5t264 -177.5t167 -264.5t60 -323.5q0 -172 -60 -324.5t-167 -265.5t-264 -178.5t-340 -65.5zM969 80q159 0 295 56.5t228 154
t144 229t52 279.5q0 147 -52 278.5t-144 229t-228 154.5t-295 57q-160 0 -296.5 -57t-229 -154.5t-144 -228.5t-51.5 -279t51.5 -279.5t144 -229t228.5 -154t297 -56.5zM975 350q-188 0 -306 125t-118 324q0 200 119.5 324t304.5 124q134 0 232.5 -67t142.5 -191l-115 -41
q-31 92 -99.5 141.5t-164.5 49.5q-130 0 -212.5 -95.5t-82.5 -246.5q0 -153 86.5 -244.5t218.5 -91.5q103 0 181 58.5t116 166.5l106 -33q-46 -144 -153.5 -223.5t-255.5 -79.5z" />
    <glyph glyph-name="guillemotleft" unicode="&#xab;" horiz-adv-x="1144" 
d="M604 164h-158l-337 405v9l337 405h158l-338 -405v-9zM1008 164h-158l-336 405v9l336 405h158l-336 -405v-9z" />
    <glyph glyph-name="logicalnot" unicode="&#xac;" horiz-adv-x="1040" 
d="M881 254h-127v315h-602v123h729v-438z" />
    <glyph glyph-name="registered" unicode="&#xae;" horiz-adv-x="1163" 
d="M582 739q-195 0 -322 127.5t-127 321.5q0 192 127 319t322 127q193 0 319.5 -127.5t126.5 -318.5q0 -194 -126.5 -321.5t-319.5 -127.5zM582 817q161 0 264.5 104.5t103.5 266.5q0 159 -103.5 263.5t-264.5 104.5t-266 -104t-105 -264q0 -162 104.5 -266.5t266.5 -104.5z
M504 944h-78v494h180q71 0 120.5 -41t49.5 -113q0 -57 -29.5 -96t-80.5 -53l129 -191h-88l-123 182h-80v-182zM504 1364v-164h98q44 0 68 21t24 61t-26 61t-70 21h-94z" />
    <glyph glyph-name="degree" unicode="&#xb0;" horiz-adv-x="780" 
d="M389 1055q-127 0 -210 84.5t-83 212.5q0 126 83.5 211.5t209.5 85.5t209.5 -85.5t83.5 -211.5q0 -127 -83 -212t-210 -85zM389 1149q83 0 137 58t54 145t-54 144.5t-137 57.5q-80 0 -134 -58t-54 -144q0 -87 53.5 -145t134.5 -58z" />
    <glyph glyph-name="plusminus" unicode="&#xb1;" horiz-adv-x="1048" 
d="M893 782v-118h-307v-211h307v-115h-739v115h307v211h-307v118h307v246h125v-246h307z" />
    <glyph glyph-name="uni00B2" unicode="&#xb2;" horiz-adv-x="643" 
d="M563 803h-479v12q4 64 16.5 108t44.5 82.5t67 66t103 73.5q26 19 41 30.5t38.5 35t35.5 49.5t12 55q0 47 -33 77.5t-87 30.5q-66 0 -108 -45t-42 -118l-102 16q0 110 71.5 180t182.5 70q102 0 169.5 -59t67.5 -152q0 -70 -36 -120t-99 -93q-17 -13 -50.5 -34.5t-51 -34.5
t-39.5 -33t-34.5 -42t-19.5 -49h332v-106z" />
    <glyph glyph-name="uni00B3" unicode="&#xb3;" horiz-adv-x="651" 
d="M319 788q-95 0 -166.5 45t-93.5 117l99 49q21 -54 62.5 -84t98.5 -30q60 0 99 32.5t39 88.5q0 55 -41 85.5t-111 30.5h-69v82h73q60 0 96.5 31.5t36.5 81.5t-37 80t-92 30t-91.5 -32t-45.5 -88l-100 22q10 86 79.5 141.5t166.5 55.5q98 0 164.5 -51.5t66.5 -135.5
q0 -57 -31 -103.5t-84 -59.5q59 -12 98 -58t39 -110q0 -89 -69 -154.5t-187 -65.5z" />
    <glyph glyph-name="paragraph" unicode="&#xb6;" horiz-adv-x="1458" 
d="M918 -287h-146v942h-225q-213 0 -344 133.5t-131 346.5q0 98 33.5 181.5t97 146t162 98.5t221.5 36h332v-1884zM1223 -287h-146v1884h146v-1884z" />
    <glyph glyph-name="periodcentered" unicode="&#xb7;" horiz-adv-x="557" 
d="M281 477q-58 0 -99 42t-41 102q0 57 41 97t99 40q57 0 97 -40t40 -97q0 -60 -40 -102t-97 -42z" />
    <glyph glyph-name="uni00B9" unicode="&#xb9;" horiz-adv-x="450" 
d="M315 803h-112v516q-54 -67 -154 -84v113q71 19 114.5 63.5t43.5 99.5h108v-708z" />
    <glyph glyph-name="guillemotright" unicode="&#xbb;" horiz-adv-x="1144" 
d="M295 164h-158l338 405v9l-338 405h158l336 -405v-9zM700 164h-157l336 405v9l-336 405h157l336 -405v-9z" />
    <glyph glyph-name="onequarter" unicode="&#xbc;" horiz-adv-x="1349" 
d="M315 803h-112v516q-54 -67 -154 -84v113q71 19 114.5 63.5t43.5 99.5h108v-708zM102 0h-131l1139 1468h123zM1188 -14h-109v157h-346v97l348 454h107v-456h98v-95h-98v-157zM1079 545l-235 -307h235v307z" />
    <glyph glyph-name="onehalf" unicode="&#xbd;" horiz-adv-x="1386" 
d="M315 803h-112v516q-54 -67 -154 -84v113q71 19 114.5 63.5t43.5 99.5h108v-708zM102 0h-131l1139 1468h123zM1307 -14h-480v12q4 64 17 108t45 83t67 66t103 73q26 19 41 30.5t38.5 35t35.5 49.5t12 55q0 47 -33 77.5t-88 30.5q-66 0 -108 -45.5t-42 -118.5l-102 17
q0 110 71.5 180t182.5 70q102 0 170 -59t68 -152q0 -70 -36.5 -120t-99.5 -93q-17 -12 -50.5 -34t-50.5 -35t-39 -33t-34.5 -42t-19.5 -49h332v-106z" />
    <glyph glyph-name="threequarters" unicode="&#xbe;" horiz-adv-x="1550" 
d="M319 788q-95 0 -166.5 45t-93.5 117l99 49q21 -54 62.5 -84t98.5 -30q60 0 99 32.5t39 88.5q0 55 -41 85.5t-111 30.5h-69v82h73q60 0 96.5 31.5t36.5 81.5t-37 80t-92 30t-91.5 -32t-45.5 -88l-100 22q10 86 79.5 141.5t166.5 55.5q98 0 164.5 -51.5t66.5 -135.5
q0 -57 -31 -103.5t-84 -59.5q59 -12 98 -58t39 -110q0 -89 -69 -154.5t-187 -65.5zM303 0h-131l1139 1468h123zM1389 -14h-109v157h-346v97l348 454h107v-456h98v-95h-98v-157zM1280 545l-236 -307h236v307z" />
    <glyph glyph-name="questiondown" unicode="&#xbf;" horiz-adv-x="1069" 
d="M590 934q-47 0 -80 33t-33 80t32.5 81.5t78.5 34.5q47 0 80.5 -34.5t33.5 -81.5q0 -46 -32.5 -79.5t-79.5 -33.5zM535 -481q-122 0 -225.5 48t-169.5 144.5t-66 222.5q0 73 23 140t67.5 124.5t88.5 100t105 90.5q44 34 64.5 51t51 47t42 54t23 59t10 76t-11.5 92h139
q10 -52 11.5 -95.5t-2.5 -78t-20.5 -67.5t-32.5 -57t-48.5 -55t-59 -53.5t-73.5 -58.5q-109 -86 -167.5 -171t-58.5 -187q0 -135 93 -216t225 -81q150 0 249 107t76 286l129 -25q13 -111 -19.5 -206t-97.5 -157.5t-154.5 -98t-190.5 -35.5z" />
    <glyph glyph-name="Agrave" unicode="&#xc0;" horiz-adv-x="1513" 
d="M848 1720h-127l-340 324h207zM184 0h-155l647 1597h162l647 -1597h-156q-89 213 -229 559h-692zM461 694h586q-123 305 -289 736h-4q-28 -71 -132 -331t-161 -405z" />
    <glyph glyph-name="Aacute" unicode="&#xc1;" horiz-adv-x="1513" 
d="M1139 2044l-340 -324h-127l260 324h207zM184 0h-155l647 1597h162l647 -1597h-156q-89 213 -229 559h-692zM461 694h586q-123 305 -289 736h-4q-28 -71 -132 -331t-161 -405z" />
    <glyph glyph-name="Acircumflex" unicode="&#xc2;" horiz-adv-x="1513" 
d="M842 2028l268 -308h-129q-132 122 -225 217q-66 -68 -228 -217h-127l269 308h172zM184 0h-155l647 1597h162l647 -1597h-156q-89 213 -229 559h-692zM461 694h586q-123 305 -289 736h-4q-28 -71 -132 -331t-161 -405z" />
    <glyph glyph-name="Atilde" unicode="&#xc3;" horiz-adv-x="1513" 
d="M909 1747q-15 0 -28.5 2t-24 4t-22.5 8t-19 9t-19 11.5t-16.5 12t-17.5 14t-17 13.5l-38 32q-22 19 -31 26t-29 16.5t-39 9.5q-48 0 -77 -40t-29 -102h-105q2 110 60.5 180t150.5 70q69 0 150 -67l43 -37q63 -54 108 -54q46 0 72.5 40.5t26.5 103.5h104
q0 -117 -53.5 -184.5t-149.5 -67.5zM184 0h-155l647 1597h162l647 -1597h-156q-89 213 -229 559h-692zM461 694h586q-123 305 -289 736h-4q-28 -71 -132 -331t-161 -405z" />
    <glyph glyph-name="Adieresis" unicode="&#xc4;" horiz-adv-x="1513" 
d="M557 1784q-46 0 -77 32.5t-31 79.5q0 43 31.5 75t76.5 32t77 -32t32 -75q0 -47 -31.5 -79.5t-77.5 -32.5zM954 1784q-47 0 -77.5 32t-30.5 80q0 44 31 75.5t77 31.5q44 0 75.5 -32t31.5 -75q0 -47 -31.5 -79.5t-75.5 -32.5zM184 0h-155l647 1597h162l647 -1597h-156
q-89 213 -229 559h-692zM461 694h586q-123 305 -289 736h-4q-28 -71 -132 -331t-161 -405z" />
    <glyph glyph-name="Aring" unicode="&#xc5;" horiz-adv-x="1513" 
d="M756 1714q-98 0 -163 63t-65 158q0 94 65 156.5t163 62.5q96 0 160.5 -62t64.5 -157q0 -96 -64.5 -158.5t-160.5 -62.5zM756 1810q55 0 91 34t36 91q0 55 -36 88t-91 33q-58 0 -94.5 -33t-36.5 -88q0 -58 36.5 -91.5t94.5 -33.5zM184 0h-155l647 1597h162l647 -1597h-156
q-89 213 -229 559h-692zM461 694h586q-123 305 -289 736h-4q-28 -71 -132 -331t-161 -405z" />
    <glyph glyph-name="AE" unicode="&#xc6;" horiz-adv-x="2115" 
d="M117 0h-160l942 1597h1088v-133h-859v-575h818v-137h-818v-613h879v-139h-1026v555h-537zM526 692h455v772h-4q-75 -129 -225.5 -386t-225.5 -386z" />
    <glyph glyph-name="Ccedilla" unicode="&#xc7;" horiz-adv-x="1720" 
d="M1540 586l131 -47q-38 -124 -103.5 -226t-157 -180.5t-215 -122.5t-267.5 -45l-84 -123q30 19 80 19q84 0 136 -45.5t52 -120.5q0 -83 -65 -135t-164 -52q-74 0 -142.5 30.5t-111.5 80.5l57 59q34 -43 84.5 -67.5t103.5 -24.5q59 0 98.5 30t39.5 77q0 43 -35.5 70.5
t-89.5 27.5t-96 -27l-56 54l99 151q-213 18 -378 126.5t-256 289.5t-91 408q0 149 40.5 281t113.5 232.5t171.5 174t219 111.5t251.5 38q113 0 221 -29.5t203 -85.5t169 -146.5t112 -205.5l-133 -53q-71 180 -225 281.5t-345 101.5q-130 0 -246.5 -48.5t-204.5 -136.5
t-140 -222t-52 -295q0 -169 57 -303.5t152 -217t212 -125.5t245 -43q121 0 225 38.5t178.5 106t126 153t80.5 186.5z" />
    <glyph glyph-name="Egrave" unicode="&#xc8;" horiz-adv-x="1347" 
d="M780 1720h-127l-340 324h207zM1241 0h-1026v1597h1006v-133h-859v-575h818v-137h-818v-613h879v-139z" />
    <glyph glyph-name="Eacute" unicode="&#xc9;" horiz-adv-x="1347" 
d="M1071 2044l-340 -324h-127l260 324h207zM1241 0h-1026v1597h1006v-133h-859v-575h818v-137h-818v-613h879v-139z" />
    <glyph glyph-name="Ecircumflex" unicode="&#xca;" horiz-adv-x="1347" 
d="M774 2028l268 -308h-129q-132 122 -225 217q-75 -77 -227 -217h-127l268 308h172zM1241 0h-1026v1597h1006v-133h-859v-575h818v-137h-818v-613h879v-139z" />
    <glyph glyph-name="Edieresis" unicode="&#xcb;" horiz-adv-x="1347" 
d="M489 1784q-46 0 -77 32.5t-31 79.5q0 43 31.5 75t76.5 32t77 -32t32 -75q0 -47 -31.5 -79.5t-77.5 -32.5zM887 1784q-47 0 -78 32t-31 80q0 44 31.5 75.5t77.5 31.5q44 0 75 -32t31 -75q0 -47 -31 -79.5t-75 -32.5zM1241 0h-1026v1597h1006v-133h-859v-575h818v-137h-818
v-613h879v-139z" />
    <glyph glyph-name="Igrave" unicode="&#xcc;" horiz-adv-x="577" 
d="M381 1720h-127l-340 324h207zM362 0h-147v1597h147v-1597z" />
    <glyph glyph-name="Iacute" unicode="&#xcd;" horiz-adv-x="577" 
d="M672 2044l-340 -324h-127l260 324h207zM362 0h-147v1597h147v-1597z" />
    <glyph glyph-name="Icircumflex" unicode="&#xce;" horiz-adv-x="577" 
d="M375 2028l268 -308h-129q-132 122 -225 217q-66 -68 -228 -217h-127l269 308h172zM362 0h-147v1597h147v-1597z" />
    <glyph glyph-name="Idieresis" unicode="&#xcf;" horiz-adv-x="577" 
d="M90 1784q-46 0 -77 32.5t-31 79.5q0 43 31.5 75t76.5 32t77 -32t32 -75q0 -47 -31.5 -79.5t-77.5 -32.5zM487 1784q-47 0 -77.5 32t-30.5 80q0 44 31 75.5t77 31.5q44 0 75.5 -32t31.5 -75q0 -47 -31.5 -79.5t-75.5 -32.5zM362 0h-147v1597h147v-1597z" />
    <glyph glyph-name="Eth" unicode="&#xd0;" horiz-adv-x="1648" 
d="M215 1597h563q156 0 283 -40.5t214.5 -112t146.5 -171.5t86.5 -216t27.5 -248q0 -238 -87 -420t-255.5 -285.5t-396.5 -103.5h-582v737h-172v121h172v739zM805 133q265 0 421 178t156 486q0 317 -169.5 492t-467.5 175h-383v-606h533v-121h-533v-604h443z" />
    <glyph glyph-name="Ntilde" unicode="&#xd1;" horiz-adv-x="1689" 
d="M979 1796q-15 0 -28.5 2t-24 4t-22.5 8t-19 9t-19 11.5t-16.5 12t-17.5 14t-17 13.5l-39 33q-21 18 -30.5 25.5t-29 16.5t-38.5 9q-49 0 -78 -40.5t-29 -101.5h-104q2 110 60.5 180t150.5 70q41 0 75 -17t74 -50l43 -37q62 -53 109 -53q46 0 72 40t26 103h105
q0 -117 -53.5 -184.5t-149.5 -67.5zM362 0h-147v1597h160q71 -102 230 -328.5t250 -357t224 -323t244 -357.5h4v1366h148v-1597h-160q-105 149 -436.5 616.5t-513.5 731.5h-3v-1348z" />
    <glyph glyph-name="Ograve" unicode="&#xd2;" horiz-adv-x="1816" 
d="M999 1720h-127l-340 324h207zM907 -35q-162 0 -309.5 63t-255.5 172t-172 264.5t-64 332.5t63.5 332.5t172 265t256 172.5t311.5 63q166 0 315 -65t255.5 -176t168.5 -265.5t62 -326.5q0 -174 -63 -329t-170.5 -265t-256 -174t-313.5 -64zM911 102q128 0 245 53
t204.5 144t139.5 221t52 277t-51.5 277.5t-139 221.5t-205 144t-245.5 53q-129 0 -247.5 -52.5t-206.5 -143.5t-140.5 -221.5t-52.5 -278.5t52.5 -278t140.5 -221t206.5 -143.5t247.5 -52.5z" />
    <glyph glyph-name="Oacute" unicode="&#xd3;" horiz-adv-x="1816" 
d="M1288 2044l-340 -324h-127l260 324h207zM907 -35q-162 0 -309.5 63t-255.5 172t-172 264.5t-64 332.5t63.5 332.5t172 265t256 172.5t311.5 63q166 0 315 -65t255.5 -176t168.5 -265.5t62 -326.5q0 -174 -63 -329t-170.5 -265t-256 -174t-313.5 -64zM911 102
q128 0 245 53t204.5 144t139.5 221t52 277t-51.5 277.5t-139 221.5t-205 144t-245.5 53q-129 0 -247.5 -52.5t-206.5 -143.5t-140.5 -221.5t-52.5 -278.5t52.5 -278t140.5 -221t206.5 -143.5t247.5 -52.5z" />
    <glyph glyph-name="Ocircumflex" unicode="&#xd4;" horiz-adv-x="1816" 
d="M993 2028l269 -308h-129q-142 131 -226 217q-75 -77 -227 -217h-127l268 308h172zM907 -35q-162 0 -309.5 63t-255.5 172t-172 264.5t-64 332.5t63.5 332.5t172 265t256 172.5t311.5 63q166 0 315 -65t255.5 -176t168.5 -265.5t62 -326.5q0 -174 -63 -329t-170.5 -265
t-256 -174t-313.5 -64zM911 102q128 0 245 53t204.5 144t139.5 221t52 277t-51.5 277.5t-139 221.5t-205 144t-245.5 53q-129 0 -247.5 -52.5t-206.5 -143.5t-140.5 -221.5t-52.5 -278.5t52.5 -278t140.5 -221t206.5 -143.5t247.5 -52.5z" />
    <glyph glyph-name="Otilde" unicode="&#xd5;" horiz-adv-x="1816" 
d="M1061 1796q-15 0 -28.5 2t-24 4t-22.5 8t-19 9t-19 11.5t-16.5 12t-17.5 14t-17 13.5l-39 33q-21 18 -30.5 25.5t-29 16.5t-38.5 9q-49 0 -78 -40.5t-29 -101.5h-104q2 110 60.5 180t150.5 70q41 0 75 -17t74 -50l43 -37q62 -53 109 -53q46 0 72 40t26 103h105
q0 -117 -53.5 -184.5t-149.5 -67.5zM907 -35q-162 0 -309.5 63t-255.5 172t-172 264.5t-64 332.5t63.5 332.5t172 265t256 172.5t311.5 63q166 0 315 -65t255.5 -176t168.5 -265.5t62 -326.5q0 -174 -63 -329t-170.5 -265t-256 -174t-313.5 -64zM911 102q128 0 245 53
t204.5 144t139.5 221t52 277t-51.5 277.5t-139 221.5t-205 144t-245.5 53q-129 0 -247.5 -52.5t-206.5 -143.5t-140.5 -221.5t-52.5 -278.5t52.5 -278t140.5 -221t206.5 -143.5t247.5 -52.5z" />
    <glyph glyph-name="Odieresis" unicode="&#xd6;" horiz-adv-x="1816" 
d="M709 1784q-46 0 -77.5 32.5t-31.5 79.5q0 43 32 75t77 32t76.5 -32t31.5 -75q0 -47 -31 -79.5t-77 -32.5zM1106 1784q-47 0 -78 32t-31 80q0 44 31.5 75.5t77.5 31.5q44 0 75 -32t31 -75q0 -47 -31 -79.5t-75 -32.5zM907 -35q-162 0 -309.5 63t-255.5 172t-172 264.5
t-64 332.5t63.5 332.5t172 265t256 172.5t311.5 63q166 0 315 -65t255.5 -176t168.5 -265.5t62 -326.5q0 -174 -63 -329t-170.5 -265t-256 -174t-313.5 -64zM911 102q128 0 245 53t204.5 144t139.5 221t52 277t-51.5 277.5t-139 221.5t-205 144t-245.5 53
q-129 0 -247.5 -52.5t-206.5 -143.5t-140.5 -221.5t-52.5 -278.5t52.5 -278t140.5 -221t206.5 -143.5t247.5 -52.5z" />
    <glyph glyph-name="multiply" unicode="&#xd7;" horiz-adv-x="925" 
d="M379 625l-229 227l86 88l231 -227l221 219l86 -86l-221 -219l227 -230l-88 -88l-227 230l-223 -224l-86 86z" />
    <glyph glyph-name="Oslash" unicode="&#xd8;" horiz-adv-x="1816" 
d="M1575 1661l-152 -221q135 -116 211 -283t76 -360q0 -174 -63 -329t-170.5 -265t-256 -174t-313.5 -64q-226 0 -415 117l-101 -148h-155l153 224q-132 116 -207.5 281t-75.5 358q0 177 63.5 332.5t172 265t256 172.5t311.5 63q225 0 410 -112l98 143h158zM264 797
q0 -154 55.5 -286.5t153.5 -227.5l764 1116q-153 94 -326 94q-129 0 -247.5 -52.5t-206.5 -143.5t-140.5 -221.5t-52.5 -278.5zM911 102q128 0 245 53t204.5 144t139.5 221t52 277q0 156 -56.5 289.5t-156.5 230.5l-766 -1114q153 -101 338 -101z" />
    <glyph glyph-name="Ugrave" unicode="&#xd9;" horiz-adv-x="1540" 
d="M862 1720h-127l-340 324h207zM764 -35q-276 0 -421.5 159.5t-145.5 455.5v1017h145v-1009q0 -249 112 -368.5t316 -119.5q205 0 316.5 119.5t111.5 368.5v1009h145v-1017q0 -133 -33 -242.5t-101 -194t-181.5 -131.5t-263.5 -47z" />
    <glyph glyph-name="Uacute" unicode="&#xda;" horiz-adv-x="1540" 
d="M1102 2044l-340 -324h-127l260 324h207zM764 -35q-276 0 -421.5 159.5t-145.5 455.5v1017h145v-1009q0 -249 112 -368.5t316 -119.5q205 0 316.5 119.5t111.5 368.5v1009h145v-1017q0 -133 -33 -242.5t-101 -194t-181.5 -131.5t-263.5 -47z" />
    <glyph glyph-name="Ucircumflex" unicode="&#xdb;" horiz-adv-x="1540" 
d="M856 2028l268 -308h-129q-132 122 -225 217q-75 -77 -227 -217h-127l268 308h172zM764 -35q-276 0 -421.5 159.5t-145.5 455.5v1017h145v-1009q0 -249 112 -368.5t316 -119.5q205 0 316.5 119.5t111.5 368.5v1009h145v-1017q0 -133 -33 -242.5t-101 -194t-181.5 -131.5
t-263.5 -47z" />
    <glyph glyph-name="Udieresis" unicode="&#xdc;" horiz-adv-x="1540" 
d="M571 1784q-46 0 -77 32.5t-31 79.5q0 43 31.5 75t76.5 32t77 -32t32 -75q0 -47 -31.5 -79.5t-77.5 -32.5zM969 1784q-47 0 -78 32t-31 80q0 44 31.5 75.5t77.5 31.5q44 0 75 -32t31 -75q0 -47 -31 -79.5t-75 -32.5zM764 -35q-276 0 -421.5 159.5t-145.5 455.5v1017h145
v-1009q0 -249 112 -368.5t316 -119.5q205 0 316.5 119.5t111.5 368.5v1009h145v-1017q0 -133 -33 -242.5t-101 -194t-181.5 -131.5t-263.5 -47z" />
    <glyph glyph-name="Yacute" unicode="&#xdd;" horiz-adv-x="1411" 
d="M1081 2044l-340 -324h-127l260 324h207zM778 0h-145v586q-299 504 -594 1011h160l506 -872h4l510 872h155l-596 -1011v-586z" />
    <glyph glyph-name="Thorn" unicode="&#xde;" horiz-adv-x="1396" 
d="M362 0h-147v1597h147v-282h414q146 0 263.5 -54t189 -163t71.5 -256q0 -118 -42 -213.5t-111.5 -154.5t-156.5 -90.5t-181 -31.5h-447v-352zM362 1182v-695h402q176 0 279.5 90.5t103.5 256.5q0 164 -109.5 256t-287.5 92h-388z" />
    <glyph glyph-name="germandbls" unicode="&#xdf;" horiz-adv-x="1263" 
d="M319 0h-137v1161q0 36 2.5 69.5t13 87.5t28.5 99t53 94.5t82.5 83.5t120.5 56t163 22q112 0 202 -33t149 -91t90.5 -136.5t31.5 -171.5q0 -154 -77.5 -260.5t-198.5 -128.5v-2q146 -21 237.5 -125t91.5 -262q0 -94 -35.5 -177t-101 -147t-168 -101.5t-227.5 -37.5h-147
v121h159q163 0 267 95.5t104 244.5q0 137 -90.5 228t-233.5 91h-100v121h90q127 0 206 87t79 233q0 142 -81.5 234.5t-244.5 92.5q-82 0 -144.5 -27t-96.5 -65.5t-54.5 -91t-26.5 -93.5t-6 -83v-1188z" />
    <glyph glyph-name="agrave" unicode="&#xe0;" horiz-adv-x="1173" 
d="M664 1278h-121l-312 391h189zM455 -35q-154 0 -256.5 76.5t-102.5 218.5q0 77 32.5 137t92 100t127.5 65.5t156 43.5q28 6 74.5 14.5t70.5 13.5t59.5 13.5t53.5 16.5t41 21.5t33.5 28.5t18 36.5t7.5 48.5q0 99 -80.5 172t-206.5 73q-112 0 -192.5 -63.5t-114.5 -173.5
l-133 47q33 104 105.5 175.5t160 102.5t185.5 31q80 0 152.5 -22t133.5 -65.5t97.5 -118t36.5 -171.5v-432q0 -132 8.5 -206.5t27.5 -147.5h-139q-26 104 -26 236h-5q-58 -123 -163.5 -197t-253.5 -74zM479 78q85 0 160 37t122.5 93.5t75 121.5t27.5 123v153
q-47 -36 -100 -55t-168 -41q-36 -7 -61.5 -12.5t-65 -16.5t-67 -23t-59.5 -31.5t-51.5 -41.5t-32.5 -52.5t-13 -66.5q0 -86 63 -137t170 -51z" />
    <glyph glyph-name="aacute" unicode="&#xe1;" horiz-adv-x="1173" 
d="M961 1669l-312 -391h-123l246 391h189zM455 -35q-154 0 -256.5 76.5t-102.5 218.5q0 77 32.5 137t92 100t127.5 65.5t156 43.5q28 6 74.5 14.5t70.5 13.5t59.5 13.5t53.5 16.5t41 21.5t33.5 28.5t18 36.5t7.5 48.5q0 99 -80.5 172t-206.5 73q-112 0 -192.5 -63.5
t-114.5 -173.5l-133 47q33 104 105.5 175.5t160 102.5t185.5 31q80 0 152.5 -22t133.5 -65.5t97.5 -118t36.5 -171.5v-432q0 -132 8.5 -206.5t27.5 -147.5h-139q-26 104 -26 236h-5q-58 -123 -163.5 -197t-253.5 -74zM479 78q85 0 160 37t122.5 93.5t75 121.5t27.5 123v153
q-47 -36 -100 -55t-168 -41q-36 -7 -61.5 -12.5t-65 -16.5t-67 -23t-59.5 -31.5t-51.5 -41.5t-32.5 -52.5t-13 -66.5q0 -86 63 -137t170 -51z" />
    <glyph glyph-name="acircumflex" unicode="&#xe2;" horiz-adv-x="1173" 
d="M342 1278h-131l295 358h180l297 -358h-131q-199 203 -254 264q-41 -44 -256 -264zM455 -35q-154 0 -256.5 76.5t-102.5 218.5q0 77 32.5 137t92 100t127.5 65.5t156 43.5q28 6 74.5 14.5t70.5 13.5t59.5 13.5t53.5 16.5t41 21.5t33.5 28.5t18 36.5t7.5 48.5
q0 99 -80.5 172t-206.5 73q-112 0 -192.5 -63.5t-114.5 -173.5l-133 47q33 104 105.5 175.5t160 102.5t185.5 31q80 0 152.5 -22t133.5 -65.5t97.5 -118t36.5 -171.5v-432q0 -132 8.5 -206.5t27.5 -147.5h-139q-26 104 -26 236h-5q-58 -123 -163.5 -197t-253.5 -74zM479 78
q85 0 160 37t122.5 93.5t75 121.5t27.5 123v153q-47 -36 -100 -55t-168 -41q-36 -7 -61.5 -12.5t-65 -16.5t-67 -23t-59.5 -31.5t-51.5 -41.5t-32.5 -52.5t-13 -66.5q0 -86 63 -137t170 -51z" />
    <glyph glyph-name="atilde" unicode="&#xe3;" horiz-adv-x="1173" 
d="M752 1329q-15 0 -28.5 2t-24 4t-22.5 8t-19 9t-19 11.5t-16.5 12t-17.5 14t-17 13.5l-39 33q-21 18 -30.5 25.5t-29 16.5t-38.5 9q-49 0 -78 -40t-29 -101h-104q2 110 60.5 179.5t150.5 69.5q41 0 75 -17t74 -50l43 -37q62 -53 109 -53q46 0 72 40t26 103h104
q0 -117 -53 -184.5t-149 -67.5zM455 -35q-154 0 -256.5 76.5t-102.5 218.5q0 77 32.5 137t92 100t127.5 65.5t156 43.5q28 6 74.5 14.5t70.5 13.5t59.5 13.5t53.5 16.5t41 21.5t33.5 28.5t18 36.5t7.5 48.5q0 99 -80.5 172t-206.5 73q-112 0 -192.5 -63.5t-114.5 -173.5
l-133 47q33 104 105.5 175.5t160 102.5t185.5 31q80 0 152.5 -22t133.5 -65.5t97.5 -118t36.5 -171.5v-432q0 -132 8.5 -206.5t27.5 -147.5h-139q-26 104 -26 236h-5q-58 -123 -163.5 -197t-253.5 -74zM479 78q85 0 160 37t122.5 93.5t75 121.5t27.5 123v153
q-47 -36 -100 -55t-168 -41q-36 -7 -61.5 -12.5t-65 -16.5t-67 -23t-59.5 -31.5t-51.5 -41.5t-32.5 -52.5t-13 -66.5q0 -86 63 -137t170 -51z" />
    <glyph glyph-name="adieresis" unicode="&#xe4;" horiz-adv-x="1173" 
d="M414 1370q-44 0 -75.5 32.5t-31.5 76.5q0 42 31.5 73t75.5 31q45 0 74.5 -31t29.5 -73q0 -45 -29.5 -77t-74.5 -32zM778 1370q-45 0 -75.5 32t-30.5 77q0 42 30.5 73t75.5 31q44 0 74.5 -31t30.5 -73q0 -45 -30.5 -77t-74.5 -32zM455 -35q-154 0 -256.5 76.5
t-102.5 218.5q0 77 32.5 137t92 100t127.5 65.5t156 43.5q28 6 74.5 14.5t70.5 13.5t59.5 13.5t53.5 16.5t41 21.5t33.5 28.5t18 36.5t7.5 48.5q0 99 -80.5 172t-206.5 73q-112 0 -192.5 -63.5t-114.5 -173.5l-133 47q33 104 105.5 175.5t160 102.5t185.5 31q80 0 152.5 -22
t133.5 -65.5t97.5 -118t36.5 -171.5v-432q0 -132 8.5 -206.5t27.5 -147.5h-139q-26 104 -26 236h-5q-58 -123 -163.5 -197t-253.5 -74zM479 78q85 0 160 37t122.5 93.5t75 121.5t27.5 123v153q-47 -36 -100 -55t-168 -41q-36 -7 -61.5 -12.5t-65 -16.5t-67 -23t-59.5 -31.5
t-51.5 -41.5t-32.5 -52.5t-13 -66.5q0 -86 63 -137t170 -51z" />
    <glyph glyph-name="aring" unicode="&#xe5;" horiz-adv-x="1173" 
d="M598 1247q-98 0 -162.5 63t-64.5 158q0 94 64.5 157t162.5 63q96 0 160.5 -62.5t64.5 -157.5q0 -96 -64.5 -158.5t-160.5 -62.5zM598 1343q55 0 91 34t36 91q0 55 -36 88t-91 33q-56 0 -92.5 -33t-36.5 -88q0 -57 36 -91t93 -34zM455 -35q-154 0 -256.5 76.5
t-102.5 218.5q0 77 32.5 137t92 100t127.5 65.5t156 43.5q28 6 74.5 14.5t70.5 13.5t59.5 13.5t53.5 16.5t41 21.5t33.5 28.5t18 36.5t7.5 48.5q0 99 -80.5 172t-206.5 73q-112 0 -192.5 -63.5t-114.5 -173.5l-133 47q33 104 105.5 175.5t160 102.5t185.5 31q80 0 152.5 -22
t133.5 -65.5t97.5 -118t36.5 -171.5v-432q0 -132 8.5 -206.5t27.5 -147.5h-139q-26 104 -26 236h-5q-58 -123 -163.5 -197t-253.5 -74zM479 78q85 0 160 37t122.5 93.5t75 121.5t27.5 123v153q-47 -36 -100 -55t-168 -41q-36 -7 -61.5 -12.5t-65 -16.5t-67 -23t-59.5 -31.5
t-51.5 -41.5t-32.5 -52.5t-13 -66.5q0 -86 63 -137t170 -51z" />
    <glyph glyph-name="ae" unicode="&#xe6;" horiz-adv-x="2043" 
d="M451 -35q-156 0 -255.5 77t-99.5 218q0 63 21.5 114.5t58 87.5t90.5 64.5t111.5 47t128.5 32.5q28 6 79.5 15t77 14.5t64 15.5t58.5 21.5t41 29t29.5 42t8.5 55.5q0 98 -80 171.5t-206 73.5q-112 0 -193.5 -64t-114.5 -173l-133 47q33 103 105.5 174.5t160 103
t185.5 31.5q83 0 158 -22.5t139.5 -77.5t91.5 -135q71 112 186 173.5t258 61.5q70 0 137 -14.5t138 -54.5t123.5 -101t86 -163t33.5 -232v-53h-929q3 -203 120 -330t297 -127q142 0 246 80.5t154 208.5l127 -45q-64 -173 -205.5 -270t-325.5 -97q-169 0 -301.5 82
t-189.5 238h-4q-62 -141 -187 -230.5t-290 -89.5zM1016 657h776q-3 104 -37.5 181.5t-90 120t-117.5 63t-130 20.5q-160 0 -268 -106t-133 -279zM477 78q84 0 159 37.5t123.5 94t76.5 121.5t28 122v155q-55 -41 -104 -57.5t-158 -36.5q-38 -7 -64 -13t-66.5 -17.5
t-68.5 -23.5t-60 -31.5t-51.5 -41.5t-32.5 -52.5t-13 -66.5q0 -88 64.5 -139t166.5 -51z" />
    <glyph glyph-name="ccedilla" unicode="&#xe7;" horiz-adv-x="1245" 
d="M1067 385l125 -45q-63 -175 -198 -272t-312 -103l-84 -123q30 19 80 19q84 0 136 -45.5t52 -120.5q0 -83 -65 -135t-164 -52q-74 0 -142.5 30.5t-111.5 80.5l57 59q34 -42 85 -67t104 -25q59 0 98 30t39 77q0 43 -35.5 70.5t-89.5 27.5t-96 -27l-56 54l99 151
q-222 23 -358 185t-136 409q0 267 157 433.5t406 166.5q105 0 196 -31.5t170 -105.5t122 -184l-133 -51q-43 117 -138 181t-223 64q-185 0 -297 -134t-112 -339q0 -211 117 -341t303 -130q145 0 248.5 80.5t156.5 212.5z" />
    <glyph glyph-name="egrave" unicode="&#xe8;" horiz-adv-x="1269" 
d="M705 1278h-121l-312 391h189zM651 -35q-119 0 -221.5 43.5t-176.5 121t-116.5 189.5t-42.5 244q0 173 70.5 310t197.5 213.5t287 76.5q69 0 135.5 -14.5t137.5 -54.5t123.5 -101t86 -163t33.5 -232v-72h-925q3 -201 118.5 -319.5t298.5 -118.5q142 0 245 80.5t153 208.5
l125 -45q-63 -172 -204 -269.5t-325 -97.5zM246 655h772q-1 83 -23.5 150t-59 110.5t-85.5 72.5t-100 41.5t-105 12.5q-160 0 -267.5 -107t-131.5 -280z" />
    <glyph glyph-name="eacute" unicode="&#xe9;" horiz-adv-x="1269" 
d="M1004 1669l-312 -391h-123l246 391h189zM651 -35q-119 0 -221.5 43.5t-176.5 121t-116.5 189.5t-42.5 244q0 173 70.5 310t197.5 213.5t287 76.5q69 0 135.5 -14.5t137.5 -54.5t123.5 -101t86 -163t33.5 -232v-72h-925q3 -201 118.5 -319.5t298.5 -118.5q142 0 245 80.5
t153 208.5l125 -45q-63 -172 -204 -269.5t-325 -97.5zM246 655h772q-1 83 -23.5 150t-59 110.5t-85.5 72.5t-100 41.5t-105 12.5q-160 0 -267.5 -107t-131.5 -280z" />
    <glyph glyph-name="ecircumflex" unicode="&#xea;" horiz-adv-x="1269" 
d="M383 1278h-131l295 358h180l297 -358h-131q-199 203 -254 264q-41 -44 -256 -264zM651 -35q-119 0 -221.5 43.5t-176.5 121t-116.5 189.5t-42.5 244q0 173 70.5 310t197.5 213.5t287 76.5q69 0 135.5 -14.5t137.5 -54.5t123.5 -101t86 -163t33.5 -232v-72h-925
q3 -201 118.5 -319.5t298.5 -118.5q142 0 245 80.5t153 208.5l125 -45q-63 -172 -204 -269.5t-325 -97.5zM246 655h772q-1 83 -23.5 150t-59 110.5t-85.5 72.5t-100 41.5t-105 12.5q-160 0 -267.5 -107t-131.5 -280z" />
    <glyph glyph-name="edieresis" unicode="&#xeb;" horiz-adv-x="1269" 
d="M457 1370q-44 0 -75.5 32.5t-31.5 76.5q0 42 31.5 73t75.5 31q45 0 74.5 -31t29.5 -73q0 -45 -29.5 -77t-74.5 -32zM821 1370q-45 0 -75.5 32t-30.5 77q0 42 30.5 73t75.5 31q44 0 74.5 -31t30.5 -73q0 -45 -30.5 -77t-74.5 -32zM651 -35q-119 0 -221.5 43.5t-176.5 121
t-116.5 189.5t-42.5 244q0 173 70.5 310t197.5 213.5t287 76.5q69 0 135.5 -14.5t137.5 -54.5t123.5 -101t86 -163t33.5 -232v-72h-925q3 -201 118.5 -319.5t298.5 -118.5q142 0 245 80.5t153 208.5l125 -45q-63 -172 -204 -269.5t-325 -97.5zM246 655h772q-1 83 -23.5 150
t-59 110.5t-85.5 72.5t-100 41.5t-105 12.5q-160 0 -267.5 -107t-131.5 -280z" />
    <glyph glyph-name="igrave" unicode="&#xec;" horiz-adv-x="501" 
d="M317 1274h-120l-312 391h189zM319 0h-137v1130h137v-1130z" />
    <glyph glyph-name="iacute" unicode="&#xed;" horiz-adv-x="501" 
d="M616 1665l-311 -391h-123l246 391h188zM319 0h-137v1130h137v-1130z" />
    <glyph glyph-name="icircumflex" unicode="&#xee;" horiz-adv-x="501" 
d="M-4 1274h-131l295 358h180l297 -358h-131q-199 203 -254 264q-41 -44 -256 -264zM319 0h-137v1130h137v-1130z" />
    <glyph glyph-name="idieresis" unicode="&#xef;" horiz-adv-x="501" 
d="M70 1366q-44 0 -75.5 32.5t-31.5 76.5q0 42 31.5 73t75.5 31q45 0 74.5 -31t29.5 -73q0 -45 -29.5 -77t-74.5 -32zM434 1366q-45 0 -75.5 32t-30.5 77q0 42 30.5 73t75.5 31q44 0 74.5 -31t30.5 -73q0 -45 -30.5 -77t-74.5 -32zM319 0h-137v1130h137v-1130z" />
    <glyph glyph-name="eth" unicode="&#xf0;" horiz-adv-x="1325" 
d="M1028 1569l-197 -113q381 -290 381 -794q0 -330 -151.5 -513.5t-407.5 -183.5q-167 0 -296.5 79.5t-197 210t-67.5 286.5q0 245 157.5 406t389.5 161q124 0 219.5 -51t177.5 -160h4q-39 154 -120 273.5t-215 213.5l-302 -174l-45 80l260 150q-128 73 -296 131l34 117
q228 -71 392 -175l233 136zM649 90q177 0 293.5 125t116.5 322q0 199 -116.5 324.5t-291.5 125.5q-178 0 -294.5 -128.5t-116.5 -319.5q0 -123 50 -225t144.5 -163t214.5 -61z" />
    <glyph glyph-name="ntilde" unicode="&#xf1;" horiz-adv-x="1296" 
d="M799 1329q-15 0 -28.5 2t-24 4t-22.5 8t-19 9t-19 11.5t-16.5 12t-17.5 14t-17 13.5l-39 33q-21 18 -30.5 25.5t-29 16.5t-38.5 9q-49 0 -78 -40t-29 -101h-104q2 110 60.5 179.5t150.5 69.5q41 0 75 -17t74 -50l43 -37q62 -53 109 -53q46 0 72 40t26 103h104
q0 -117 -53 -184.5t-149 -67.5zM319 0h-137v1130h133v-217h4q65 127 169 188.5t231 61.5q63 0 120 -14t111 -47.5t93.5 -84.5t63 -130t23.5 -178v-709h-137v647q0 199 -87.5 294t-223.5 95q-111 0 -195.5 -60t-126 -151t-41.5 -194v-631z" />
    <glyph glyph-name="ograve" unicode="&#xf2;" horiz-adv-x="1320" 
d="M727 1278h-121l-311 391h188zM662 -35q-251 0 -409.5 167t-158.5 431t159 432t409 168q249 0 406 -168t157 -432t-157 -431t-406 -167zM662 92q185 0 301 131.5t116 339.5t-116 340.5t-301 132.5t-302.5 -132.5t-117.5 -340.5q0 -207 117 -339t303 -132z" />
    <glyph glyph-name="oacute" unicode="&#xf3;" horiz-adv-x="1320" 
d="M1026 1669l-311 -391h-123l246 391h188zM662 -35q-251 0 -409.5 167t-158.5 431t159 432t409 168q249 0 406 -168t157 -432t-157 -431t-406 -167zM662 92q185 0 301 131.5t116 339.5t-116 340.5t-301 132.5t-302.5 -132.5t-117.5 -340.5q0 -207 117 -339t303 -132z" />
    <glyph glyph-name="ocircumflex" unicode="&#xf4;" horiz-adv-x="1320" 
d="M406 1278h-132l295 358h181l297 -358h-132q-183 188 -253 264q-41 -44 -256 -264zM662 -35q-251 0 -409.5 167t-158.5 431t159 432t409 168q249 0 406 -168t157 -432t-157 -431t-406 -167zM662 92q185 0 301 131.5t116 339.5t-116 340.5t-301 132.5t-302.5 -132.5
t-117.5 -340.5q0 -207 117 -339t303 -132z" />
    <glyph glyph-name="otilde" unicode="&#xf5;" horiz-adv-x="1320" 
d="M817 1329q-15 0 -28.5 2t-24 4t-22.5 8t-19 9t-19 11.5t-16.5 12t-17.5 14t-17 13.5l-39 33q-21 18 -30.5 25.5t-29 16.5t-38.5 9q-48 0 -77 -40t-29 -101h-105q2 110 60.5 179.5t150.5 69.5q69 0 150 -67l43 -37q62 -53 108 -53t72 40t26 103h105q0 -117 -53.5 -184.5
t-149.5 -67.5zM662 -35q-251 0 -409.5 167t-158.5 431t159 432t409 168q249 0 406 -168t157 -432t-157 -431t-406 -167zM662 92q185 0 301 131.5t116 339.5t-116 340.5t-301 132.5t-302.5 -132.5t-117.5 -340.5q0 -207 117 -339t303 -132z" />
    <glyph glyph-name="odieresis" unicode="&#xf6;" horiz-adv-x="1320" 
d="M479 1370q-44 0 -75 32t-31 77q0 42 31 73t75 31q45 0 75 -31t30 -73q0 -45 -30 -77t-75 -32zM844 1370q-45 0 -76 32t-31 77q0 42 31 73t76 31q44 0 74 -31t30 -73q0 -45 -30 -77t-74 -32zM662 -35q-251 0 -409.5 167t-158.5 431t159 432t409 168q249 0 406 -168
t157 -432t-157 -431t-406 -167zM662 92q185 0 301 131.5t116 339.5t-116 340.5t-301 132.5t-302.5 -132.5t-117.5 -340.5q0 -207 117 -339t303 -132z" />
    <glyph glyph-name="divide" unicode="&#xf7;" horiz-adv-x="1044" 
d="M526 827q-44 0 -75 32t-31 77q0 44 31 75t75 31t75.5 -31t31.5 -75t-31.5 -76.5t-75.5 -32.5zM893 563h-741v123h741v-123zM526 207q-44 0 -75 32t-31 78q0 43 31 74t75 31t75.5 -31.5t31.5 -75.5t-31.5 -76t-75.5 -32z" />
    <glyph glyph-name="oslash" unicode="&#xf8;" horiz-adv-x="1320" 
d="M1196 1182l-133 -181q162 -168 162 -438q0 -264 -157 -431t-406 -167q-173 0 -306 82l-75 -102h-154l133 180q-79 79 -122.5 192t-43.5 246q0 264 159 432t409 168q175 0 309 -86l78 105h147zM242 563q0 -194 104 -323l543 729q-98 67 -227 67q-185 0 -302.5 -132.5
t-117.5 -340.5zM662 92q185 0 301 131.5t116 339.5q0 197 -102 324l-541 -731q98 -64 226 -64z" />
    <glyph glyph-name="ugrave" unicode="&#xf9;" horiz-adv-x="1277" 
d="M686 1278h-121l-311 391h188zM571 -35q-63 0 -119.5 14.5t-109.5 48.5t-91.5 85t-61.5 130.5t-23 178.5v708h137v-655q0 -104 25.5 -181t70 -119.5t96 -62.5t111.5 -20q82 0 150 36t110.5 94.5t66 128.5t23.5 141v638h138v-776q0 -133 8.5 -207t27.5 -147h-139
q-28 115 -28 209h-5q-121 -244 -387 -244z" />
    <glyph glyph-name="uacute" unicode="&#xfa;" horiz-adv-x="1277" 
d="M983 1669l-311 -391h-123l246 391h188zM571 -35q-63 0 -119.5 14.5t-109.5 48.5t-91.5 85t-61.5 130.5t-23 178.5v708h137v-655q0 -104 25.5 -181t70 -119.5t96 -62.5t111.5 -20q82 0 150 36t110.5 94.5t66 128.5t23.5 141v638h138v-776q0 -133 8.5 -207t27.5 -147h-139
q-28 115 -28 209h-5q-121 -244 -387 -244z" />
    <glyph glyph-name="ucircumflex" unicode="&#xfb;" horiz-adv-x="1277" 
d="M365 1278h-132l295 358h181l297 -358h-132q-183 188 -253 264q-41 -44 -256 -264zM571 -35q-63 0 -119.5 14.5t-109.5 48.5t-91.5 85t-61.5 130.5t-23 178.5v708h137v-655q0 -104 25.5 -181t70 -119.5t96 -62.5t111.5 -20q82 0 150 36t110.5 94.5t66 128.5t23.5 141v638
h138v-776q0 -133 8.5 -207t27.5 -147h-139q-28 115 -28 209h-5q-121 -244 -387 -244z" />
    <glyph glyph-name="udieresis" unicode="&#xfc;" horiz-adv-x="1277" 
d="M436 1370q-44 0 -75 32t-31 77q0 42 31 73t75 31q45 0 75 -31t30 -73q0 -45 -30 -77t-75 -32zM801 1370q-45 0 -76 32t-31 77q0 42 31 73t76 31q44 0 74 -31t30 -73q0 -45 -30 -77t-74 -32zM571 -35q-63 0 -119.5 14.5t-109.5 48.5t-91.5 85t-61.5 130.5t-23 178.5v708
h137v-655q0 -104 25.5 -181t70 -119.5t96 -62.5t111.5 -20q82 0 150 36t110.5 94.5t66 128.5t23.5 141v638h138v-776q0 -133 8.5 -207t27.5 -147h-139q-28 115 -28 209h-5q-121 -244 -387 -244z" />
    <glyph glyph-name="yacute" unicode="&#xfd;" horiz-adv-x="1116" 
d="M909 1669l-311 -391h-123l246 391h188zM451 -451h-132l170 435l-456 1146h149q57 -140 119.5 -300.5t137.5 -355.5t120 -310h4q259 684 371 966h149z" />
    <glyph glyph-name="thorn" unicode="&#xfe;" horiz-adv-x="1370" 
d="M319 -451h-137v2089h137v-745h7q69 133 181 201.5t247 68.5q225 0 373.5 -169t148.5 -429q0 -263 -150.5 -431.5t-373.5 -168.5q-135 0 -248 67t-180 191h-5v-674zM729 92q173 0 286 134.5t113 338.5t-113.5 337.5t-285.5 133.5t-291 -133.5t-119 -339.5t119.5 -338.5
t290.5 -132.5z" />
    <glyph glyph-name="ydieresis" unicode="&#xff;" horiz-adv-x="1116" 
d="M362 1370q-44 0 -75 32t-31 77q0 42 31 73t75 31q45 0 75 -31t30 -73q0 -45 -30 -77t-75 -32zM727 1370q-45 0 -75.5 32t-30.5 77q0 42 30.5 73t75.5 31q44 0 74 -31t30 -73q0 -45 -30 -77t-74 -32zM451 -451h-132l170 435l-456 1146h149q57 -140 119.5 -300.5
t137.5 -355.5t120 -310h4q259 684 371 966h149z" />
    <glyph glyph-name="Amacron" unicode="&#x100;" horiz-adv-x="1513" 
d="M1092 1829h-672v117h672v-117zM184 0h-155l647 1597h162l647 -1597h-156q-89 213 -229 559h-692zM461 694h586q-123 305 -289 736h-4q-28 -71 -132 -331t-161 -405z" />
    <glyph glyph-name="amacron" unicode="&#x101;" horiz-adv-x="1173" 
d="M942 1413h-688v115h688v-115zM455 -35q-154 0 -256.5 76.5t-102.5 218.5q0 77 32.5 137t92 100t127.5 65.5t156 43.5q28 6 74.5 14.5t70.5 13.5t59.5 13.5t53.5 16.5t41 21.5t33.5 28.5t18 36.5t7.5 48.5q0 99 -80.5 172t-206.5 73q-112 0 -192.5 -63.5t-114.5 -173.5
l-133 47q33 104 105.5 175.5t160 102.5t185.5 31q80 0 152.5 -22t133.5 -65.5t97.5 -118t36.5 -171.5v-432q0 -132 8.5 -206.5t27.5 -147.5h-139q-26 104 -26 236h-5q-58 -123 -163.5 -197t-253.5 -74zM479 78q85 0 160 37t122.5 93.5t75 121.5t27.5 123v153
q-47 -36 -100 -55t-168 -41q-36 -7 -61.5 -12.5t-65 -16.5t-67 -23t-59.5 -31.5t-51.5 -41.5t-32.5 -52.5t-13 -66.5q0 -86 63 -137t170 -51z" />
    <glyph glyph-name="Abreve" unicode="&#x102;" horiz-adv-x="1513" 
d="M756 1726q-84 0 -156 29t-118.5 75.5t-73.5 103.5t-29 116h125q5 -82 77 -147.5t175 -65.5t175.5 65.5t78.5 147.5h125q-3 -59 -30.5 -116t-74 -103.5t-118.5 -75.5t-156 -29zM184 0h-155l647 1597h162l647 -1597h-156q-89 213 -229 559h-692zM461 694h586
q-123 305 -289 736h-4q-28 -71 -132 -331t-161 -405z" />
    <glyph glyph-name="abreve" unicode="&#x103;" horiz-adv-x="1173" 
d="M596 1276q-170 0 -269.5 111t-105.5 284h123q4 -128 74.5 -205t179.5 -77q108 0 178 77t74 205h123q-6 -174 -105.5 -284.5t-271.5 -110.5zM455 -35q-154 0 -256.5 76.5t-102.5 218.5q0 77 32.5 137t92 100t127.5 65.5t156 43.5q28 6 74.5 14.5t70.5 13.5t59.5 13.5
t53.5 16.5t41 21.5t33.5 28.5t18 36.5t7.5 48.5q0 99 -80.5 172t-206.5 73q-112 0 -192.5 -63.5t-114.5 -173.5l-133 47q33 104 105.5 175.5t160 102.5t185.5 31q80 0 152.5 -22t133.5 -65.5t97.5 -118t36.5 -171.5v-432q0 -132 8.5 -206.5t27.5 -147.5h-139
q-26 104 -26 236h-5q-58 -123 -163.5 -197t-253.5 -74zM479 78q85 0 160 37t122.5 93.5t75 121.5t27.5 123v153q-47 -36 -100 -55t-168 -41q-36 -7 -61.5 -12.5t-65 -16.5t-67 -23t-59.5 -31.5t-51.5 -41.5t-32.5 -52.5t-13 -66.5q0 -86 63 -137t170 -51z" />
    <glyph glyph-name="Aogonek" unicode="&#x104;" horiz-adv-x="1513" 
d="M1458 -365q39 0 88 15v-99q-55 -14 -100 -14q-117 0 -194.5 62.5t-77.5 171.5q0 137 159 229h-4q-89 213 -229 559h-692l-224 -559h-155l647 1597h162l647 -1597h-29q-176 -83 -176 -209q0 -69 50.5 -112.5t127.5 -43.5zM461 694h586q-123 305 -289 736h-4
q-28 -71 -132 -331t-161 -405z" />
    <glyph glyph-name="aogonek" unicode="&#x105;" horiz-adv-x="1173" 
d="M1022 -362q42 0 90 14v-101q-55 -14 -102 -14q-114 0 -191.5 63t-77.5 167q0 139 164 233h-2q-26 104 -26 236h-5q-58 -123 -163.5 -197t-253.5 -74q-154 0 -256.5 76.5t-102.5 218.5q0 77 32.5 137t92 100t127.5 65.5t156 43.5q28 6 74.5 14.5t70.5 13.5t59.5 13.5
t53.5 16.5t41 21.5t33.5 28.5t18 36.5t7.5 48.5q0 99 -80.5 172t-206.5 73q-112 0 -192.5 -63.5t-114.5 -173.5l-133 47q33 104 105.5 175.5t160 102.5t185.5 31q80 0 152.5 -22t133.5 -65.5t97.5 -118t36.5 -171.5v-432q0 -132 8.5 -206.5t27.5 -147.5h-22
q-172 -84 -172 -209q0 -69 50 -111t124 -42zM864 453v153q-47 -36 -100 -55t-168 -41q-36 -7 -61.5 -12.5t-65 -16.5t-67 -23t-59.5 -31.5t-51.5 -41.5t-32.5 -52.5t-13 -66.5q0 -86 63 -137t170 -51q85 0 160 37t122.5 93.5t75 121.5t27.5 123z" />
    <glyph glyph-name="Cacute" unicode="&#x106;" horiz-adv-x="1720" 
d="M1251 2044l-340 -324h-127l260 324h207zM915 -35q-234 0 -417.5 105t-286 293.5t-102.5 429.5q0 149 40.5 281t113.5 232.5t171.5 174t219 111.5t251.5 38q113 0 221 -29.5t203 -85.5t169 -146.5t112 -205.5l-133 -53q-71 180 -225 281.5t-345 101.5q-130 0 -246.5 -48.5
t-204.5 -136.5t-140 -222t-52 -295q0 -169 57 -303.5t152 -217t212 -125.5t245 -43q121 0 225 38.5t178.5 106t126 153t80.5 186.5l131 -47q-38 -125 -104.5 -228.5t-159.5 -181.5t-219 -121t-273 -43z" />
    <glyph glyph-name="cacute" unicode="&#x107;" horiz-adv-x="1245" 
d="M987 1669l-311 -391h-123l246 391h188zM657 -35q-248 0 -405.5 166t-157.5 432q0 267 157 433.5t406 166.5q105 0 196 -31.5t170 -105.5t122 -184l-133 -51q-43 117 -138 181t-223 64q-185 0 -297 -134t-112 -339q0 -211 117 -341t303 -130q145 0 248.5 80.5t156.5 212.5
l125 -45q-65 -181 -206.5 -278t-328.5 -97z" />
    <glyph glyph-name="Cdotaccent" unicode="&#x10a;" horiz-adv-x="1720" 
d="M868 1786q-49 0 -81.5 33.5t-32.5 83.5q0 46 32.5 79t81.5 33q47 0 80 -33t33 -79q0 -49 -33 -83t-80 -34zM915 -35q-234 0 -417.5 105t-286 293.5t-102.5 429.5q0 149 40.5 281t113.5 232.5t171.5 174t219 111.5t251.5 38q113 0 221 -29.5t203 -85.5t169 -146.5
t112 -205.5l-133 -53q-71 180 -225 281.5t-345 101.5q-130 0 -246.5 -48.5t-204.5 -136.5t-140 -222t-52 -295q0 -169 57 -303.5t152 -217t212 -125.5t245 -43q121 0 225 38.5t178.5 106t126 153t80.5 186.5l131 -47q-38 -125 -104.5 -228.5t-159.5 -181.5t-219 -121
t-273 -43z" />
    <glyph glyph-name="cdotaccent" unicode="&#x10b;" horiz-adv-x="1245" 
d="M625 1417q-51 0 -84 33.5t-33 83.5q0 47 33.5 80t83.5 33q47 0 79.5 -33.5t32.5 -79.5q0 -49 -32.5 -83t-79.5 -34zM657 -35q-248 0 -405.5 166t-157.5 432q0 267 157 433.5t406 166.5q105 0 196 -31.5t170 -105.5t122 -184l-133 -51q-43 117 -138 181t-223 64
q-185 0 -297 -134t-112 -339q0 -211 117 -341t303 -130q145 0 248.5 80.5t156.5 212.5l125 -45q-65 -181 -206.5 -278t-328.5 -97z" />
    <glyph glyph-name="Ccaron" unicode="&#x10c;" horiz-adv-x="1720" 
d="M1094 2028h129l-269 -308h-174l-266 308h127q123 -114 227 -220q112 115 226 220zM915 -35q-234 0 -417.5 105t-286 293.5t-102.5 429.5q0 149 40.5 281t113.5 232.5t171.5 174t219 111.5t251.5 38q113 0 221 -29.5t203 -85.5t169 -146.5t112 -205.5l-133 -53
q-71 180 -225 281.5t-345 101.5q-130 0 -246.5 -48.5t-204.5 -136.5t-140 -222t-52 -295q0 -169 57 -303.5t152 -217t212 -125.5t245 -43q121 0 225 38.5t178.5 106t126 153t80.5 186.5l131 -47q-38 -125 -104.5 -228.5t-159.5 -181.5t-219 -121t-273 -43z" />
    <glyph glyph-name="ccaron" unicode="&#x10d;" horiz-adv-x="1245" 
d="M713 1282h-181l-294 363h131q185 -190 256 -267q73 82 254 267h131zM657 -35q-248 0 -405.5 166t-157.5 432q0 267 157 433.5t406 166.5q105 0 196 -31.5t170 -105.5t122 -184l-133 -51q-43 117 -138 181t-223 64q-185 0 -297 -134t-112 -339q0 -211 117 -341t303 -130
q145 0 248.5 80.5t156.5 212.5l125 -45q-65 -181 -206.5 -278t-328.5 -97z" />
    <glyph glyph-name="Dcaron" unicode="&#x10e;" horiz-adv-x="1648" 
d="M989 2028h129l-268 -308h-174l-266 308h127q123 -114 227 -220q121 124 225 220zM797 0h-582v1597h563q156 0 283 -40.5t214.5 -112t146.5 -171.5t86.5 -216t27.5 -248q0 -238 -87 -420t-255.5 -285.5t-396.5 -103.5zM362 133h443q265 0 421 178t156 486
q0 317 -169.5 492t-467.5 175h-383v-1331z" />
    <glyph glyph-name="dcaron" unicode="&#x10f;" horiz-adv-x="1372" 
d="M1448 1180h-90l127 254q-35 12 -54.5 40.5t-19.5 65.5q0 46 34 79.5t81 33.5q46 0 79 -32.5t33 -78.5q0 -40 -32 -99t-158 -263zM621 -35q-228 0 -376.5 168t-148.5 430q0 132 41 245t112 190.5t167.5 121t206.5 43.5q135 0 246 -66.5t178 -191.5h4v733h137v-1284
q0 -132 8.5 -205.5t28.5 -148.5h-140q-29 118 -26 227h-4q-68 -127 -183 -194.5t-251 -67.5zM641 92q172 0 292 133.5t120 339.5q0 207 -120 339t-292 132q-173 0 -286 -134.5t-113 -338.5t113.5 -337.5t285.5 -133.5z" />
    <glyph glyph-name="Dcroat" unicode="&#x110;" horiz-adv-x="1648" 
d="M215 1597h563q156 0 283 -40.5t214.5 -112t146.5 -171.5t86.5 -216t27.5 -248q0 -238 -87 -420t-255.5 -285.5t-396.5 -103.5h-582v737h-172v121h172v739zM805 133q265 0 421 178t156 486q0 317 -169.5 492t-467.5 175h-383v-606h533v-121h-533v-604h443z" />
    <glyph glyph-name="dcroat" unicode="&#x111;" horiz-adv-x="1372" 
d="M1454 1444v-115h-266v-975q0 -132 8.5 -205.5t28.5 -148.5h-140q-29 118 -26 227h-4q-68 -127 -183 -194.5t-251 -67.5q-228 0 -376.5 168t-148.5 430q0 132 41 245t112 190.5t167.5 121t206.5 43.5q135 0 246 -66.5t178 -191.5h4v424h-287v115h287v194h137v-194h266z
M641 92q172 0 292 133.5t120 339.5q0 207 -120 339t-292 132q-173 0 -286 -134.5t-113 -338.5t113.5 -337.5t285.5 -133.5z" />
    <glyph glyph-name="Emacron" unicode="&#x112;" horiz-adv-x="1347" 
d="M1024 1829h-672v117h672v-117zM1241 0h-1026v1597h1006v-133h-859v-575h818v-137h-818v-613h879v-139z" />
    <glyph glyph-name="emacron" unicode="&#x113;" horiz-adv-x="1269" 
d="M983 1413h-688v115h688v-115zM651 -35q-119 0 -221.5 43.5t-176.5 121t-116.5 189.5t-42.5 244q0 173 70.5 310t197.5 213.5t287 76.5q69 0 135.5 -14.5t137.5 -54.5t123.5 -101t86 -163t33.5 -232v-72h-925q3 -201 118.5 -319.5t298.5 -118.5q142 0 245 80.5t153 208.5
l125 -45q-63 -172 -204 -269.5t-325 -97.5zM246 655h772q-1 83 -23.5 150t-59 110.5t-85.5 72.5t-100 41.5t-105 12.5q-160 0 -267.5 -107t-131.5 -280z" />
    <glyph glyph-name="Edotaccent" unicode="&#x116;" horiz-adv-x="1347" 
d="M688 1786q-49 0 -82 33.5t-33 83.5q0 46 33 79t82 33q47 0 80 -33t33 -79q0 -49 -33 -83t-80 -34zM1241 0h-1026v1597h1006v-133h-859v-575h818v-137h-818v-613h879v-139z" />
    <glyph glyph-name="edotaccent" unicode="&#x117;" horiz-adv-x="1269" 
d="M641 1417q-51 0 -84 33.5t-33 83.5q0 47 33.5 80t83.5 33q47 0 80 -33.5t33 -79.5q0 -49 -33 -83t-80 -34zM651 -35q-119 0 -221.5 43.5t-176.5 121t-116.5 189.5t-42.5 244q0 173 70.5 310t197.5 213.5t287 76.5q69 0 135.5 -14.5t137.5 -54.5t123.5 -101t86 -163
t33.5 -232v-72h-925q3 -201 118.5 -319.5t298.5 -118.5q142 0 245 80.5t153 208.5l125 -45q-63 -172 -204 -269.5t-325 -97.5zM246 655h772q-1 83 -23.5 150t-59 110.5t-85.5 72.5t-100 41.5t-105 12.5q-160 0 -267.5 -107t-131.5 -280z" />
    <glyph glyph-name="Eogonek" unicode="&#x118;" horiz-adv-x="1347" 
d="M1243 -365q39 0 88 15v-99q-55 -14 -100 -14q-117 0 -195 62.5t-78 171.5q0 136 160 229h-903v1597h1006v-133h-859v-575h818v-137h-818v-613h879v-139q-176 -83 -176 -209q0 -69 50.5 -112.5t127.5 -43.5z" />
    <glyph glyph-name="eogonek" unicode="&#x119;" horiz-adv-x="1269" 
d="M850 -2q-168 -83 -168 -207q0 -69 50 -111t124 -42q42 0 90 14v-101q-55 -14 -102 -14q-114 0 -191.5 63t-77.5 167q0 117 113 198h-37q-119 0 -221.5 43.5t-176.5 121t-116.5 189.5t-42.5 244q0 173 70.5 310t197.5 213.5t287 76.5q69 0 135.5 -14.5t137.5 -54.5
t123.5 -101t86 -163t33.5 -232v-72h-925q3 -201 118.5 -319.5t298.5 -118.5q142 0 245 80.5t153 208.5l125 -45q-44 -122 -129.5 -208t-200.5 -126zM645 1042q-160 0 -267.5 -107t-131.5 -280h772q-1 83 -23.5 150t-59 110.5t-85.5 72.5t-100 41.5t-105 12.5z" />
    <glyph glyph-name="Ecaron" unicode="&#x11a;" horiz-adv-x="1347" 
d="M913 2028h129l-268 -308h-174l-266 308h127q123 -114 227 -220q121 124 225 220zM1241 0h-1026v1597h1006v-133h-859v-575h818v-137h-818v-613h879v-139z" />
    <glyph glyph-name="ecaron" unicode="&#x11b;" horiz-adv-x="1269" 
d="M727 1282h-180l-295 363h131q185 -190 256 -267q73 82 254 267h131zM651 -35q-119 0 -221.5 43.5t-176.5 121t-116.5 189.5t-42.5 244q0 173 70.5 310t197.5 213.5t287 76.5q69 0 135.5 -14.5t137.5 -54.5t123.5 -101t86 -163t33.5 -232v-72h-925q3 -201 118.5 -319.5
t298.5 -118.5q142 0 245 80.5t153 208.5l125 -45q-63 -172 -204 -269.5t-325 -97.5zM246 655h772q-1 83 -23.5 150t-59 110.5t-85.5 72.5t-100 41.5t-105 12.5q-160 0 -267.5 -107t-131.5 -280z" />
    <glyph glyph-name="Gbreve" unicode="&#x11e;" horiz-adv-x="1798" 
d="M868 1726q-84 0 -155.5 29t-118 75.5t-73.5 103.5t-29 116h124q5 -82 77 -147.5t175 -65.5t175.5 65.5t78.5 147.5h125q-3 -59 -30.5 -116t-74 -103.5t-118.5 -75.5t-156 -29zM899 -35q-171 0 -317.5 61.5t-250.5 170t-163 263t-59 333.5q0 184 62 341.5t169 265.5
t253.5 169t311.5 61q114 0 222 -29.5t203 -86t168.5 -147t111.5 -204.5l-133 -53q-71 180 -225 281.5t-345 101.5q-129 0 -245.5 -48.5t-205 -136t-140.5 -222t-52 -295.5q0 -136 37.5 -251t101.5 -194.5t149 -135.5t179 -82t193 -26q124 0 230 42t181.5 115.5t122 174.5
t55.5 219h-555v127h701v-780h-121q0 122 -4 360h-10q-84 -189 -242 -292t-383 -103z" />
    <glyph glyph-name="gbreve" unicode="&#x11f;" horiz-adv-x="1368" 
d="M662 1276q-170 0 -269.5 111t-105.5 284h123q4 -128 74.5 -205t179.5 -77q108 0 177.5 77t73.5 205h123q-6 -174 -105.5 -284.5t-270.5 -110.5zM664 -483q-390 0 -510 329l127 45q87 -253 383 -253q80 0 145 23t121 75.5t87.5 151t31.5 235.5v139h-5
q-66 -128 -177.5 -194t-248.5 -66q-151 0 -271 77t-186.5 210t-66.5 297q0 251 150.5 414t373.5 163q137 0 251 -68.5t180 -197.5h4v233h133v-991q0 -136 -25.5 -242t-71 -177t-112 -117t-143.5 -66t-170 -20zM639 129q111 0 205.5 59.5t150.5 165.5t56 234q0 96 -33 180
t-88.5 142.5t-131 92t-159.5 33.5q-172 0 -285.5 -129t-113.5 -321q0 -126 52 -231t143.5 -165.5t203.5 -60.5z" />
    <glyph glyph-name="Gdotaccent" unicode="&#x120;" horiz-adv-x="1798" 
d="M868 1786q-49 0 -81.5 33.5t-32.5 83.5q0 46 32.5 79t81.5 33q47 0 80 -33t33 -79q0 -49 -33 -83t-80 -34zM899 -35q-171 0 -317.5 61.5t-250.5 170t-163 263t-59 333.5q0 184 62 341.5t169 265.5t253.5 169t311.5 61q114 0 222 -29.5t203 -86t168.5 -147t111.5 -204.5
l-133 -53q-71 180 -225 281.5t-345 101.5q-129 0 -245.5 -48.5t-205 -136t-140.5 -222t-52 -295.5q0 -136 37.5 -251t101.5 -194.5t149 -135.5t179 -82t193 -26q124 0 230 42t181.5 115.5t122 174.5t55.5 219h-555v127h701v-780h-121q0 122 -4 360h-10q-84 -189 -242 -292
t-383 -103z" />
    <glyph glyph-name="gdotaccent" unicode="&#x121;" horiz-adv-x="1368" 
d="M666 1417q-51 0 -84 33.5t-33 83.5q0 47 33.5 80t83.5 33q47 0 79.5 -33.5t32.5 -79.5q0 -49 -32.5 -83t-79.5 -34zM664 -483q-390 0 -510 329l127 45q87 -253 383 -253q80 0 145 23t121 75.5t87.5 151t31.5 235.5v139h-5q-66 -128 -177.5 -194t-248.5 -66
q-151 0 -271 77t-186.5 210t-66.5 297q0 251 150.5 414t373.5 163q137 0 251 -68.5t180 -197.5h4v233h133v-991q0 -136 -25.5 -242t-71 -177t-112 -117t-143.5 -66t-170 -20zM639 129q111 0 205.5 59.5t150.5 165.5t56 234q0 96 -33 180t-88.5 142.5t-131 92t-159.5 33.5
q-172 0 -285.5 -129t-113.5 -321q0 -126 52 -231t143.5 -165.5t203.5 -60.5z" />
    <glyph glyph-name="uni0122" unicode="&#x122;" horiz-adv-x="1798" 
d="M899 -35q-171 0 -317.5 61.5t-250.5 170t-163 263t-59 333.5q0 184 62 341.5t169 265.5t253.5 169t311.5 61q114 0 222 -29.5t203 -86t168.5 -147t111.5 -204.5l-133 -53q-71 180 -225 281.5t-345 101.5q-129 0 -245.5 -48.5t-205 -136t-140.5 -222t-52 -295.5
q0 -136 37.5 -251t101.5 -194.5t149 -135.5t179 -82t193 -26q124 0 230 42t181.5 115.5t122 174.5t55.5 219h-555v127h701v-780h-121q0 122 -4 360h-10q-84 -189 -242 -292t-383 -103zM846 -520h-72l100 194q-44 10 -66 38t-22 65q0 44 32 75t79 31q44 0 75.5 -30.5
t31.5 -73.5q0 -40 -28.5 -92.5t-129.5 -206.5z" />
    <glyph glyph-name="uni0123" unicode="&#x123;" horiz-adv-x="1368" 
d="M532 1360q0 40 29 95t150 255h88l-123 -246q34 -12 53 -39.5t19 -62.5q0 -46 -31.5 -76.5t-77.5 -30.5t-76.5 30.5t-30.5 74.5zM664 -483q-390 0 -510 329l127 45q87 -253 383 -253q80 0 145 23t121 75.5t87.5 151t31.5 235.5v139h-5q-66 -128 -177.5 -194t-248.5 -66
q-151 0 -271 77t-186.5 210t-66.5 297q0 251 150.5 414t373.5 163q137 0 251 -68.5t180 -197.5h4v233h133v-991q0 -136 -25.5 -242t-71 -177t-112 -117t-143.5 -66t-170 -20zM639 129q111 0 205.5 59.5t150.5 165.5t56 234q0 96 -33 180t-88.5 142.5t-131 92t-159.5 33.5
q-172 0 -285.5 -129t-113.5 -321q0 -126 52 -231t143.5 -165.5t203.5 -60.5z" />
    <glyph glyph-name="Hbar" unicode="&#x126;" horiz-adv-x="1656" 
d="M1440 1286h139v-117h-139v-1169h-146v737h-932v-737h-147v1169h-139v117h139v311h147v-311h932v311h146v-311zM362 872h932v297h-932v-297z" />
    <glyph glyph-name="hbar" unicode="&#x127;" horiz-adv-x="1296" 
d="M717 1163q63 0 120.5 -14t111.5 -47.5t93.5 -84.5t63.5 -130t24 -178v-709h-137v647q0 199 -87.5 294t-223.5 95q-111 0 -195.5 -60.5t-126 -151.5t-41.5 -193v-631h-137v1327h-190v115h190v196h137v-196h363v-115h-363v-414h5q128 250 393 250z" />
    <glyph glyph-name="Imacron" unicode="&#x12a;" horiz-adv-x="577" 
d="M625 1829h-672v117h672v-117zM362 0h-147v1597h147v-1597z" />
    <glyph glyph-name="imacron" unicode="&#x12b;" horiz-adv-x="501" 
d="M596 1409h-688v115h688v-115zM319 0h-137v1130h137v-1130z" />
    <glyph glyph-name="Iogonek" unicode="&#x12e;" horiz-adv-x="577" 
d="M365 -365q39 0 88 15v-99q-55 -14 -101 -14q-117 0 -194.5 62.5t-77.5 171.5q0 136 160 229h-25v1597h147v-1597q-176 -83 -176 -209q0 -68 51 -112t128 -44z" />
    <glyph glyph-name="iogonek" unicode="&#x12f;" horiz-adv-x="501" 
d="M254 1413q-51 0 -84 33.5t-33 83.5q0 46 33.5 79t83.5 33q47 0 80 -33t33 -79q0 -49 -33 -83t-80 -34zM315 -362q43 0 91 14v-101q-55 -14 -103 -14q-114 0 -191 63t-77 167q0 139 164 233h-17v1130h137v-1130h-6q-172 -84 -172 -209q0 -69 50 -111t124 -42z" />
    <glyph glyph-name="Idotaccent" unicode="&#x130;" horiz-adv-x="577" 
d="M289 1786q-49 0 -82 33.5t-33 83.5q0 46 33 79t82 33q47 0 79.5 -33t32.5 -79q0 -49 -32.5 -83t-79.5 -34zM362 0h-147v1597h147v-1597z" />
    <glyph glyph-name="dotlessi" unicode="&#x131;" horiz-adv-x="501" 
d="M319 0h-137v1130h137v-1130z" />
    <glyph glyph-name="uni0136" unicode="&#x136;" horiz-adv-x="1368" 
d="M362 0h-147v1597h147v-856h5q245 274 792 856h176l-651 -700q114 -149 344.5 -448t345.5 -449h-178q-280 358 -616 784q-114 -120 -218 -233v-551zM688 -520h-72l101 194q-44 10 -66 38t-22 65q0 45 31.5 75.5t78.5 30.5q44 0 75.5 -30.5t31.5 -73.5q0 -40 -28.5 -92.5
t-129.5 -206.5z" />
    <glyph glyph-name="uni0137" unicode="&#x137;" horiz-adv-x="1071" 
d="M1012 1130l-428 -444l501 -686h-159l-434 588l-170 -176v-412h-140v1638h140v-1054h4q76 82 162 173t191.5 201.5t162.5 171.5h170zM573 -117q44 0 75.5 -30.5t31.5 -73.5q0 -40 -28.5 -92.5t-129.5 -206.5h-71l100 194q-44 10 -66 38t-22 65q0 45 31.5 75.5t78.5 30.5z
" />
    <glyph glyph-name="Lacute" unicode="&#x139;" horiz-adv-x="1212" 
d="M512 2044h207l-340 -324h-127zM362 1597v-1458h818v-139h-965v1597h147z" />
    <glyph glyph-name="lacute" unicode="&#x13a;" horiz-adv-x="501" 
d="M668 2085l-340 -324h-127l260 324h207zM319 0h-137v1638h137v-1638z" />
    <glyph glyph-name="uni013B" unicode="&#x13b;" horiz-adv-x="1212" 
d="M362 1597v-1458h818v-139h-965v1597h147zM651 -117q44 0 75.5 -30.5t31.5 -73.5q0 -40 -28.5 -92.5t-129.5 -206.5h-72l101 194q-44 10 -66 38t-22 65q0 45 31.5 75.5t78.5 30.5z" />
    <glyph glyph-name="uni013C" unicode="&#x13c;" horiz-adv-x="501" 
d="M319 0h-137v1638h137v-1638zM209 -520h-72l101 194q-44 10 -66 38t-22 65q0 45 31.5 75.5t78.5 30.5q44 0 75.5 -30.5t31.5 -73.5q0 -40 -28.5 -92.5t-129.5 -206.5z" />
    <glyph glyph-name="Lcaron" unicode="&#x13d;" horiz-adv-x="1212" 
d="M881 1165h-90l127 254q-36 12 -56 41t-20 66q0 46 33.5 79t80.5 33t80 -32.5t33 -77.5q0 -41 -33.5 -104t-154.5 -259zM362 1597v-1458h818v-139h-965v1597h147z" />
    <glyph glyph-name="lcaron" unicode="&#x13e;" horiz-adv-x="501" 
d="M319 0h-137v1638h137v-1638zM627 1165h-90l127 254q-35 12 -54.5 41t-19.5 66q0 46 34 79t81 33q46 0 79 -33t33 -77q0 -40 -32.5 -100.5t-157.5 -262.5z" />
    <glyph glyph-name="Lslash" unicode="&#x141;" horiz-adv-x="1212" 
d="M362 844v-705h818v-139h-965v774l-174 -82v127l174 82v696h147v-628l300 139v-125z" />
    <glyph glyph-name="lslash" unicode="&#x142;" horiz-adv-x="501" 
d="M319 1034l205 146v-123l-205 -148v-909h-137v811l-198 -141v125l198 141v702h137v-604z" />
    <glyph glyph-name="Nacute" unicode="&#x143;" horiz-adv-x="1689" 
d="M1206 2044l-340 -324h-127l260 324h207zM362 0h-147v1597h160q71 -102 230 -328.5t250 -357t224 -323t244 -357.5h4v1366h148v-1597h-160q-105 149 -436.5 616.5t-513.5 731.5h-3v-1348z" />
    <glyph glyph-name="nacute" unicode="&#x144;" horiz-adv-x="1296" 
d="M1008 1669l-312 -391h-123l246 391h189zM319 0h-137v1130h133v-217h4q65 127 169 188.5t231 61.5q63 0 120 -14t111 -47.5t93.5 -84.5t63 -130t23.5 -178v-709h-137v647q0 199 -87.5 294t-223.5 95q-111 0 -195.5 -60t-126 -151t-41.5 -194v-631z" />
    <glyph glyph-name="uni0145" unicode="&#x145;" horiz-adv-x="1689" 
d="M362 0h-147v1597h160q71 -102 230 -328.5t250 -357t224 -323t244 -357.5h4v1366h148v-1597h-160q-105 149 -436.5 616.5t-513.5 731.5h-3v-1348zM823 -520h-71l100 194q-44 10 -66 38t-22 65q0 45 31.5 75.5t78.5 30.5q44 0 75.5 -30.5t31.5 -73.5q0 -40 -28.5 -92.5
t-129.5 -206.5z" />
    <glyph glyph-name="uni0146" unicode="&#x146;" horiz-adv-x="1296" 
d="M319 0h-137v1130h133v-217h4q65 127 169 188.5t231 61.5q63 0 120 -14t111 -47.5t93.5 -84.5t63 -130t23.5 -178v-709h-137v647q0 199 -87.5 294t-223.5 95q-111 0 -195.5 -60t-126 -151t-41.5 -194v-631zM631 -520h-72l100 194q-44 10 -66 38t-22 65q0 44 32 75t79 31
q44 0 75 -30.5t31 -73.5q0 -41 -29 -94t-128 -205z" />
    <glyph glyph-name="Ncaron" unicode="&#x147;" horiz-adv-x="1689" 
d="M1049 2028h129l-269 -308h-174l-266 308h127q123 -114 227 -220q112 115 226 220zM362 0h-147v1597h160q71 -102 230 -328.5t250 -357t224 -323t244 -357.5h4v1366h148v-1597h-160q-105 149 -436.5 616.5t-513.5 731.5h-3v-1348z" />
    <glyph glyph-name="ncaron" unicode="&#x148;" horiz-adv-x="1296" 
d="M733 1282h-180l-295 363h131q185 -190 256 -267q73 82 254 267h131zM319 0h-137v1130h133v-217h4q65 127 169 188.5t231 61.5q63 0 120 -14t111 -47.5t93.5 -84.5t63 -130t23.5 -178v-709h-137v647q0 199 -87.5 294t-223.5 95q-111 0 -195.5 -60t-126 -151t-41.5 -194
v-631z" />
    <glyph glyph-name="Eng" unicode="&#x14a;" horiz-adv-x="1689" 
d="M1071 -483q-147 0 -240 55v135q89 -61 209 -61q135 0 209 91.5t74 248.5q-104 149 -444 629t-517 737v-1352h-147v1597h160q71 -102 230 -328.5t250 -357t224 -323t244 -357.5h4v1366h148v-1536q0 -544 -404 -544z" />
    <glyph glyph-name="eng" unicode="&#x14b;" horiz-adv-x="1296" 
d="M813 -483q-125 0 -215 55v129q98 -61 190 -61q33 0 61 8.5t48 21t35.5 34.5t25.5 41t17 49.5t10.5 51t5.5 54t2 50.5v48v649q0 199 -87.5 294t-223.5 95q-111 0 -195.5 -60t-126 -151t-41.5 -194v-631h-137v1130h133v-217h4q65 127 169 188.5t231 61.5q63 0 120 -13.5
t111 -46.5t93.5 -83t63 -127t23.5 -174v-733q0 -39 -0.5 -61.5t-3 -65.5t-8 -70.5t-16.5 -67.5t-26.5 -65.5t-39.5 -54t-55 -45.5t-74 -28t-94 -11z" />
    <glyph glyph-name="Omacron" unicode="&#x14c;" horiz-adv-x="1816" 
d="M1243 1829h-672v117h672v-117zM907 -35q-162 0 -309.5 63t-255.5 172t-172 264.5t-64 332.5t63.5 332.5t172 265t256 172.5t311.5 63q166 0 315 -65t255.5 -176t168.5 -265.5t62 -326.5q0 -174 -63 -329t-170.5 -265t-256 -174t-313.5 -64zM911 102q128 0 245 53
t204.5 144t139.5 221t52 277t-51.5 277.5t-139 221.5t-205 144t-245.5 53q-129 0 -247.5 -52.5t-206.5 -143.5t-140.5 -221.5t-52.5 -278.5t52.5 -278t140.5 -221t206.5 -143.5t247.5 -52.5z" />
    <glyph glyph-name="omacron" unicode="&#x14d;" horiz-adv-x="1320" 
d="M1006 1413h-689v115h689v-115zM662 -35q-251 0 -409.5 167t-158.5 431t159 432t409 168q249 0 406 -168t157 -432t-157 -431t-406 -167zM662 92q185 0 301 131.5t116 339.5t-116 340.5t-301 132.5t-302.5 -132.5t-117.5 -340.5q0 -207 117 -339t303 -132z" />
    <glyph glyph-name="Ohungarumlaut" unicode="&#x150;" horiz-adv-x="1816" 
d="M1053 2044l-279 -324h-125l213 324h191zM1378 2044l-297 -324h-123l230 324h190zM907 -35q-162 0 -309.5 63t-255.5 172t-172 264.5t-64 332.5t63.5 332.5t172 265t256 172.5t311.5 63q166 0 315 -65t255.5 -176t168.5 -265.5t62 -326.5q0 -174 -63 -329t-170.5 -265
t-256 -174t-313.5 -64zM911 102q128 0 245 53t204.5 144t139.5 221t52 277t-51.5 277.5t-139 221.5t-205 144t-245.5 53q-129 0 -247.5 -52.5t-206.5 -143.5t-140.5 -221.5t-52.5 -278.5t52.5 -278t140.5 -221t206.5 -143.5t247.5 -52.5z" />
    <glyph glyph-name="ohungarumlaut" unicode="&#x151;" horiz-adv-x="1320" 
d="M807 1673l-281 -395h-120l215 395h186zM1135 1673l-297 -395h-121l233 395h185zM662 -35q-251 0 -409.5 167t-158.5 431t159 432t409 168q249 0 406 -168t157 -432t-157 -431t-406 -167zM662 92q185 0 301 131.5t116 339.5t-116 340.5t-301 132.5t-302.5 -132.5
t-117.5 -340.5q0 -207 117 -339t303 -132z" />
    <glyph glyph-name="OE" unicode="&#x152;" horiz-adv-x="2684" 
d="M907 -35q-162 0 -309.5 63t-255.5 172t-172 264.5t-64 332.5t63.5 332.5t171 265t255 172.5t311.5 63q208 0 380.5 -101.5t273.5 -275.5v344h997v-133h-854v-575h813v-137h-813v-613h874v-139h-1017v340q-103 -173 -275.5 -274t-378.5 -101zM909 102q128 0 245 52.5
t204.5 143.5t139.5 221t52 278q0 149 -51.5 279.5t-138.5 221.5t-204 143t-245 52q-130 0 -248.5 -52.5t-206.5 -143.5t-140 -221.5t-52 -278.5t52 -278t139.5 -221t206 -143.5t247.5 -52.5z" />
    <glyph glyph-name="oe" unicode="&#x153;" horiz-adv-x="2254" 
d="M662 -35q-251 0 -409.5 167t-158.5 431t159 432t409 168q166 0 294 -80.5t195 -222.5q65 141 192 222t289 81q71 0 138 -14.5t137.5 -54.5t123 -101t86 -163t33.5 -232v-47h-929q3 -206 120 -334.5t297 -128.5q144 0 248 80.5t154 208.5l125 -45q-63 -172 -204 -269.5
t-325 -97.5q-165 0 -292.5 79.5t-192.5 219.5q-67 -140 -195.5 -219.5t-293.5 -79.5zM1227 657h776q-3 104 -37.5 181.5t-90 120t-117.5 63t-130 20.5q-160 0 -268 -106t-133 -279zM662 92q185 0 301 131.5t116 339.5t-116 340.5t-301 132.5t-302.5 -132.5t-117.5 -340.5
q0 -207 117 -339t303 -132z" />
    <glyph glyph-name="Racute" unicode="&#x154;" horiz-adv-x="1421" 
d="M1040 2044l-340 -324h-127l261 324h206zM362 0h-147v1597h561q108 0 202.5 -31.5t166.5 -90.5t113.5 -150t41.5 -203q0 -202 -114 -331t-299 -148v-2q394 -586 430 -641h-164l-426 637h-365v-637zM362 768h402q177 0 280 90t103 256q0 164 -110 257t-287 93h-388v-696z
" />
    <glyph glyph-name="racute" unicode="&#x155;" horiz-adv-x="839" 
d="M831 1669l-311 -391h-123l246 391h188zM319 0h-137v1130h133v-233h9q43 119 142.5 192.5t223.5 73.5q73 0 129 -22v-150q-69 27 -139 27t-130 -27t-102 -72.5t-71.5 -105.5t-43.5 -127t-14 -137v-549z" />
    <glyph glyph-name="uni0156" unicode="&#x156;" horiz-adv-x="1421" 
d="M362 0h-147v1597h561q108 0 202.5 -31.5t166.5 -90.5t113.5 -150t41.5 -203q0 -202 -114 -331t-299 -148v-2q394 -586 430 -641h-164l-426 637h-365v-637zM362 768h402q177 0 280 90t103 256q0 164 -110 257t-287 93h-388v-696zM676 -520h-72l101 194q-44 10 -66.5 38
t-22.5 65q0 44 32 75t79 31q44 0 75.5 -30.5t31.5 -73.5q0 -40 -28.5 -92.5t-129.5 -206.5z" />
    <glyph glyph-name="uni0157" unicode="&#x157;" horiz-adv-x="839" 
d="M319 0h-137v1130h133v-233h9q43 119 142.5 192.5t223.5 73.5q73 0 129 -22v-150q-69 27 -139 27t-130 -27t-102 -72.5t-71.5 -105.5t-43.5 -127t-14 -137v-549zM201 -520h-72l100 194q-44 10 -66 38t-22 65q0 44 32 75t79 31q44 0 75 -30.5t31 -73.5q0 -41 -29 -94
t-128 -205z" />
    <glyph glyph-name="Rcaron" unicode="&#x158;" horiz-adv-x="1421" 
d="M883 2028h129l-269 -308h-174l-266 308h127q123 -114 227 -220q113 115 226 220zM362 0h-147v1597h561q108 0 202.5 -31.5t166.5 -90.5t113.5 -150t41.5 -203q0 -202 -114 -331t-299 -148v-2q394 -586 430 -641h-164l-426 637h-365v-637zM362 768h402q177 0 280 90
t103 256q0 164 -110 257t-287 93h-388v-696z" />
    <glyph glyph-name="rcaron" unicode="&#x159;" horiz-adv-x="839" 
d="M557 1282h-180l-295 363h131q185 -190 256 -267q73 82 254 267h131zM319 0h-137v1130h133v-233h9q43 119 142.5 192.5t223.5 73.5q73 0 129 -22v-150q-69 27 -139 27t-130 -27t-102 -72.5t-71.5 -105.5t-43.5 -127t-14 -137v-549z" />
    <glyph glyph-name="Sacute" unicode="&#x15a;" horiz-adv-x="1320" 
d="M1036 2044l-340 -324h-127l260 324h207zM680 -35q-93 0 -181 25t-171 77.5t-148 146.5t-98 220l135 49q49 -186 175 -284.5t292 -98.5q70 0 135.5 18.5t122 54.5t91 98t34.5 141q0 47 -12 85.5t-36 66.5t-50 48.5t-65 37t-69.5 27.5t-74.5 24q-22 7 -33 10l-149 47
q-44 14 -75.5 25t-81 33.5t-85 45t-75.5 58t-65 75t-42 94t-17 115.5q0 103 44.5 186t119 134.5t165.5 78.5t189 27q192 0 335 -100.5t194 -282.5l-131 -53q-45 139 -153 220t-259 81q-149 0 -249.5 -77.5t-100.5 -203.5q0 -44 14.5 -82.5t34 -66.5t53.5 -54.5t59 -41.5
t66.5 -32t59 -23t51.5 -17l155 -51q151 -48 203 -72q184 -85 225 -238q13 -48 13 -104q0 -138 -75.5 -246t-199 -164.5t-270.5 -56.5z" />
    <glyph glyph-name="sacute" unicode="&#x15b;" horiz-adv-x="1013" 
d="M868 1669l-311 -391h-123l246 391h188zM532 -35q-166 0 -292 87t-172 231l129 41q42 -106 137.5 -173t200.5 -67q39 0 80 10.5t82.5 32.5t67.5 64t26 98q0 46 -18.5 80t-57 57t-72.5 35.5t-90 27.5l-109 31q-30 9 -51.5 16t-58 22.5t-62.5 31.5t-56.5 42.5t-49.5 56
t-32 71t-13 88.5q0 77 33 139t87.5 99.5t119.5 57t133 19.5q142 0 252 -78.5t149 -197.5l-133 -45q-30 86 -103.5 144t-177.5 58q-97 0 -159 -50.5t-62 -133.5q0 -41 18 -75.5t42 -56.5t64 -42t68 -30t70 -23l107 -31q35 -10 56.5 -16.5t57.5 -21t59 -29t51 -37.5t44.5 -49
t27.5 -62.5t11 -79.5q0 -147 -113 -244.5t-291 -97.5z" />
    <glyph glyph-name="Scedilla" unicode="&#x15e;" horiz-adv-x="1320" 
d="M1225 432q0 -199 -148 -327.5t-362 -139.5l-84 -123q30 19 80 19q84 0 136 -45.5t52 -120.5q0 -83 -65 -135t-164 -52q-74 0 -142.5 30.5t-111.5 80.5l57 59q34 -42 85 -67t104 -25q59 0 98 30t39 77q0 43 -35.5 70.5t-89.5 27.5t-96 -27l-56 54l99 149q-87 8 -166.5 37
t-153.5 82.5t-131.5 142.5t-87.5 205l135 49q49 -186 175 -284.5t292 -98.5q70 0 135.5 18.5t122 54.5t91 98t34.5 141q0 47 -12 85.5t-36 66.5t-50 48.5t-65 37t-69.5 27.5t-74.5 24q-22 7 -33 10l-149 47q-44 14 -75.5 25t-81 33.5t-85 45t-75.5 58t-65 75t-42 94
t-17 115.5q0 103 44.5 186t119 134.5t165.5 78.5t189 27q192 0 335 -100.5t194 -282.5l-131 -53q-45 139 -153 220t-259 81q-149 0 -249.5 -77.5t-100.5 -203.5q0 -44 14.5 -82.5t34 -66.5t53.5 -54.5t59 -41.5t66.5 -32t59 -23t51.5 -17l155 -51q151 -48 203 -72
q184 -85 225 -238q13 -48 13 -104z" />
    <glyph glyph-name="scedilla" unicode="&#x15f;" horiz-adv-x="1013" 
d="M936 307q0 -139 -104.5 -236t-270.5 -106l-84 -123q30 19 80 19q84 0 136 -45.5t52 -120.5q0 -83 -65 -135t-164 -52q-74 0 -142.5 30.5t-111.5 80.5l57 59q34 -42 85 -67t104 -25q59 0 98 30t39 77q0 43 -35.5 70.5t-89.5 27.5t-96 -27l-55 54l98 151
q-145 17 -251.5 101t-147.5 213l129 41q42 -106 137.5 -173t200.5 -67q39 0 80 10.5t82.5 32.5t67.5 64t26 98q0 46 -18.5 80t-57 57t-72.5 35.5t-90 27.5l-109 31q-30 9 -51.5 16t-58 22.5t-62.5 31.5t-56.5 42.5t-49.5 56t-32 71t-13 88.5q0 77 33 139t87.5 99.5t119.5 57
t133 19.5q142 0 252 -78.5t149 -197.5l-133 -45q-30 86 -103.5 144t-177.5 58q-97 0 -159 -50.5t-62 -133.5q0 -41 18 -75.5t42 -56.5t64 -42t68 -30t70 -23l107 -31q35 -10 56.5 -16.5t57.5 -21t59 -29t51 -37.5t44.5 -49t27.5 -62.5t11 -79.5z" />
    <glyph glyph-name="Scaron" unicode="&#x160;" horiz-adv-x="1320" 
d="M879 2028h129l-269 -308h-174l-266 308h127q123 -114 227 -220q113 115 226 220zM680 -35q-93 0 -181 25t-171 77.5t-148 146.5t-98 220l135 49q49 -186 175 -284.5t292 -98.5q70 0 135.5 18.5t122 54.5t91 98t34.5 141q0 47 -12 85.5t-36 66.5t-50 48.5t-65 37
t-69.5 27.5t-74.5 24q-22 7 -33 10l-149 47q-44 14 -75.5 25t-81 33.5t-85 45t-75.5 58t-65 75t-42 94t-17 115.5q0 103 44.5 186t119 134.5t165.5 78.5t189 27q192 0 335 -100.5t194 -282.5l-131 -53q-45 139 -153 220t-259 81q-149 0 -249.5 -77.5t-100.5 -203.5
q0 -44 14.5 -82.5t34 -66.5t53.5 -54.5t59 -41.5t66.5 -32t59 -23t51.5 -17l155 -51q151 -48 203 -72q184 -85 225 -238q13 -48 13 -104q0 -138 -75.5 -246t-199 -164.5t-270.5 -56.5z" />
    <glyph glyph-name="scaron" unicode="&#x161;" horiz-adv-x="1013" 
d="M592 1282h-180l-295 363h131q185 -190 256 -267q73 82 254 267h131zM532 -35q-166 0 -292 87t-172 231l129 41q42 -106 137.5 -173t200.5 -67q39 0 80 10.5t82.5 32.5t67.5 64t26 98q0 46 -18.5 80t-57 57t-72.5 35.5t-90 27.5l-109 31q-30 9 -51.5 16t-58 22.5
t-62.5 31.5t-56.5 42.5t-49.5 56t-32 71t-13 88.5q0 77 33 139t87.5 99.5t119.5 57t133 19.5q142 0 252 -78.5t149 -197.5l-133 -45q-30 86 -103.5 144t-177.5 58q-97 0 -159 -50.5t-62 -133.5q0 -41 18 -75.5t42 -56.5t64 -42t68 -30t70 -23l107 -31q35 -10 56.5 -16.5
t57.5 -21t59 -29t51 -37.5t44.5 -49t27.5 -62.5t11 -79.5q0 -147 -113 -244.5t-291 -97.5z" />
    <glyph glyph-name="uni0162" unicode="&#x162;" horiz-adv-x="1300" 
d="M723 0h-25l-106 -158q30 19 80 19q84 0 136 -45.5t52 -120.5q0 -83 -65 -135t-164 -52q-74 0 -142.5 30.5t-111.5 80.5l57 59q34 -42 85 -67t104 -25q59 0 98 30t39 77q0 43 -35.5 70.5t-89.5 27.5t-96 -27l-56 54l119 182h-24v1464h-547v133h1239v-133h-547v-1464z" />
    <glyph glyph-name="uni0163" unicode="&#x163;" horiz-adv-x="782" 
d="M733 1130v-122h-346v-629v-44t1.5 -43t4.5 -44.5t8.5 -40.5t13.5 -38.5t20 -31.5t28 -26t38 -15t48 -6q88 0 184 62v-132q-85 -55 -207 -55q-29 0 -43 2l-84 -125q30 19 80 19q84 0 136.5 -45.5t52.5 -120.5q0 -82 -65.5 -134.5t-164.5 -52.5q-74 0 -142.5 30.5
t-111.5 80.5l58 59q34 -43 84.5 -67.5t103.5 -24.5q59 0 98 30t39 77q0 43 -35.5 70.5t-89.5 27.5t-96 -27l-55 54l110 170q-36 15 -63.5 38.5t-43.5 57t-25.5 61.5t-13 70t-4.5 64t-1 61v668h-225v122h225v336h137v-336h346z" />
    <glyph glyph-name="Tcaron" unicode="&#x164;" horiz-adv-x="1300" 
d="M877 2028h129l-269 -308h-174l-266 308h127q123 -114 227 -220q112 115 226 220zM723 0h-145v1464h-547v133h1239v-133h-547v-1464z" />
    <glyph glyph-name="tcaron" unicode="&#x165;" horiz-adv-x="782" 
d="M881 1169h-90l127 252q-36 12 -55 41.5t-19 67.5q0 46 32.5 78t79.5 32t80 -32t33 -78q0 -39 -33.5 -102t-154.5 -259zM526 -35q-45 0 -82 9t-64 22.5t-48 36.5t-34.5 44t-23 52.5t-14 53.5t-7 56.5t-3 52t-0.5 48.5v668h-225v122h225v336h137v-336h346v-122h-346v-629
v-44t1.5 -43t4.5 -44.5t8.5 -40.5t13.5 -38.5t20 -31.5t28 -26t38 -15t48 -6q88 0 184 62v-132q-85 -55 -207 -55z" />
    <glyph glyph-name="Tbar" unicode="&#x166;" horiz-adv-x="1300" 
d="M1270 1597v-133h-547v-606h354v-121h-354v-737h-145v737h-353v121h353v606h-547v133h1239z" />
    <glyph glyph-name="tbar" unicode="&#x167;" horiz-adv-x="782" 
d="M733 1130v-122h-346v-320h332v-115h-332v-194v-44t1.5 -43t4.5 -44.5t8.5 -40.5t13.5 -38.5t20 -31.5t28 -26t38 -15t48 -6q88 0 184 62v-132q-85 -55 -207 -55q-45 0 -82 9t-64 22.5t-48 36.5t-34.5 44t-23 52.5t-14 53.5t-7 56.5t-3 52t-0.5 48.5v233h-221v115h221v320
h-225v122h225v336h137v-336h346z" />
    <glyph glyph-name="Umacron" unicode="&#x16a;" horiz-adv-x="1540" 
d="M1106 1829h-672v117h672v-117zM764 -35q-276 0 -421.5 159.5t-145.5 455.5v1017h145v-1009q0 -249 112 -368.5t316 -119.5q205 0 316.5 119.5t111.5 368.5v1009h145v-1017q0 -133 -33 -242.5t-101 -194t-181.5 -131.5t-263.5 -47z" />
    <glyph glyph-name="umacron" unicode="&#x16b;" horiz-adv-x="1277" 
d="M965 1413h-689v115h689v-115zM571 -35q-63 0 -119.5 14.5t-109.5 48.5t-91.5 85t-61.5 130.5t-23 178.5v708h137v-655q0 -104 25.5 -181t70 -119.5t96 -62.5t111.5 -20q82 0 150 36t110.5 94.5t66 128.5t23.5 141v638h138v-776q0 -133 8.5 -207t27.5 -147h-139
q-28 115 -28 209h-5q-121 -244 -387 -244z" />
    <glyph glyph-name="Uring" unicode="&#x16e;" horiz-adv-x="1540" 
d="M772 1714q-98 0 -162.5 63t-64.5 158q0 94 64.5 156.5t162.5 62.5q96 0 160.5 -62t64.5 -157q0 -96 -64.5 -158.5t-160.5 -62.5zM772 1810q55 0 91 34t36 91q0 55 -36 88t-91 33q-58 0 -94.5 -33t-36.5 -88q0 -58 36.5 -91.5t94.5 -33.5zM764 -35q-276 0 -421.5 159.5
t-145.5 455.5v1017h145v-1009q0 -249 112 -368.5t316 -119.5q205 0 316.5 119.5t111.5 368.5v1009h145v-1017q0 -133 -33 -242.5t-101 -194t-181.5 -131.5t-263.5 -47z" />
    <glyph glyph-name="uring" unicode="&#x16f;" horiz-adv-x="1277" 
d="M621 1247q-98 0 -163 63t-65 158q0 94 65 157t163 63q96 0 160.5 -62.5t64.5 -157.5q0 -96 -64.5 -158.5t-160.5 -62.5zM621 1343q55 0 91 34t36 91q0 55 -36 88t-91 33q-56 0 -92.5 -33t-36.5 -88q0 -57 36 -91t93 -34zM571 -35q-63 0 -119.5 14.5t-109.5 48.5t-91.5 85
t-61.5 130.5t-23 178.5v708h137v-655q0 -104 25.5 -181t70 -119.5t96 -62.5t111.5 -20q82 0 150 36t110.5 94.5t66 128.5t23.5 141v638h138v-776q0 -133 8.5 -207t27.5 -147h-139q-28 115 -28 209h-5q-121 -244 -387 -244z" />
    <glyph glyph-name="Uhungarumlaut" unicode="&#x170;" horiz-adv-x="1540" 
d="M918 2044l-279 -324h-125l213 324h191zM1243 2044l-297 -324h-123l230 324h190zM764 -35q-276 0 -421.5 159.5t-145.5 455.5v1017h145v-1009q0 -249 112 -368.5t316 -119.5q205 0 316.5 119.5t111.5 368.5v1009h145v-1017q0 -133 -33 -242.5t-101 -194t-181.5 -131.5
t-263.5 -47z" />
    <glyph glyph-name="uhungarumlaut" unicode="&#x171;" horiz-adv-x="1277" 
d="M766 1673l-281 -395h-120l215 395h186zM1094 1673l-297 -395h-121l233 395h185zM571 -35q-63 0 -119.5 14.5t-109.5 48.5t-91.5 85t-61.5 130.5t-23 178.5v708h137v-655q0 -104 25.5 -181t70 -119.5t96 -62.5t111.5 -20q82 0 150 36t110.5 94.5t66 128.5t23.5 141v638
h138v-776q0 -133 8.5 -207t27.5 -147h-139q-28 115 -28 209h-5q-121 -244 -387 -244z" />
    <glyph glyph-name="Uogonek" unicode="&#x172;" horiz-adv-x="1540" 
d="M1198 588v1009h145v-1017q0 -122 -28 -224t-84.5 -184t-150.5 -134.5t-218 -66.5q-123 -77 -123 -180q0 -68 51 -112t128 -44q39 0 88 15v-99q-55 -14 -101 -14q-117 0 -194.5 62.5t-77.5 171.5q0 113 108 194q-265 7 -404.5 166t-139.5 449v1017h145v-1009
q0 -249 112 -368.5t316 -119.5q205 0 316.5 119.5t111.5 368.5z" />
    <glyph glyph-name="uogonek" unicode="&#x173;" horiz-adv-x="1277" 
d="M1108 -362q42 0 90 14v-101q-55 -14 -102 -14q-114 0 -191.5 63t-77.5 167q0 139 164 233q-28 115 -28 209h-5q-121 -244 -387 -244q-63 0 -119.5 14.5t-109.5 48.5t-91.5 85t-61.5 130.5t-23 178.5v708h137v-655q0 -104 25.5 -181t70 -119.5t96 -62.5t111.5 -20
q82 0 150 36t110.5 94.5t66 128.5t23.5 141v638h138v-776q0 -133 8.5 -207t27.5 -147h-24q-172 -84 -172 -209q0 -69 50 -111t124 -42z" />
    <glyph glyph-name="Wcircumflex" unicode="&#x174;" horiz-adv-x="2326" 
d="M1249 2028l269 -308h-129q-142 131 -226 217q-75 -77 -227 -217h-127l268 308h172zM729 0h-176l-516 1597h158q245 -734 446 -1402h4q25 80 188.5 602.5t247.5 799.5h164q51 -164 205 -650.5t236 -751.5h4q325 1045 442 1402h158l-514 -1597h-177q-209 630 -434 1386h-4
q-256 -857 -432 -1386z" />
    <glyph glyph-name="wcircumflex" unicode="&#x175;" horiz-adv-x="1859" 
d="M674 1278h-131l295 358h180l297 -358h-131q-199 203 -254 264q-41 -44 -256 -264zM592 0h-146l-411 1130h153l336 -944h4l334 944h137l342 -944h5l325 944h154l-410 -1130h-149q-199 545 -334 954h-4q-147 -444 -336 -954z" />
    <glyph glyph-name="Ycircumflex" unicode="&#x176;" horiz-adv-x="1411" 
d="M793 2028l268 -308h-129q-132 122 -225 217q-67 -68 -228 -217h-127l269 308h172zM778 0h-145v586q-299 504 -594 1011h160l506 -872h4l510 872h155l-596 -1011v-586z" />
    <glyph glyph-name="ycircumflex" unicode="&#x177;" horiz-adv-x="1116" 
d="M291 1278h-131l295 358h180l297 -358h-131q-199 203 -254 264q-41 -44 -256 -264zM451 -451h-132l170 435l-456 1146h149q57 -140 119.5 -300.5t137.5 -355.5t120 -310h4q259 684 371 966h149z" />
    <glyph glyph-name="Ydieresis" unicode="&#x178;" horiz-adv-x="1411" 
d="M508 1784q-46 0 -77.5 32.5t-31.5 79.5q0 43 32 75t77 32t76.5 -32t31.5 -75q0 -47 -31 -79.5t-77 -32.5zM905 1784q-47 0 -77.5 32t-30.5 80q0 44 31 75.5t77 31.5q44 0 75.5 -32t31.5 -75q0 -47 -31.5 -79.5t-75.5 -32.5zM778 0h-145v586q-299 504 -594 1011h160
l506 -872h4l510 872h155l-596 -1011v-586z" />
    <glyph glyph-name="Zacute" unicode="&#x179;" horiz-adv-x="1349" 
d="M1030 2044l-340 -324h-127l260 324h207zM1284 0h-1223v143q57 73 1024 1317v4h-985v133h1166v-139q-171 -220 -513 -657.5t-513 -657.5v-4h1044v-139z" />
    <glyph glyph-name="zacute" unicode="&#x17a;" horiz-adv-x="999" 
d="M864 1669l-311 -391h-123l246 391h188zM948 0h-887v106l654 898h-619v126h805v-106l-657 -897h704v-127z" />
    <glyph glyph-name="Zdotaccent" unicode="&#x17b;" horiz-adv-x="1349" 
d="M657 1786q-49 0 -81.5 33.5t-32.5 83.5q0 46 32.5 79t81.5 33q47 0 80 -33t33 -79q0 -49 -33 -83t-80 -34zM1284 0h-1223v143q57 73 1024 1317v4h-985v133h1166v-139q-171 -220 -513 -657.5t-513 -657.5v-4h1044v-139z" />
    <glyph glyph-name="zdotaccent" unicode="&#x17c;" horiz-adv-x="999" 
d="M504 1417q-51 0 -84 33.5t-33 83.5q0 47 33.5 80t83.5 33q47 0 79.5 -33.5t32.5 -79.5q0 -49 -32.5 -83t-79.5 -34zM948 0h-887v106l654 898h-619v126h805v-106l-657 -897h704v-127z" />
    <glyph glyph-name="Zcaron" unicode="&#x17d;" horiz-adv-x="1349" 
d="M872 2028h129l-268 -308h-174l-266 308h127q123 -114 227 -220q121 124 225 220zM1284 0h-1223v143q57 73 1024 1317v4h-985v133h1166v-139q-171 -220 -513 -657.5t-513 -657.5v-4h1044v-139z" />
    <glyph glyph-name="zcaron" unicode="&#x17e;" horiz-adv-x="999" 
d="M590 1282h-180l-295 363h131q185 -190 256 -267q73 82 254 267h131zM948 0h-887v106l654 898h-619v126h805v-106l-657 -897h704v-127z" />
    <glyph glyph-name="uni0218" unicode="&#x218;" horiz-adv-x="1320" 
d="M680 -35q-93 0 -181 25t-171 77.5t-148 146.5t-98 220l135 49q49 -186 175 -284.5t292 -98.5q70 0 135.5 18.5t122 54.5t91 98t34.5 141q0 47 -12 85.5t-36 66.5t-50 48.5t-65 37t-69.5 27.5t-74.5 24q-22 7 -33 10l-149 47q-44 14 -75.5 25t-81 33.5t-85 45t-75.5 58
t-65 75t-42 94t-17 115.5q0 103 44.5 186t119 134.5t165.5 78.5t189 27q192 0 335 -100.5t194 -282.5l-131 -53q-45 139 -153 220t-259 81q-149 0 -249.5 -77.5t-100.5 -203.5q0 -44 14.5 -82.5t34 -66.5t53.5 -54.5t59 -41.5t66.5 -32t59 -23t51.5 -17l155 -51
q151 -48 203 -72q184 -85 225 -238q13 -48 13 -104q0 -138 -75.5 -246t-199 -164.5t-270.5 -56.5zM633 -520h-72l101 194q-44 10 -66.5 38t-22.5 65q0 44 32 75t79 31q44 0 75.5 -30.5t31.5 -73.5q0 -40 -28.5 -92.5t-129.5 -206.5z" />
    <glyph glyph-name="uni0219" unicode="&#x219;" horiz-adv-x="1013" 
d="M532 -35q-166 0 -292 87t-172 231l129 41q42 -106 137.5 -173t200.5 -67q39 0 80 10.5t82.5 32.5t67.5 64t26 98q0 46 -18.5 80t-57 57t-72.5 35.5t-90 27.5l-109 31q-30 9 -51.5 16t-58 22.5t-62.5 31.5t-56.5 42.5t-49.5 56t-32 71t-13 88.5q0 77 33 139t87.5 99.5
t119.5 57t133 19.5q142 0 252 -78.5t149 -197.5l-133 -45q-30 86 -103.5 144t-177.5 58q-97 0 -159 -50.5t-62 -133.5q0 -41 18 -75.5t42 -56.5t64 -42t68 -30t70 -23l107 -31q35 -10 56.5 -16.5t57.5 -21t59 -29t51 -37.5t44.5 -49t27.5 -62.5t11 -79.5q0 -147 -113 -244.5
t-291 -97.5zM479 -520h-71l100 194q-44 10 -66 38t-22 65q0 45 31.5 75.5t78.5 30.5q44 0 75.5 -30.5t31.5 -73.5q0 -40 -28.5 -92.5t-129.5 -206.5z" />
    <glyph glyph-name="uni021A" unicode="&#x21a;" horiz-adv-x="1300" 
d="M723 0h-145v1464h-547v133h1239v-133h-547v-1464zM594 -520h-72l101 194q-44 10 -66 38t-22 65q0 45 31.5 75.5t78.5 30.5q44 0 75.5 -30.5t31.5 -73.5q0 -40 -28.5 -92.5t-129.5 -206.5z" />
    <glyph glyph-name="uni021B" unicode="&#x21b;" horiz-adv-x="782" 
d="M526 -35q-45 0 -82 9t-64 22.5t-48 36.5t-34.5 44t-23 52.5t-14 53.5t-7 56.5t-3 52t-0.5 48.5v668h-225v122h225v336h137v-336h346v-122h-346v-629v-44t1.5 -43t4.5 -44.5t8.5 -40.5t13.5 -38.5t20 -31.5t28 -26t38 -15t48 -6q88 0 184 62v-132q-85 -55 -207 -55z
M403 -520h-71l100 194q-44 10 -66 38t-22 65q0 44 32 75t79 31q44 0 75 -30.5t31 -73.5q0 -40 -28.5 -92.5t-129.5 -206.5z" />
    <glyph glyph-name="gravecomb" unicode="&#x300;" horiz-adv-x="0" 
d="M-98 1278h-121l-311 391h188z" />
    <glyph glyph-name="acutecomb" unicode="&#x301;" horiz-adv-x="0" 
d="M96 1669l-311 -391h-123l246 391h188z" />
    <glyph glyph-name="uni0302" unicode="&#x302;" horiz-adv-x="0" 
d="M-670 1278h-131l295 358h180l297 -358h-131q-199 203 -254 264q-41 -44 -256 -264z" />
    <glyph glyph-name="tildecomb" unicode="&#x303;" horiz-adv-x="0" 
d="M-317 1337q-15 0 -28.5 2t-24 4t-22.5 8t-19 9t-19 11.5t-16.5 12t-17.5 14t-17 13.5l-39 33q-21 18 -30.5 25.5t-29 16.5t-38.5 9q-49 0 -78 -40t-29 -101h-104q2 110 60.5 180t150.5 70q41 0 74.5 -17t74.5 -51l43 -37q62 -53 109 -53q46 0 72 40t26 103h104
q0 -117 -53 -184.5t-149 -67.5z" />
    <glyph glyph-name="uni0304" unicode="&#x304;" horiz-adv-x="0" 
d="M-90 1409h-688v115h688v-115z" />
    <glyph glyph-name="uni0306" unicode="&#x306;" horiz-adv-x="0" 
d="M-406 1276q-170 0 -269 111t-105 284h123q4 -128 74.5 -205t179.5 -77q108 0 177.5 77t73.5 205h123q-6 -174 -105.5 -284.5t-271.5 -110.5z" />
    <glyph glyph-name="uni0307" unicode="&#x307;" horiz-adv-x="0" 
d="M-246 1413q-51 0 -83.5 33.5t-32.5 83.5q0 47 33 79.5t83 32.5q47 0 80 -33t33 -79q0 -49 -33 -83t-80 -34z" />
    <glyph glyph-name="uni0308" unicode="&#x308;" horiz-adv-x="0" 
d="M-836 1370q-44 0 -75 32t-31 77q0 42 31 73t75 31q45 0 75 -31t30 -73q0 -45 -30 -77t-75 -32zM-471 1370q-45 0 -76 32t-31 77q0 42 31 73t76 31q44 0 74 -31t30 -73q0 -45 -30 -77t-74 -32z" />
    <glyph glyph-name="uni030A" unicode="&#x30a;" horiz-adv-x="0" 
d="M-246 1247q-98 0 -162.5 63t-64.5 158q0 94 64.5 157t162.5 63q96 0 161 -62.5t65 -157.5q0 -96 -65 -158.5t-161 -62.5zM-246 1343q55 0 91 34t36 91q0 55 -36 88t-91 33q-56 0 -92.5 -33t-36.5 -88q0 -57 36 -91t93 -34z" />
    <glyph glyph-name="uni030B" unicode="&#x30b;" horiz-adv-x="0" 
d="M-162 1673l-280 -395h-121l215 395h186zM166 1673l-297 -395h-121l234 395h184z" />
    <glyph glyph-name="uni030C" unicode="&#x30c;" horiz-adv-x="0" 
d="M-326 1278h-180l-295 362h131q200 -204 256 -266q63 70 254 266h131z" />
    <glyph glyph-name="uni0312" unicode="&#x312;" horiz-adv-x="0" 
d="M-424 1323q0 40 29.5 97t148.5 253h88l-123 -246q34 -12 53 -39.5t19 -62.5q0 -46 -31 -76t-77 -30t-76.5 30t-30.5 74z" />
    <glyph glyph-name="uni0326" unicode="&#x326;" horiz-adv-x="0" 
d="M-332 -520h-71l100 194q-44 10 -66 38t-22 65q0 45 31.5 75.5t78.5 30.5q44 0 75.5 -30.5t31.5 -73.5q0 -40 -28.5 -92.5t-129.5 -206.5z" />
    <glyph glyph-name="uni0327" unicode="&#x327;" horiz-adv-x="0" 
d="M-639 -492q-74 0 -142.5 30.5t-111.5 80.5l57 59q34 -42 85 -67t104 -25q59 0 98 30t39 77q0 43 -35.5 70.5t-89.5 27.5t-96 -27l-55 54l118 182h97l-107 -158q30 19 80 19q84 0 136 -45.5t52 -120.5q0 -83 -65 -135t-164 -52z" />
    <glyph glyph-name="uni0328" unicode="&#x328;" horiz-adv-x="0" 
d="M-639 -483q-114 0 -191 62.5t-77 166.5q0 140 164 234h114q-172 -84 -172 -209q0 -69 50 -111.5t124 -42.5q42 0 90 14v-100q-55 -14 -102 -14z" />
    <glyph glyph-name="uni0335" unicode="&#x335;" horiz-adv-x="0" 
d="M-51 508h-690v115h690v-115z" />
    <glyph glyph-name="uni0337" unicode="&#x337;" horiz-adv-x="0" 
d="M-487 518v125l540 385v-123z" />
    <glyph glyph-name="uni0338" unicode="&#x338;" horiz-adv-x="0" 
d="M-1020 -57h-154l922 1237h148z" />
    <glyph glyph-name="Wgrave" unicode="&#x1e80;" horiz-adv-x="2326" 
d="M1255 1720h-127l-340 324h207zM729 0h-176l-516 1597h158q245 -734 446 -1402h4q25 80 188.5 602.5t247.5 799.5h164q51 -164 205 -650.5t236 -751.5h4q325 1045 442 1402h158l-514 -1597h-177q-209 630 -434 1386h-4q-256 -857 -432 -1386z" />
    <glyph glyph-name="wgrave" unicode="&#x1e81;" horiz-adv-x="1859" 
d="M993 1278h-121l-311 391h189zM592 0h-146l-411 1130h153l336 -944h4l334 944h137l342 -944h5l325 944h154l-410 -1130h-149q-199 545 -334 954h-4q-147 -444 -336 -954z" />
    <glyph glyph-name="Wacute" unicode="&#x1e82;" horiz-adv-x="2326" 
d="M1546 2044l-340 -324h-127l260 324h207zM729 0h-176l-516 1597h158q245 -734 446 -1402h4q25 80 188.5 602.5t247.5 799.5h164q51 -164 205 -650.5t236 -751.5h4q325 1045 442 1402h158l-514 -1597h-177q-209 630 -434 1386h-4q-256 -857 -432 -1386z" />
    <glyph glyph-name="wacute" unicode="&#x1e83;" horiz-adv-x="1859" 
d="M1292 1669l-311 -391h-123l246 391h188zM592 0h-146l-411 1130h153l336 -944h4l334 944h137l342 -944h5l325 944h154l-410 -1130h-149q-199 545 -334 954h-4q-147 -444 -336 -954z" />
    <glyph glyph-name="Wdieresis" unicode="&#x1e84;" horiz-adv-x="2326" 
d="M965 1784q-46 0 -77.5 32.5t-31.5 79.5q0 43 32 75t77 32t76.5 -32t31.5 -75q0 -47 -31 -79.5t-77 -32.5zM1362 1784q-47 0 -78 32t-31 80q0 44 31.5 75.5t77.5 31.5q44 0 75 -32t31 -75q0 -47 -31 -79.5t-75 -32.5zM729 0h-176l-516 1597h158q245 -734 446 -1402h4
q25 80 188.5 602.5t247.5 799.5h164q51 -164 205 -650.5t236 -751.5h4q325 1045 442 1402h158l-514 -1597h-177q-209 630 -434 1386h-4q-256 -857 -432 -1386z" />
    <glyph glyph-name="wdieresis" unicode="&#x1e85;" horiz-adv-x="1859" 
d="M745 1370q-44 0 -75 32t-31 77q0 42 31 73t75 31q45 0 75 -31t30 -73q0 -45 -30 -77t-75 -32zM1110 1370q-45 0 -75.5 32t-30.5 77q0 42 30.5 73t75.5 31q44 0 74 -31t30 -73q0 -45 -30 -77t-74 -32zM592 0h-146l-411 1130h153l336 -944h4l334 944h137l342 -944h5
l325 944h154l-410 -1130h-149q-199 545 -334 954h-4q-147 -444 -336 -954z" />
    <glyph glyph-name="uni1E9E" unicode="&#x1e9e;" horiz-adv-x="1546" 
d="M338 0h-145v940q0 46 2 85.5t9 95.5t18.5 102t34 100t53 96.5t76.5 83t103 67.5t135.5 43.5t170.5 16.5q267 0 419 -123.5t152 -328.5q0 -147 -77.5 -244.5t-209.5 -124.5v-2q148 -10 253.5 -114.5t105.5 -274.5q0 -60 -14 -114.5t-52.5 -111.5t-98.5 -98.5t-160 -67.5
t-228 -26h-170v133h196q102 0 177 24t116.5 67t60.5 94t19 112q0 140 -101.5 220.5t-271.5 80.5h-108v133h112q30 0 63 5.5t76.5 24.5t77 49t57 85.5t23.5 128.5q0 163 -111 254.5t-306 91.5q-70 0 -129.5 -13t-103 -34t-78.5 -52.5t-58 -64.5t-40 -75t-26 -77.5t-14 -78.5
t-6.5 -72.5t-1.5 -64.5v-971z" />
    <glyph glyph-name="Ygrave" unicode="&#x1ef2;" horiz-adv-x="1411" 
d="M799 1720h-127l-340 324h207zM778 0h-145v586q-299 504 -594 1011h160l506 -872h4l510 872h155l-596 -1011v-586z" />
    <glyph glyph-name="ygrave" unicode="&#x1ef3;" horiz-adv-x="1116" 
d="M612 1278h-120l-312 391h189zM451 -451h-132l170 435l-456 1146h149q57 -140 119.5 -300.5t137.5 -355.5t120 -310h4q259 684 371 966h149z" />
    <glyph glyph-name="uni2000" unicode="&#x2000;" horiz-adv-x="1024" 
 />
    <glyph glyph-name="uni2001" unicode="&#x2001;" 
 />
    <glyph glyph-name="uni2002" unicode="&#x2002;" horiz-adv-x="1024" 
 />
    <glyph glyph-name="uni2003" unicode="&#x2003;" 
 />
    <glyph glyph-name="uni2004" unicode="&#x2004;" horiz-adv-x="681" 
 />
    <glyph glyph-name="uni2005" unicode="&#x2005;" horiz-adv-x="512" 
 />
    <glyph glyph-name="uni2006" unicode="&#x2006;" horiz-adv-x="342" 
 />
    <glyph glyph-name="uni2007" unicode="&#x2007;" horiz-adv-x="555" 
 />
    <glyph glyph-name="uni2008" unicode="&#x2008;" horiz-adv-x="479" 
 />
    <glyph glyph-name="uni2009" unicode="&#x2009;" horiz-adv-x="256" 
 />
    <glyph glyph-name="uni200A" unicode="&#x200a;" horiz-adv-x="86" 
 />
    <glyph glyph-name="uni200B" unicode="&#x200b;" horiz-adv-x="0" 
 />
    <glyph glyph-name="endash" unicode="&#x2013;" horiz-adv-x="1011" 
d="M891 563h-770v121h770v-121z" />
    <glyph glyph-name="emdash" unicode="&#x2014;" horiz-adv-x="1439" 
d="M1321 565h-1200v115h1200v-115z" />
    <glyph glyph-name="quoteleft" unicode="&#x2018;" horiz-adv-x="464" 
d="M289 1632h88l-125 -254q35 -12 54.5 -40.5t19.5 -67.5q0 -46 -33 -78.5t-82 -32.5q-46 0 -78.5 32.5t-32.5 78.5q0 40 31 97.5t158 264.5z" />
    <glyph glyph-name="quoteright" unicode="&#x2019;" horiz-adv-x="473" 
d="M205 1165h-90l127 254q-36 12 -55 40.5t-19 66.5q0 46 33 79t80 33t79.5 -32.5t32.5 -77.5q0 -41 -33.5 -104t-154.5 -259z" />
    <glyph glyph-name="quotesinglbase" unicode="&#x201a;" horiz-adv-x="452" 
d="M156 -258h-88l125 254q-35 12 -54.5 40.5t-19.5 65.5q0 47 32.5 80t81.5 33q46 0 78.5 -33.5t32.5 -79.5q0 -39 -33 -100.5t-155 -259.5z" />
    <glyph glyph-name="quotedblleft" unicode="&#x201c;" horiz-adv-x="786" 
d="M289 1632h88l-125 -254q35 -12 54.5 -40.5t19.5 -67.5q0 -46 -33 -78.5t-82 -32.5q-46 0 -78.5 32.5t-32.5 78.5q0 40 31 97.5t158 264.5zM612 1632h88l-127 -254q36 -12 56 -40.5t20 -67.5q0 -46 -33.5 -78.5t-80.5 -32.5t-80 32.5t-33 78.5q0 37 28.5 91t127.5 216
q22 35 34 55z" />
    <glyph glyph-name="quotedblright" unicode="&#x201d;" horiz-adv-x="794" 
d="M203 1165h-88l127 254q-36 12 -56 41t-20 66q0 46 34 79t81 33q46 0 79 -33t33 -77q0 -40 -32.5 -100.5t-157.5 -262.5zM526 1165h-88l125 254q-36 12 -55 40.5t-19 66.5q0 46 33 79t82 33q46 0 78.5 -33t32.5 -77q0 -40 -33 -102t-156 -261z" />
    <glyph glyph-name="quotedblbase" unicode="&#x201e;" horiz-adv-x="774" 
d="M156 -254h-88l125 254q-35 12 -54.5 41t-19.5 68q0 46 32.5 78t81.5 32q46 0 78.5 -32t32.5 -78q0 -40 -32 -100.5t-156 -262.5zM477 -254h-88l127 254q-36 12 -56 41t-20 68q0 46 34 78t81 32t80 -32t33 -78q0 -37 -29 -92t-124 -210q-25 -39 -38 -61z" />
    <glyph glyph-name="dagger" unicode="&#x2020;" horiz-adv-x="993" 
d="M561 1296h342v-122h-342v-744h-131v744h-340v122h340v342h131v-342z" />
    <glyph glyph-name="daggerdbl" unicode="&#x2021;" horiz-adv-x="1087" 
d="M948 1296v-122h-336v-295h336v-123h-336v-340h-133v340h-338v123h338v295h-338v122h338v342h133v-342h336z" />
    <glyph glyph-name="bullet" unicode="&#x2022;" horiz-adv-x="788" 
d="M397 428q-85 0 -143.5 60.5t-58.5 146.5q0 83 58.5 141t143.5 58q83 0 141 -58t58 -141q0 -86 -58 -146.5t-141 -60.5z" />
    <glyph glyph-name="ellipsis" unicode="&#x2026;" horiz-adv-x="1347" 
d="M242 -14q-49 0 -82 33t-33 83q0 46 33 79.5t82 33.5q45 0 77.5 -33.5t32.5 -79.5q0 -49 -32 -82.5t-78 -33.5zM676 -14q-49 0 -82 33t-33 83q0 46 33 79.5t82 33.5q45 0 77.5 -33.5t32.5 -79.5q0 -49 -32 -82.5t-78 -33.5zM1110 -14q-49 0 -82 33t-33 83q0 46 33 79.5
t82 33.5q46 0 78.5 -33.5t32.5 -79.5q0 -49 -32.5 -82.5t-78.5 -33.5z" />
    <glyph glyph-name="uni202F" unicode="&#x202f;" horiz-adv-x="403" 
 />
    <glyph glyph-name="perthousand" unicode="&#x2030;" horiz-adv-x="2381" 
d="M348 788q-121 0 -195.5 102.5t-74.5 264.5q0 164 74.5 267.5t195.5 103.5q122 0 197.5 -103.5t75.5 -267.5q0 -162 -75.5 -264.5t-197.5 -102.5zM348 0h-131l1139 1468h123zM348 893q69 0 110.5 69t41.5 193t-41.5 194t-110.5 70t-110 -70t-41 -194t41 -193t110 -69z
M1337 -29q-121 0 -195.5 102.5t-74.5 264.5q0 164 74.5 267.5t195.5 103.5q122 0 197.5 -103.5t75.5 -267.5q0 -162 -75.5 -264.5t-197.5 -102.5zM2034 -29q-121 0 -196 102.5t-75 264.5q0 164 75 267.5t196 103.5q122 0 197 -103.5t75 -267.5q0 -162 -75 -264.5
t-197 -102.5zM1337 76q69 0 110.5 69t41.5 193t-41.5 194t-110.5 70t-110 -70t-41 -194t41 -193t110 -69zM2034 76q69 0 110 69t41 193t-41 194t-110 70t-110.5 -70t-41.5 -194t41.5 -193t110.5 -69z" />
    <glyph glyph-name="guilsinglleft" unicode="&#x2039;" horiz-adv-x="755" 
d="M618 164h-163l-346 405v9l346 405h163l-346 -405v-9z" />
    <glyph glyph-name="guilsinglright" unicode="&#x203a;" horiz-adv-x="755" 
d="M301 164h-164l346 405v9l-346 405h164l346 -405v-9z" />
    <glyph glyph-name="fraction" unicode="&#x2044;" horiz-adv-x="292" 
d="M-348 0h-131l1138 1468h123z" />
    <glyph glyph-name="uni205F" unicode="&#x205f;" horiz-adv-x="454" 
 />
    <glyph glyph-name="uni2070" unicode="&#x2070;" horiz-adv-x="696" 
d="M348 788q-121 0 -195.5 102.5t-74.5 264.5q0 164 74.5 267.5t195.5 103.5q122 0 197.5 -103.5t75.5 -267.5q0 -162 -75.5 -264.5t-197.5 -102.5zM348 893q69 0 110.5 69t41.5 193t-41.5 194t-110.5 70t-110 -70t-41 -194t41 -193t110 -69z" />
    <glyph glyph-name="uni2074" unicode="&#x2074;" horiz-adv-x="663" 
d="M502 803h-109v158h-346v96l348 454h107v-456h98v-94h-98v-158zM393 1362l-235 -307h235v307z" />
    <glyph glyph-name="uni2075" unicode="&#x2075;" horiz-adv-x="651" 
d="M315 788q-93 0 -165.5 43.5t-98.5 118.5l99 49q21 -54 66 -84t99 -30q63 0 105.5 41.5t42.5 105.5t-40 104t-101 40q-94 0 -138 -80l-92 26l82 389h367v-94h-287l-47 -221q22 30 65 47t88 17q90 0 156 -60t66 -166q0 -110 -77.5 -178t-189.5 -68z" />
    <glyph glyph-name="uni2076" unicode="&#x2076;" horiz-adv-x="679" 
d="M348 788q-122 0 -196 88t-74 242q0 178 93.5 293t240.5 115q109 0 178 -66l-62 -76q-51 43 -122 43q-92 0 -152 -70.5t-66 -199.5h5q20 49 71 78t109 29q95 0 165 -65.5t70 -166.5q0 -105 -74 -174.5t-186 -69.5zM352 885q61 0 104.5 42t43.5 107q0 63 -43 105.5
t-103 42.5q-64 0 -105.5 -43.5t-41.5 -106.5q0 -62 42.5 -104.5t102.5 -42.5z" />
    <glyph glyph-name="uni2077" unicode="&#x2077;" horiz-adv-x="565" 
d="M270 803h-118q0 140 70 320.5t184 297.5h-367v97h498v-101q-122 -108 -194.5 -286.5t-72.5 -327.5z" />
    <glyph glyph-name="uni2078" unicode="&#x2078;" horiz-adv-x="667" 
d="M334 788q-116 0 -188 59.5t-72 147.5q0 67 38.5 116t92.5 63v2q-101 51 -101 153q0 85 66 141t164 56q97 0 163 -55.5t66 -141.5q0 -48 -25 -89t-77 -64v-2q57 -16 95 -63.5t38 -113.5q0 -90 -72 -149.5t-188 -59.5zM336 1214q52 0 87.5 33.5t35.5 83.5q0 47 -35.5 77
t-87.5 30q-55 0 -90 -30.5t-35 -76.5q0 -50 35 -83.5t90 -33.5zM336 887q59 0 99 35.5t40 91.5t-37 90.5t-102 34.5q-68 0 -107 -34.5t-39 -90.5t42 -91.5t104 -35.5z" />
    <glyph glyph-name="uni2079" unicode="&#x2079;" horiz-adv-x="686" 
d="M309 788q-146 0 -229 103l65 72q67 -80 162 -80q92 0 139.5 77.5t49.5 194.5h-2q-21 -53 -73 -83t-112 -30q-96 0 -164.5 66t-68.5 168q0 107 74 178.5t190 71.5q117 0 191.5 -81t74.5 -253q0 -111 -31 -200.5t-99.5 -146.5t-166.5 -57zM328 1122q65 0 108 47.5t43 114.5
t-42.5 108.5t-102.5 41.5q-64 0 -107 -44t-43 -112q0 -67 41 -111.5t103 -44.5z" />
    <glyph glyph-name="uni2080" unicode="&#x2080;" horiz-adv-x="696" 
d="M348 -285q-121 0 -195.5 102.5t-74.5 264.5q0 164 74.5 267.5t195.5 103.5q122 0 197.5 -103.5t75.5 -267.5q0 -162 -75.5 -264.5t-197.5 -102.5zM348 -180q69 0 110.5 69t41.5 193t-41.5 194t-110.5 70t-110 -70t-41 -194t41 -193t110 -69z" />
    <glyph glyph-name="uni2081" unicode="&#x2081;" horiz-adv-x="450" 
d="M315 -270h-112v516q-54 -67 -154 -84v112q71 19 114.5 64t43.5 100h108v-708z" />
    <glyph glyph-name="uni2082" unicode="&#x2082;" horiz-adv-x="643" 
d="M563 -270h-479v12q4 64 16.5 108t44.5 82.5t67 66t103 73.5q26 19 41 30.5t38.5 35t35.5 49.5t12 55q0 47 -33 77.5t-87 30.5q-66 0 -108 -45.5t-42 -118.5l-102 17q0 110 71.5 180t182.5 70q102 0 169.5 -59t67.5 -152q0 -70 -36 -120t-99 -93q-17 -13 -50.5 -34.5
t-51 -34.5t-39.5 -33t-34.5 -42t-19.5 -49h332v-106z" />
    <glyph glyph-name="uni2083" unicode="&#x2083;" horiz-adv-x="651" 
d="M319 -285q-95 0 -166.5 45t-93.5 117l99 49q21 -54 62.5 -84t98.5 -30q60 0 99 32t39 88q0 55 -41 86t-111 31h-69v82h73q60 0 96.5 31.5t36.5 81.5t-37 80t-92 30q-54 0 -91 -32t-46 -89l-100 23q10 86 79.5 141.5t166.5 55.5q98 0 164.5 -51.5t66.5 -135.5
q0 -57 -31.5 -104t-83.5 -60q59 -12 98 -58t39 -110q0 -89 -69 -154t-187 -65z" />
    <glyph glyph-name="uni2084" unicode="&#x2084;" horiz-adv-x="663" 
d="M502 -270h-109v157h-346v97l348 454h107v-456h98v-95h-98v-157zM393 289l-235 -307h235v307z" />
    <glyph glyph-name="uni2085" unicode="&#x2085;" horiz-adv-x="651" 
d="M315 -285q-93 0 -165.5 43.5t-98.5 118.5l99 49q21 -54 66 -84t99 -30q63 0 105.5 41.5t42.5 105.5t-40 103.5t-101 39.5q-94 0 -138 -79l-92 26l82 389h367v-94h-287l-47 -221q22 30 65 46.5t88 16.5q90 0 156 -59.5t66 -165.5q0 -110 -77.5 -178t-189.5 -68z" />
    <glyph glyph-name="uni2086" unicode="&#x2086;" horiz-adv-x="679" 
d="M348 -285q-122 0 -196 88t-74 242q0 178 93.5 293t240.5 115q109 0 178 -66l-62 -76q-51 43 -122 43q-92 0 -152 -70.5t-66 -199.5h5q19 49 70.5 77.5t109.5 28.5q96 0 165.5 -65t69.5 -166q0 -105 -74 -174.5t-186 -69.5zM352 -188q61 0 104.5 42t43.5 107
q0 63 -43 105.5t-103 42.5q-64 0 -105.5 -43.5t-41.5 -106.5t42.5 -105t102.5 -42z" />
    <glyph glyph-name="uni2087" unicode="&#x2087;" horiz-adv-x="565" 
d="M270 -270h-118q0 140 70 320.5t184 297.5h-367v96h498v-100q-122 -108 -194.5 -286.5t-72.5 -327.5z" />
    <glyph glyph-name="uni2088" unicode="&#x2088;" horiz-adv-x="667" 
d="M334 -285q-116 0 -188 59.5t-72 147.5q0 67 38.5 115.5t92.5 62.5v2q-101 51 -101 154q0 85 66 141t164 56q97 0 163 -55.5t66 -141.5q0 -48 -25 -89.5t-77 -64.5v-2q58 -16 95.5 -63.5t37.5 -112.5q0 -90 -72 -149.5t-188 -59.5zM336 141q52 0 87.5 33.5t35.5 83.5
q0 47 -35.5 77t-87.5 30q-55 0 -90 -30.5t-35 -76.5q0 -50 35 -83.5t90 -33.5zM336 -186q59 0 99 35.5t40 91.5t-37 90.5t-102 34.5q-68 0 -107 -34.5t-39 -90.5t42 -91.5t104 -35.5z" />
    <glyph glyph-name="uni2089" unicode="&#x2089;" horiz-adv-x="686" 
d="M309 -285q-146 0 -229 103l65 71q66 -79 162 -79q92 0 139.5 77.5t49.5 194.5h-2q-21 -53 -73 -83t-112 -30q-96 0 -164.5 66t-68.5 168q0 107 74 178.5t190 71.5q117 0 191.5 -81t74.5 -253q0 -111 -31 -200.5t-99.5 -146.5t-166.5 -57zM328 49q65 0 108 47.5t43 114.5
t-42 108t-103 41q-64 0 -107 -43.5t-43 -111.5q0 -67 41 -111.5t103 -44.5z" />
    <glyph glyph-name="Euro" unicode="&#x20ac;" horiz-adv-x="1628" 
d="M1442 229l94 -104q-189 -160 -473 -160q-287 0 -475 155.5t-246 420.5h-223v106h205q-7 68 -7 123q0 49 7 117h-205v106h221q27 129 86 236t146.5 187t209.5 124.5t267 44.5q288 0 471 -160l-105 -106q-150 131 -371 131q-216 0 -359 -123t-191 -334h665v-106h-684
q-6 -56 -6 -115q0 -73 8 -125h682v-106h-663q54 -210 200.5 -325.5t362.5 -115.5q228 0 383 129z" />
    <glyph glyph-name="trademark" unicode="&#x2122;" horiz-adv-x="1558" 
d="M399 938h-100v584h-223v94h542v-94h-219v-584zM836 938h-101v678h99q113 -263 225 -526q23 54 101.5 240.5t121.5 285.5h98v-678h-100v457q-31 -76 -93 -223.5t-91 -219.5h-76q-29 71 -91 220t-93 225v-459z" />
    <glyph glyph-name="oneeighth" unicode="&#x215b;" horiz-adv-x="1411" 
d="M315 803h-112v516q-54 -67 -154 -84v113q71 19 114.5 63.5t43.5 99.5h108v-708zM102 0h-131l1139 1468h123zM1077 -29q-116 0 -188 59.5t-72 147.5q0 67 38.5 115.5t92.5 62.5v2q-100 51 -100 154q0 85 65.5 141t163.5 56q97 0 163.5 -55.5t66.5 -141.5
q0 -48 -25.5 -89.5t-77.5 -64.5v-2q58 -16 95.5 -63.5t37.5 -112.5q0 -90 -72 -149.5t-188 -59.5zM1079 397q52 0 87.5 33.5t35.5 83.5q0 47 -35.5 77t-87.5 30q-55 0 -90 -30.5t-35 -76.5q0 -50 35 -83.5t90 -33.5zM1079 70q60 0 100 35.5t40 91.5t-37.5 90.5t-102.5 34.5
q-68 0 -106.5 -34.5t-38.5 -90.5t41.5 -91.5t103.5 -35.5z" />
    <glyph glyph-name="threeeighths" unicode="&#x215c;" horiz-adv-x="1611" 
d="M319 788q-95 0 -166.5 45t-93.5 117l99 49q21 -54 62.5 -84t98.5 -30q60 0 99 32.5t39 88.5q0 55 -41 85.5t-111 30.5h-69v82h73q60 0 96.5 31.5t36.5 81.5t-37 80t-92 30t-91.5 -32t-45.5 -88l-100 22q10 86 79.5 141.5t166.5 55.5q98 0 164.5 -51.5t66.5 -135.5
q0 -57 -31 -103.5t-84 -59.5q59 -12 98 -58t39 -110q0 -89 -69 -154.5t-187 -65.5zM303 0h-131l1139 1468h123zM1278 -29q-116 0 -188 59.5t-72 147.5q0 67 38.5 115.5t92.5 62.5v2q-100 51 -100 154q0 85 65.5 141t163.5 56q97 0 163 -55.5t66 -141.5q0 -48 -25 -89.5
t-77 -64.5v-2q58 -16 95.5 -63.5t37.5 -112.5q0 -90 -72 -149.5t-188 -59.5zM1280 397q52 0 87.5 33.5t35.5 83.5q0 47 -35.5 77t-87.5 30q-55 0 -90 -30.5t-35 -76.5q0 -50 35 -83.5t90 -33.5zM1280 70q59 0 99 35.5t40 91.5t-37 90.5t-102 34.5q-68 0 -106.5 -34.5
t-38.5 -90.5t41.5 -91.5t103.5 -35.5z" />
    <glyph glyph-name="fiveeighths" unicode="&#x215d;" horiz-adv-x="1611" 
d="M315 788q-93 0 -165.5 43.5t-98.5 118.5l99 49q21 -54 66 -84t99 -30q63 0 105.5 41.5t42.5 105.5t-40 104t-101 40q-94 0 -138 -80l-92 26l82 389h367v-94h-287l-47 -221q22 30 65 47t88 17q90 0 156 -60t66 -166q0 -110 -77.5 -178t-189.5 -68zM303 0h-131l1139 1468
h123zM1278 -29q-116 0 -188 59.5t-72 147.5q0 67 38.5 115.5t92.5 62.5v2q-100 51 -100 154q0 85 65.5 141t163.5 56q97 0 163 -55.5t66 -141.5q0 -48 -25 -89.5t-77 -64.5v-2q58 -16 95.5 -63.5t37.5 -112.5q0 -90 -72 -149.5t-188 -59.5zM1280 397q52 0 87.5 33.5
t35.5 83.5q0 47 -35.5 77t-87.5 30q-55 0 -90 -30.5t-35 -76.5q0 -50 35 -83.5t90 -33.5zM1280 70q59 0 99 35.5t40 91.5t-37 90.5t-102 34.5q-68 0 -106.5 -34.5t-38.5 -90.5t41.5 -91.5t103.5 -35.5z" />
    <glyph glyph-name="seveneighths" unicode="&#x215e;" horiz-adv-x="1525" 
d="M270 803h-118q0 140 70 320.5t184 297.5h-367v97h498v-101q-122 -108 -194.5 -286.5t-72.5 -327.5zM217 0h-131l1139 1468h123zM1192 -29q-116 0 -188 59.5t-72 147.5q0 67 38.5 115.5t92.5 62.5v2q-100 51 -100 154q0 85 65.5 141t163.5 56q97 0 163 -55.5t66 -141.5
q0 -48 -25 -89.5t-77 -64.5v-2q58 -16 95.5 -63.5t37.5 -112.5q0 -90 -72 -149.5t-188 -59.5zM1194 397q52 0 87.5 33.5t35.5 83.5q0 47 -35.5 77t-87.5 30q-55 0 -90 -30.5t-35 -76.5q0 -50 35 -83.5t90 -33.5zM1194 70q59 0 99 35.5t40 91.5t-37 90.5t-102 34.5
q-68 0 -106.5 -34.5t-38.5 -90.5t41.5 -91.5t103.5 -35.5z" />
    <glyph glyph-name="arrowleft" unicode="&#x2190;" horiz-adv-x="1421" 
d="M317 709h981v-129h-979l293 -344h-155l-340 405v8l340 406h155z" />
    <glyph glyph-name="arrowup" unicode="&#x2191;" horiz-adv-x="989" 
d="M500 1202l405 -340v-155l-344 292v-979h-131v979l-344 -292v155l406 340h8z" />
    <glyph glyph-name="arrowright" unicode="&#x2192;" horiz-adv-x="1421" 
d="M811 1055h156l340 -406v-8l-340 -405h-156l293 344h-979v129h981z" />
    <glyph glyph-name="arrowdown" unicode="&#x2193;" horiz-adv-x="993" 
d="M561 1202v-981l344 295v-156l-405 -340h-8l-406 340v156l346 -295v981h129z" />
    <glyph glyph-name="arrowboth" unicode="&#x2194;" horiz-adv-x="1779" 
d="M608 231h-155l-340 406v8l340 406h155l-297 -346h1157l-297 346h156l340 -406v-8l-340 -406h-156l295 347h-1153z" />
    <glyph glyph-name="arrowupdn" unicode="&#x2195;" horiz-adv-x="1085" 
d="M547 2h-8l-406 334v147l346 -284v993l-346 -289v152l406 331h8l405 -331v-152l-344 287v-991l344 284v-147z" />
    <glyph glyph-name="uni2196" unicode="&#x2196;" horiz-adv-x="1040" 
d="M444 991l490 -850l-111 -63l-491 850l-150 -428l-78 135l181 495l8 5l520 -91l78 -135z" />
    <glyph glyph-name="uni2197" unicode="&#x2197;" horiz-adv-x="1040" 
d="M756 1130l180 -495l-78 -135l-151 426l-490 -848l-113 63l492 850l-446 -82l77 135l521 91z" />
    <glyph glyph-name="uni2198" unicode="&#x2198;" horiz-adv-x="1038" 
d="M705 295l151 426l78 -135l-180 -496l-9 -4l-520 90l-78 135l447 -82l-492 850l113 64z" />
    <glyph glyph-name="uni2199" unicode="&#x2199;" horiz-adv-x="1038" 
d="M823 1143l111 -64l-490 -850l447 82l-78 -135l-520 -90l-8 4l-181 496l78 135l150 -428z" />
    <glyph glyph-name="emptyset" unicode="&#x2205;" horiz-adv-x="1421" 
d="M1229 1196l-125 -176q90 -82 139 -199t49 -254q0 -169 -72.5 -306t-205.5 -216.5t-303 -79.5q-164 0 -301 78l-125 -176l-92 65l126 179q-91 82 -140.5 199.5t-49.5 256.5q0 169 72.5 305t206.5 214.5t305 78.5q164 0 301 -78l123 175zM270 565q0 -208 129 -340l535 752
q-95 59 -221 59q-194 0 -318.5 -136t-124.5 -335zM713 96q127 0 228 62t155.5 169t54.5 238q0 208 -129 340l-533 -751q99 -58 224 -58z" />
    <glyph glyph-name="minus" unicode="&#x2212;" horiz-adv-x="1007" 
d="M868 563h-729v123h729v-123z" />
    <glyph glyph-name="infinity" unicode="&#x221e;" horiz-adv-x="1841" 
d="M489 287q-152 0 -254 95.5t-102 242.5q0 145 104.5 241.5t251.5 96.5q103 0 193 -57.5t238 -203.5q152 147 241 204t191 57q152 0 254 -95.5t102 -242.5t-102 -242.5t-254 -95.5q-104 0 -193.5 57t-236.5 203q-146 -146 -237 -203t-196 -57zM485 399q34 0 67 9.5t58 22
t58.5 38t54 44t59.5 55.5t62 57q-20 18 -62 57.5t-60.5 56t-53 43t-58.5 38t-57.5 21t-67.5 9.5q-101 0 -162 -61t-61 -164q0 -105 62 -165.5t161 -60.5zM1358 399q97 0 158 60.5t61 165.5q0 103 -59.5 164t-159.5 61q-34 0 -67.5 -9.5t-58 -21t-58.5 -38t-53.5 -43.5
t-61 -55.5t-62.5 -57.5q22 -19 61.5 -56t60 -55.5t54.5 -44.5t59 -38.5t58.5 -22t67.5 -9.5z" />
    <glyph glyph-name="approxequal" unicode="&#x2248;" horiz-adv-x="1064" 
d="M279 723h-121q0 123 68 190.5t163 67.5q42 0 78.5 -14.5t62.5 -34.5t50 -40.5t51.5 -35t56.5 -14.5q98 0 98 137h123q0 -127 -60 -192.5t-157 -65.5q-43 0 -80.5 14.5t-63.5 35.5t-50.5 41.5t-52.5 35t-58 14.5q-54 0 -81 -39.5t-27 -99.5zM279 303h-121q0 123 68 189.5
t163 66.5q42 0 78.5 -14t62.5 -34t50 -40.5t51.5 -34.5t56.5 -14q98 0 98 137h123q0 -127 -60 -192.5t-157 -65.5q-43 0 -80.5 14.5t-63.5 34.5t-50.5 40.5t-52.5 35t-58 14.5q-54 0 -81 -39t-27 -98z" />
    <glyph glyph-name="notequal" unicode="&#x2260;" horiz-adv-x="1044" 
d="M887 891v-123h-248l-107 -295h355v-123h-398l-65 -182h-119l66 182h-215v123h258l108 295h-366v123h409l62 172h118l-61 -172h203z" />
    <glyph glyph-name="lessequal" unicode="&#x2264;" horiz-adv-x="1038" 
d="M877 346h-719v107h473l-473 178v125l719 180v-119l-560 -137l560 -225v-109z" />
    <glyph glyph-name="greaterequal" unicode="&#x2265;" horiz-adv-x="1038" 
d="M881 346h-719v109l559 225l-559 137v119l717 -180v-125l-473 -178h475v-107z" />
    <glyph glyph-name="lozenge" unicode="&#x25ca;" horiz-adv-x="1157" 
d="M623 0h-91l-413 694l413 692h91l415 -692zM260 694l315 -534h7l315 534l-315 533h-7z" />
    <glyph glyph-name="A.ss01" horiz-adv-x="1523" 
d="M190 0h-157l610 1597h238l610 -1597h-156q-83 219 -205 559h-733q-39 -106 -109.5 -296.5t-97.5 -262.5zM444 690h639q-184 496 -276 742h-82q-41 -111 -136.5 -360t-144.5 -382z" />
    <glyph glyph-name="Aacute.ss01" horiz-adv-x="1523" 
d="M1143 2044l-340 -324h-127l260 324h207zM190 0h-157l610 1597h238l610 -1597h-156q-83 219 -205 559h-733q-39 -106 -109.5 -296.5t-97.5 -262.5zM444 690h639q-184 496 -276 742h-82q-41 -111 -136.5 -360t-144.5 -382z" />
    <glyph glyph-name="Abreve.ss01" horiz-adv-x="1523" 
d="M760 1726q-84 0 -156 29t-118.5 75.5t-73.5 103.5t-29 116h125q5 -82 77 -147.5t175 -65.5t175.5 65.5t78.5 147.5h125q-3 -59 -30.5 -116t-74 -103.5t-118.5 -75.5t-156 -29zM190 0h-157l610 1597h238l610 -1597h-156q-83 219 -205 559h-733q-39 -106 -109.5 -296.5
t-97.5 -262.5zM444 690h639q-184 496 -276 742h-82q-41 -111 -136.5 -360t-144.5 -382z" />
    <glyph glyph-name="Acircumflex.ss01" horiz-adv-x="1523" 
d="M846 2028l268 -308h-129q-132 122 -225 217q-67 -68 -228 -217h-126l268 308h172zM190 0h-157l610 1597h238l610 -1597h-156q-83 219 -205 559h-733q-39 -106 -109.5 -296.5t-97.5 -262.5zM444 690h639q-184 496 -276 742h-82q-41 -111 -136.5 -360t-144.5 -382z" />
    <glyph glyph-name="Adieresis.ss01" horiz-adv-x="1523" 
d="M561 1784q-46 0 -77 32.5t-31 79.5q0 43 31.5 75t76.5 32t77 -32t32 -75q0 -47 -31.5 -79.5t-77.5 -32.5zM958 1784q-47 0 -77.5 32t-30.5 80q0 44 31 75.5t77 31.5q44 0 75.5 -32t31.5 -75q0 -47 -31.5 -79.5t-75.5 -32.5zM190 0h-157l610 1597h238l610 -1597h-156
q-83 219 -205 559h-733q-39 -106 -109.5 -296.5t-97.5 -262.5zM444 690h639q-184 496 -276 742h-82q-41 -111 -136.5 -360t-144.5 -382z" />
    <glyph glyph-name="Agrave.ss01" horiz-adv-x="1523" 
d="M852 1720h-127l-340 324h207zM190 0h-157l610 1597h238l610 -1597h-156q-83 219 -205 559h-733q-39 -106 -109.5 -296.5t-97.5 -262.5zM444 690h639q-184 496 -276 742h-82q-41 -111 -136.5 -360t-144.5 -382z" />
    <glyph glyph-name="Amacron.ss01" horiz-adv-x="1523" 
d="M1096 1829h-672v117h672v-117zM190 0h-157l610 1597h238l610 -1597h-156q-83 219 -205 559h-733q-39 -106 -109.5 -296.5t-97.5 -262.5zM444 690h639q-184 496 -276 742h-82q-41 -111 -136.5 -360t-144.5 -382z" />
    <glyph glyph-name="Aogonek.ss01" horiz-adv-x="1523" 
d="M1464 -365q39 0 88 15v-99q-55 -14 -100 -14q-117 0 -194.5 62.5t-77.5 171.5q0 137 159 229h-4q-83 219 -205 559h-733q-39 -106 -109.5 -296.5t-97.5 -262.5h-157l610 1597h238l610 -1597h-29q-176 -83 -176 -209q0 -69 50.5 -112.5t127.5 -43.5zM444 690h639
q-184 496 -276 742h-82q-41 -111 -136.5 -360t-144.5 -382z" />
    <glyph glyph-name="Aring.ss01" horiz-adv-x="1523" 
d="M760 1714q-98 0 -163 63t-65 158q0 94 65 156.5t163 62.5q96 0 160.5 -62t64.5 -157q0 -96 -64.5 -158.5t-160.5 -62.5zM760 1810q55 0 91 34t36 91q0 55 -36 88t-91 33q-58 0 -94.5 -33t-36.5 -88q0 -58 36.5 -91.5t94.5 -33.5zM190 0h-157l610 1597h238l610 -1597h-156
q-83 219 -205 559h-733q-39 -106 -109.5 -296.5t-97.5 -262.5zM444 690h639q-184 496 -276 742h-82q-41 -111 -136.5 -360t-144.5 -382z" />
    <glyph glyph-name="Atilde.ss01" horiz-adv-x="1523" 
d="M913 1747q-17 0 -31.5 1.5t-28.5 7t-22.5 8.5t-22.5 12.5t-19 13t-20 16t-19 15.5l-39 32q-22 19 -31 26t-29 16.5t-39 9.5q-48 0 -77 -40t-29 -102h-105q2 110 60.5 180t150.5 70q69 0 150 -67l43 -37q63 -54 108 -54q46 0 72.5 40.5t26.5 103.5h104
q0 -117 -53.5 -184.5t-149.5 -67.5zM190 0h-157l610 1597h238l610 -1597h-156q-83 219 -205 559h-733q-39 -106 -109.5 -296.5t-97.5 -262.5zM444 690h639q-184 496 -276 742h-82q-41 -111 -136.5 -360t-144.5 -382z" />
    <glyph glyph-name="B.ss01" horiz-adv-x="1460" 
d="M858 0h-643v1597h573q120 0 218 -34t160.5 -91.5t96 -132t33.5 -157.5q0 -80 -28.5 -151t-95 -131t-162.5 -85v-4q166 -31 253 -137.5t87 -245.5q0 -186 -142.5 -307t-349.5 -121zM362 868h404q174 0 275.5 81t101.5 212q0 137 -110.5 220t-280.5 83h-390v-596zM362 133
h451q173 0 277 82.5t104 214.5q0 137 -110 223t-285 86h-437v-606z" />
    <glyph glyph-name="C.ss01" horiz-adv-x="1720" 
d="M915 -35q-234 0 -417.5 105t-286 293.5t-102.5 429.5q0 149 40.5 281t113.5 232.5t171.5 174t219 111.5t251.5 38q113 0 221 -29.5t203 -85.5t169 -146.5t112 -205.5l-133 -53q-71 180 -225 281.5t-345 101.5q-130 0 -246.5 -48.5t-204.5 -136.5t-140 -222t-52 -295
q0 -169 57 -303.5t152 -217t212 -125.5t245 -43q121 0 225 38.5t178.5 106t126 153t80.5 186.5l131 -47q-38 -125 -104.5 -228.5t-159.5 -181.5t-219 -121t-273 -43z" />
    <glyph glyph-name="D.ss01" horiz-adv-x="1648" 
d="M797 0h-582v1597h563q156 0 283 -40.5t214.5 -112t146.5 -171.5t86.5 -216t27.5 -248q0 -238 -87 -420t-255.5 -285.5t-396.5 -103.5zM362 133h443q265 0 421 178t156 486q0 317 -169.5 492t-467.5 175h-383v-1331z" />
    <glyph glyph-name="E.ss01" horiz-adv-x="1347" 
d="M1241 0h-1026v1597h1006v-133h-859v-575h818v-137h-818v-613h879v-139z" />
    <glyph glyph-name="F.ss01" horiz-adv-x="1271" 
d="M1200 1597v-139h-838v-586h797v-135h-797v-737h-147v1597h985z" />
    <glyph glyph-name="G.ss01" horiz-adv-x="1757" 
d="M911 -35q-237 0 -420.5 107t-282.5 294.5t-99 424.5q0 186 62.5 344t170 266t253.5 168.5t310 60.5q114 0 222 -29t203 -85.5t168.5 -147t111.5 -205.5l-133 -53q-71 181 -225 282t-345 101q-129 0 -245.5 -48t-205 -136t-140.5 -221.5t-52 -294.5q0 -311 185.5 -501
t486.5 -190q262 0 413.5 147.5t170.5 403.5h-562v127h701v-49q0 -158 -40.5 -287t-110.5 -217t-166 -148t-204 -87t-227 -27z" />
    <glyph glyph-name="H.ss01" horiz-adv-x="1656" 
d="M1294 872v725h146v-1597h-146v737h-932v-737h-147v1597h147v-725h932z" />
    <glyph glyph-name="I.ss01" horiz-adv-x="1107" 
d="M1026 0h-944v133h399v1331h-409v133h964v-133h-409v-1331h399v-133z" />
    <glyph glyph-name="Iacute.ss01" horiz-adv-x="1107" 
d="M930 2044l-338 -324h-127l260 324h205zM1026 0h-944v133h399v1331h-409v133h964v-133h-409v-1331h399v-133z" />
    <glyph glyph-name="Icircumflex.ss01" horiz-adv-x="1107" 
d="M641 2028l268 -308h-129q-132 122 -225 217q-75 -77 -227 -217h-127l268 308h172zM1026 0h-944v133h399v1331h-409v133h964v-133h-409v-1331h399v-133z" />
    <glyph glyph-name="Idieresis.ss01" horiz-adv-x="1107" 
d="M356 1784q-46 0 -77 32.5t-31 79.5q0 43 31.5 75t76.5 32t77 -32t32 -75q0 -47 -31.5 -79.5t-77.5 -32.5zM754 1784q-47 0 -78 32t-31 80q0 44 31.5 75.5t77.5 31.5q44 0 75 -32t31 -75q0 -47 -31 -79.5t-75 -32.5zM1026 0h-944v133h399v1331h-409v133h964v-133h-409
v-1331h399v-133z" />
    <glyph glyph-name="Idotaccent.ss01" horiz-adv-x="1107" 
d="M555 1786q-49 0 -82 33.5t-33 83.5q0 46 33 79t82 33q47 0 80 -33t33 -79q0 -49 -33 -83t-80 -34zM1026 0h-944v133h399v1331h-409v133h964v-133h-409v-1331h399v-133z" />
    <glyph glyph-name="Igrave.ss01" horiz-adv-x="1107" 
d="M647 1720h-127l-340 324h207zM1026 0h-944v133h399v1331h-409v133h964v-133h-409v-1331h399v-133z" />
    <glyph glyph-name="Imacron.ss01" horiz-adv-x="1107" 
d="M891 1829h-672v117h672v-117zM1026 0h-944v133h399v1331h-409v133h964v-133h-409v-1331h399v-133z" />
    <glyph glyph-name="J.ss01" horiz-adv-x="1204" 
d="M551 -35q-74 0 -140.5 15.5t-130.5 54.5t-110.5 98.5t-75 153.5t-28.5 213v26l139 19v-25q0 -96 21 -171t54.5 -121t79 -75.5t90.5 -41t93 -11.5q152 0 233.5 109.5t81.5 294.5v960h-551v133h699v-1052q0 -30 -0.5 -51t-4.5 -68.5t-11.5 -83.5t-23.5 -86.5t-38 -88
t-57 -77.5t-79 -66t-106 -42.5t-135 -16.5z" />
    <glyph glyph-name="K.ss01" horiz-adv-x="1366" 
d="M362 0h-147v1597h147v-731h5q402 374 782 731h192q-156 -149 -447.5 -421.5t-412.5 -387.5q102 -90 281.5 -249t329.5 -291.5t282 -247.5h-203l-809 696v-696z" />
    <glyph glyph-name="L.ss01" horiz-adv-x="1212" 
d="M362 1597v-1458h818v-139h-965v1597h147z" />
    <glyph glyph-name="M.ss01" horiz-adv-x="1927" 
d="M1538 1597h174v-1597h-147v1352l-539 -1006h-125l-539 1006v-1352h-147v1597h174q250 -447 574 -1071h4q315 613 571 1071z" />
    <glyph glyph-name="N.ss01" horiz-adv-x="1689" 
d="M362 0h-147v1597h211l858 -1364h43v1364h148v-1597h-209l-856 1350h-48v-1350z" />
    <glyph glyph-name="O.ss01" horiz-adv-x="1816" 
d="M907 -35q-162 0 -309.5 63t-255.5 172t-172 264.5t-64 332.5t63.5 332.5t172 265t256 172.5t311.5 63q166 0 315 -65t255.5 -176t168.5 -265.5t62 -326.5q0 -174 -63 -329t-170.5 -265t-256 -174t-313.5 -64zM911 102q128 0 245 53t204.5 144t139.5 221t52 277
t-51.5 277.5t-139 221.5t-205 144t-245.5 53q-129 0 -247.5 -52.5t-206.5 -143.5t-140.5 -221.5t-52.5 -278.5t52.5 -278t140.5 -221t206.5 -143.5t247.5 -52.5z" />
    <glyph glyph-name="P.ss01" horiz-adv-x="1368" 
d="M215 1597h561q147 0 264 -53.5t188.5 -162.5t71.5 -257q0 -118 -42 -213.5t-112 -154t-156.5 -90t-180.5 -31.5h-447v-635h-147v1597zM362 772h402q177 0 280 89t103 255q0 165 -109.5 256.5t-287.5 91.5h-388v-692z" />
    <glyph glyph-name="Q.ss01" horiz-adv-x="1828" 
d="M539 -246v-4h1024v-127h-1315l342 406q-219 91 -348 292.5t-129 475.5q0 184 61 340t167.5 264t254.5 168.5t319 60.5q173 0 322 -62.5t254 -172t165 -264.5t60 -334q0 -181 -60.5 -335.5t-167 -263t-255 -170t-320.5 -61.5q-90 0 -180 19zM264 797q0 -239 115.5 -412
t306.5 -242l363 430l106 -84q-276 -331 -319 -383q54 -4 82 -4q135 0 253.5 50t205.5 139.5t137.5 220.5t50.5 285t-50.5 285.5t-137.5 221.5t-205.5 140.5t-253.5 50.5q-136 0 -256 -50.5t-208 -140t-139 -221t-51 -286.5z" />
    <glyph glyph-name="R.ss01" horiz-adv-x="1417" 
d="M567 637l785 -637h-197l-786 637h-7v-637h-147v1597h561q147 0 264 -53.5t188.5 -162.5t71.5 -257q0 -117 -42 -212t-111.5 -154t-156.5 -90t-181 -31h-242zM750 1470h-388v-702h402q185 0 284 93t99 257q0 163 -106.5 257.5t-290.5 94.5z" />
    <glyph glyph-name="S.ss01" horiz-adv-x="1320" 
d="M680 -35q-93 0 -181 25t-171 77.5t-148 146.5t-98 220l135 49q49 -186 175 -284.5t292 -98.5q70 0 135.5 18.5t122 54.5t91 98t34.5 141q0 47 -12 85.5t-36 66.5t-50 48.5t-65 37t-69.5 27.5t-74.5 24q-22 7 -33 10l-149 47q-44 14 -75.5 25t-81 33.5t-85 45t-75.5 58
t-65 75t-42 94t-17 115.5q0 103 44.5 186t119 134.5t165.5 78.5t189 27q192 0 335 -100.5t194 -282.5l-131 -53q-45 139 -153 220t-259 81q-149 0 -249.5 -77.5t-100.5 -203.5q0 -44 14.5 -82.5t34 -66.5t53.5 -54.5t59 -41.5t66.5 -32t59 -23t51.5 -17l155 -51
q151 -48 203 -72q184 -85 225 -238q13 -48 13 -104q0 -138 -75.5 -246t-199 -164.5t-270.5 -56.5z" />
    <glyph glyph-name="U.ss01" horiz-adv-x="1560" 
d="M758 -35q-271 0 -416 165.5t-145 449.5v1017h145v-1009q0 -240 111 -364t315 -124q203 0 316.5 125t113.5 363v1009h145v-1597h-143v201h-2q-67 -123 -174.5 -179.5t-265.5 -56.5z" />
    <glyph glyph-name="Uacute.ss01" horiz-adv-x="1560" 
d="M1104 2044l-338 -324h-127l260 324h205zM758 -35q-271 0 -416 165.5t-145 449.5v1017h145v-1009q0 -240 111 -364t315 -124q203 0 316.5 125t113.5 363v1009h145v-1597h-143v201h-2q-67 -123 -174.5 -179.5t-265.5 -56.5z" />
    <glyph glyph-name="Ucircumflex.ss01" horiz-adv-x="1560" 
d="M848 2028l268 -308h-129q-132 122 -225 217q-75 -77 -227 -217h-127l268 308h172zM758 -35q-271 0 -416 165.5t-145 449.5v1017h145v-1009q0 -240 111 -364t315 -124q203 0 316.5 125t113.5 363v1009h145v-1597h-143v201h-2q-67 -123 -174.5 -179.5t-265.5 -56.5z" />
    <glyph glyph-name="Udieresis.ss01" horiz-adv-x="1560" 
d="M563 1784q-46 0 -77 32.5t-31 79.5q0 43 31.5 75t76.5 32t77 -32t32 -75q0 -47 -31.5 -79.5t-77.5 -32.5zM961 1784q-47 0 -78 32t-31 80q0 44 31.5 75.5t77.5 31.5q44 0 75 -32t31 -75q0 -47 -31 -79.5t-75 -32.5zM758 -35q-271 0 -416 165.5t-145 449.5v1017h145v-1009
q0 -240 111 -364t315 -124q203 0 316.5 125t113.5 363v1009h145v-1597h-143v201h-2q-67 -123 -174.5 -179.5t-265.5 -56.5z" />
    <glyph glyph-name="Ugrave.ss01" horiz-adv-x="1560" 
d="M856 1720h-127l-340 324h207zM758 -35q-271 0 -416 165.5t-145 449.5v1017h145v-1009q0 -240 111 -364t315 -124q203 0 316.5 125t113.5 363v1009h145v-1597h-143v201h-2q-67 -123 -174.5 -179.5t-265.5 -56.5z" />
    <glyph glyph-name="Uhungarumlaut.ss01" horiz-adv-x="1560" 
d="M909 2044l-278 -324h-125l213 324h190zM1235 2044l-297 -324h-123l229 324h191zM758 -35q-271 0 -416 165.5t-145 449.5v1017h145v-1009q0 -240 111 -364t315 -124q203 0 316.5 125t113.5 363v1009h145v-1597h-143v201h-2q-67 -123 -174.5 -179.5t-265.5 -56.5z" />
    <glyph glyph-name="Umacron.ss01" horiz-adv-x="1560" 
d="M1100 1829h-672v117h672v-117zM758 -35q-271 0 -416 165.5t-145 449.5v1017h145v-1009q0 -240 111 -364t315 -124q203 0 316.5 125t113.5 363v1009h145v-1597h-143v201h-2q-67 -123 -174.5 -179.5t-265.5 -56.5z" />
    <glyph glyph-name="Uogonek.ss01" horiz-adv-x="1560" 
d="M1335 -365q39 0 88 15v-99q-55 -14 -100 -14q-117 0 -194.5 62.5t-77.5 171.5q0 137 159 229h-10v201h-2q-67 -123 -174.5 -179.5t-265.5 -56.5q-271 0 -416 165.5t-145 449.5v1017h145v-1009q0 -240 111 -364t315 -124q203 0 316.5 125t113.5 363v1009h145v-1597h-10
q-176 -83 -176 -209q0 -69 50.5 -112.5t127.5 -43.5z" />
    <glyph glyph-name="Uring.ss01" horiz-adv-x="1560" 
d="M764 1714q-98 0 -162.5 63t-64.5 158q0 94 64.5 156.5t162.5 62.5q96 0 160.5 -62t64.5 -157q0 -96 -64.5 -158.5t-160.5 -62.5zM764 1810q55 0 91 34t36 91q0 55 -36 88t-91 33q-58 0 -94.5 -33t-36.5 -88q0 -58 36.5 -91.5t94.5 -33.5zM758 -35q-271 0 -416 165.5
t-145 449.5v1017h145v-1009q0 -240 111 -364t315 -124q203 0 316.5 125t113.5 363v1009h145v-1597h-143v201h-2q-67 -123 -174.5 -179.5t-265.5 -56.5z" />
    <glyph glyph-name="V.ss01" horiz-adv-x="1519" 
d="M877 0h-236l-610 1597h155q335 -890 537 -1421h80q112 297 530 1421h156z" />
    <glyph glyph-name="W.ss01" horiz-adv-x="2326" 
d="M733 0h-180l-516 1597h158l446 -1402h4l391 1402h271l379 -1402h4l442 1402h158l-514 -1597h-181l-381 1436h-86z" />
    <glyph glyph-name="Wacute.ss01" horiz-adv-x="2326" 
d="M1546 2044l-340 -324h-127l260 324h207zM733 0h-180l-516 1597h158l446 -1402h4l391 1402h271l379 -1402h4l442 1402h158l-514 -1597h-181l-381 1436h-86z" />
    <glyph glyph-name="Wcircumflex.ss01" horiz-adv-x="2326" 
d="M1249 2028l269 -308h-129q-142 131 -226 217q-75 -77 -227 -217h-127l268 308h172zM733 0h-180l-516 1597h158l446 -1402h4l391 1402h271l379 -1402h4l442 1402h158l-514 -1597h-181l-381 1436h-86z" />
    <glyph glyph-name="Wdieresis.ss01" horiz-adv-x="2326" 
d="M965 1784q-46 0 -77.5 32.5t-31.5 79.5q0 43 32 75t77 32t76.5 -32t31.5 -75q0 -47 -31 -79.5t-77 -32.5zM1362 1784q-47 0 -78 32t-31 80q0 44 31.5 75.5t77.5 31.5q44 0 75 -32t31 -75q0 -47 -31 -79.5t-75 -32.5zM733 0h-180l-516 1597h158l446 -1402h4l391 1402h271
l379 -1402h4l442 1402h158l-514 -1597h-181l-381 1436h-86z" />
    <glyph glyph-name="Wgrave.ss01" horiz-adv-x="2326" 
d="M1255 1720h-127l-340 324h207zM733 0h-180l-516 1597h158l446 -1402h4l391 1402h271l379 -1402h4l442 1402h158l-514 -1597h-181l-381 1436h-86z" />
    <glyph glyph-name="X.ss01" horiz-adv-x="1411" 
d="M190 0h-163l540 811v20l-528 766h164q70 -101 143 -209.5t180.5 -272.5t141.5 -216h77q50 75 214 322.5t251 375.5h162l-526 -766v-20l538 -811h-159q-97 147 -480 741h-77q-54 -84 -151.5 -235.5t-177.5 -275t-149 -230.5z" />
    <glyph glyph-name="Y.ss01" horiz-adv-x="1396" 
d="M453 0h-152l350 590l-598 1007h162l508 -866h4l514 866h158z" />
    <glyph glyph-name="Yacute.ss01" horiz-adv-x="1396" 
d="M1104 2044l-338 -324h-127l258 324h207zM453 0h-152l350 590l-598 1007h162l508 -866h4l514 866h158z" />
    <glyph glyph-name="Ycircumflex.ss01" horiz-adv-x="1396" 
d="M811 2028l268 -308h-129q-132 122 -225 217q-75 -77 -227 -217h-127l268 308h172zM453 0h-152l350 590l-598 1007h162l508 -866h4l514 866h158z" />
    <glyph glyph-name="Ydieresis.ss01" horiz-adv-x="1396" 
d="M526 1784q-46 0 -77 32.5t-31 79.5q0 43 31.5 75t76.5 32t77 -32t32 -75q0 -47 -31.5 -79.5t-77.5 -32.5zM924 1784q-47 0 -78 32t-31 80q0 44 31.5 75.5t77.5 31.5q44 0 75 -32t31 -75q0 -47 -31 -79.5t-75 -32.5zM453 0h-152l350 590l-598 1007h162l508 -866h4l514 866
h158z" />
    <glyph glyph-name="Ygrave.ss01" horiz-adv-x="1396" 
d="M817 1720h-127l-340 324h207zM453 0h-152l350 590l-598 1007h162l508 -866h4l514 866h158z" />
    <glyph glyph-name="Z.ss01" horiz-adv-x="1392" 
d="M1311 0h-1309l1100 1464h-975v133h1241l-1094 -1458h1037v-139z" />
    <glyph glyph-name="Zacute.ss01" horiz-adv-x="1392" 
d="M1071 2044l-340 -324h-127l260 324h207zM1311 0h-1309l1100 1464h-975v133h1241l-1094 -1458h1037v-139z" />
    <glyph glyph-name="Zcaron.ss01" horiz-adv-x="1392" 
d="M913 2028h129l-268 -308h-174l-266 308h127q123 -114 227 -220q121 124 225 220zM1311 0h-1309l1100 1464h-975v133h1241l-1094 -1458h1037v-139z" />
    <glyph glyph-name="Zdotaccent.ss01" horiz-adv-x="1392" 
d="M692 1786q-49 0 -81.5 33.5t-32.5 83.5q0 46 32.5 79t81.5 33q47 0 80 -33t33 -79q0 -49 -33 -83t-80 -34zM1311 0h-1309l1100 1464h-975v133h1241l-1094 -1458h1037v-139z" />
    <glyph glyph-name="Q.ss02" horiz-adv-x="1816" 
d="M987 -31v-217h549v-129h-690v344q-152 12 -288 79t-236 175t-158 257.5t-58 318.5q0 177 63.5 332.5t172 265t256 172.5t311.5 63q166 0 315 -65t255.5 -176t168.5 -265.5t62 -326.5q0 -164 -56 -311t-152.5 -255.5t-230 -178t-284.5 -83.5zM264 797q0 -139 46 -262.5
t125 -213t185.5 -146.5t225.5 -69v480h141v-480q155 20 283.5 113t205 245t76.5 333q0 147 -51.5 277.5t-139 221.5t-205 144t-245.5 53q-129 0 -247.5 -52.5t-206.5 -143.5t-140.5 -221.5t-52.5 -278.5z" />
    <glyph glyph-name="A.ss07" 
d="M1020 -315q-197 0 -371.5 71t-298.5 193.5t-196 293.5t-72 365q0 198 72 372.5t196 298.5t298 195.5t372 71.5q200 0 375.5 -71.5t301 -195.5t197.5 -298.5t72 -372.5q0 -259 -123 -470.5t-339.5 -332t-483.5 -120.5zM971 1096l-389 -963h108q24 58 72.5 179.5
t60.5 152.5h400q92 -226 135 -332h108l-389 963h-106zM1186 559h-326q29 76 84.5 214.5t77.5 193.5q135 -340 164 -408z" />
    <glyph glyph-name="B.ss07" 
d="M1020 -315q-197 0 -371.5 71t-298.5 193.5t-196 293.5t-72 365q0 198 72 372.5t196 298.5t298 195.5t372 71.5q200 0 375.5 -71.5t301 -195.5t197.5 -298.5t72 -372.5q0 -259 -123 -470.5t-339.5 -332t-483.5 -120.5zM713 1096v-963h389q123 0 211 72.5t88 189.5
q0 85 -47.5 145.5t-130.5 84.5q67 25 108 83.5t41 133.5q0 112 -87 183t-224 71h-348zM817 664v335h223q100 0 161 -47t61 -123q0 -77 -59 -121t-154 -44h-232zM1077 229h-260v342h250q101 0 163 -49t62 -127q0 -75 -58.5 -120.5t-156.5 -45.5z" />
    <glyph glyph-name="C.ss07" 
d="M1020 -315q-197 0 -371.5 71t-298.5 193.5t-196 293.5t-72 365q0 198 72 372.5t196 298.5t298 195.5t372 71.5q200 0 375.5 -71.5t301 -195.5t197.5 -298.5t72 -372.5q0 -259 -123 -470.5t-339.5 -332t-483.5 -120.5zM1053 113q169 0 288.5 92.5t169.5 259.5l-94 33
q-32 -124 -123 -205.5t-233 -81.5q-60 0 -115.5 15t-105 47.5t-86.5 78.5t-58.5 112.5t-21.5 145.5q0 179 106 293.5t269 114.5q116 0 204 -62.5t127 -167.5l95 37q-29 95 -98.5 162.5t-153.5 98t-176 30.5q-205 0 -343.5 -142t-138.5 -362q0 -221 136 -360t352 -139z" />
    <glyph glyph-name="D.ss07" 
d="M1020 -315q-197 0 -371.5 71t-298.5 193.5t-196 293.5t-72 365q0 198 72 372.5t196 298.5t298 195.5t372 71.5q200 0 375.5 -71.5t301 -195.5t197.5 -298.5t72 -372.5q0 -259 -123 -470.5t-339.5 -332t-483.5 -120.5zM676 1096v-963h354q203 0 325 133t122 355
q0 224 -121.5 349.5t-337.5 125.5h-342zM1034 229h-254v770h217q170 0 270.5 -98t100.5 -287q0 -180 -89.5 -282.5t-244.5 -102.5z" />
    <glyph glyph-name="E.ss07" 
d="M1020 -315q-197 0 -371.5 71t-298.5 193.5t-196 293.5t-72 365q0 198 72 372.5t196 298.5t298 195.5t372 71.5q200 0 375.5 -71.5t301 -195.5t197.5 -298.5t72 -372.5q0 -259 -123 -470.5t-339.5 -332t-483.5 -120.5zM735 1096v-963h623v98h-520v349h485v96h-485v323h510
v97h-613z" />
    <glyph glyph-name="F.ss07" 
d="M1020 -315q-197 0 -371.5 71t-298.5 193.5t-196 293.5t-72 365q0 198 72 372.5t196 298.5t298 195.5t372 71.5q200 0 375.5 -71.5t301 -195.5t197.5 -298.5t72 -372.5q0 -259 -123 -470.5t-339.5 -332t-483.5 -120.5zM754 1096v-963h104v436h473v97h-473v331h498v99h-602
z" />
    <glyph glyph-name="G.ss07" 
d="M1020 -315q-197 0 -371.5 71t-298.5 193.5t-196 293.5t-72 365q0 198 72 372.5t196 298.5t298 195.5t372 71.5q200 0 375.5 -71.5t301 -195.5t197.5 -298.5t72 -372.5q0 -259 -123 -470.5t-339.5 -332t-483.5 -120.5zM1042 113q128 0 222.5 56.5t146.5 164.5l2 -201h88
v479h-432v-92h328q-14 -137 -107.5 -223t-232.5 -86q-73 0 -139.5 24.5t-122 71.5t-88.5 125.5t-33 177.5q0 179 106 293.5t269 114.5q114 0 202.5 -61.5t128.5 -168.5l95 37q-29 95 -98.5 162.5t-153.5 98t-176 30.5q-206 0 -344 -142.5t-138 -363.5q0 -218 134 -357.5
t343 -139.5z" />
    <glyph glyph-name="H.ss07" 
d="M1020 -315q-197 0 -371.5 71t-298.5 193.5t-196 293.5t-72 365q0 198 72 372.5t196 298.5t298 195.5t372 71.5q200 0 375.5 -71.5t301 -195.5t197.5 -298.5t72 -372.5q0 -259 -123 -470.5t-339.5 -332t-483.5 -120.5zM653 1096v-963h103v436h536v-436h103v963h-103v-428
h-536v428h-103z" />
    <glyph glyph-name="I.ss07" 
d="M1020 -315q-197 0 -371.5 71t-298.5 193.5t-196 293.5t-72 365q0 198 72 372.5t196 298.5t298 195.5t372 71.5q200 0 375.5 -71.5t301 -195.5t197.5 -298.5t72 -372.5q0 -259 -123 -470.5t-339.5 -332t-483.5 -120.5zM973 1096v-963h102v963h-102z" />
    <glyph glyph-name="J.ss07" 
d="M1020 -315q-197 0 -371.5 71t-298.5 193.5t-196 293.5t-72 365q0 198 72 372.5t196 298.5t298 195.5t372 71.5q200 0 375.5 -71.5t301 -195.5t197.5 -298.5t72 -372.5q0 -259 -123 -470.5t-339.5 -332t-483.5 -120.5zM989 123q56 0 101 16.5t73.5 40t48.5 62t30 69.5
t15.5 76t6 68t0.5 59v592h-103v-614q0 -40 -1.5 -68t-11.5 -70t-27 -68.5t-51.5 -46.5t-82.5 -20q-39 0 -73 11.5t-64 37t-48 73t-18 112.5v30l-98 -12v-35q0 -83 26 -145.5t70 -98t96 -52.5t111 -17z" />
    <glyph glyph-name="K.ss07" 
d="M1020 -315q-197 0 -371.5 71t-298.5 193.5t-196 293.5t-72 365q0 198 72 372.5t196 298.5t298 195.5t372 71.5q200 0 375.5 -71.5t301 -195.5t197.5 -298.5t72 -372.5q0 -259 -123 -470.5t-339.5 -332t-483.5 -120.5zM719 1096v-963h102v332q14 15 56 60.5t65 68.5
q27 -34 160 -202.5t203 -258.5h127q-347 450 -416 541q67 69 197.5 210.5t197.5 211.5h-127q-226 -238 -463 -496v496h-102z" />
    <glyph glyph-name="L.ss07" 
d="M1020 -315q-197 0 -371.5 71t-298.5 193.5t-196 293.5t-72 365q0 198 72 372.5t196 298.5t298 195.5t372 71.5q200 0 375.5 -71.5t301 -195.5t197.5 -298.5t72 -372.5q0 -259 -123 -470.5t-339.5 -332t-483.5 -120.5zM811 1096v-963h588v98h-486v865h-102z" />
    <glyph glyph-name="M.ss07" 
d="M1020 -315q-197 0 -371.5 71t-298.5 193.5t-196 293.5t-72 365q0 198 72 372.5t196 298.5t298 195.5t372 71.5q200 0 375.5 -71.5t301 -195.5t197.5 -298.5t72 -372.5q0 -259 -123 -470.5t-339.5 -332t-483.5 -120.5zM532 1096v-963h105v754q64 -145 187.5 -415.5
t154.5 -338.5h88q198 432 344 756v-756h105v963h-119q-54 -122 -115.5 -258t-140.5 -307t-117 -255q-98 223 -375 820h-117z" />
    <glyph glyph-name="N.ss07" 
d="M1020 -315q-197 0 -371.5 71t-298.5 193.5t-196 293.5t-72 365q0 198 72 372.5t196 298.5t298 195.5t372 71.5q200 0 375.5 -71.5t301 -195.5t197.5 -298.5t72 -372.5q0 -259 -123 -470.5t-339.5 -332t-483.5 -120.5zM655 1096v-963h103v785q103 -150 292 -415.5
t261 -369.5h106v963h-102v-793q-178 263 -553 793h-107z" />
    <glyph glyph-name="O.ss07" 
d="M1020 -315q-197 0 -371.5 71t-298.5 193.5t-196 293.5t-72 365q0 198 72 372.5t196 298.5t298 195.5t372 71.5q200 0 375.5 -71.5t301 -195.5t197.5 -298.5t72 -372.5q0 -259 -123 -470.5t-339.5 -332t-483.5 -120.5zM1024 113q204 0 344.5 144.5t140.5 356.5t-140 357
t-343 145q-205 0 -344 -144.5t-139 -357.5t138.5 -357t342.5 -144zM651 614q0 169 108.5 286.5t266.5 117.5q155 0 264 -117.5t109 -286.5t-109 -286t-264 -117q-157 0 -266 116.5t-109 286.5z" />
    <glyph glyph-name="P.ss07" 
d="M1020 -315q-197 0 -371.5 71t-298.5 193.5t-196 293.5t-72 365q0 198 72 372.5t196 298.5t298 195.5t372 71.5q200 0 375.5 -71.5t301 -195.5t197.5 -298.5t72 -372.5q0 -259 -123 -470.5t-339.5 -332t-483.5 -120.5zM737 1096v-963h105v377h256q120 0 209.5 78.5
t89.5 218.5q0 72 -26.5 128.5t-72 91t-101.5 52t-118 17.5h-342zM1071 606h-229v393h221q101 0 163 -50.5t62 -143.5q0 -97 -58 -148t-159 -51z" />
    <glyph glyph-name="Q.ss07" 
d="M1020 -315q-197 0 -371.5 71t-298.5 193.5t-196 293.5t-72 365q0 198 72 372.5t196 298.5t298 195.5t372 71.5q200 0 375.5 -71.5t301 -195.5t197.5 -298.5t72 -372.5q0 -259 -123 -470.5t-339.5 -332t-483.5 -120.5zM1399 63l74 64q-22 25 -66 77t-66 77q78 71 121 170
t43 211q0 138 -63.5 253.5t-174.5 181.5t-245 66q-207 0 -347 -144.5t-140 -356.5q0 -140 63.5 -255.5t175 -181t246.5 -65.5q133 0 242 65q122 -144 137 -162zM643 662q0 171 109 287t270 116q158 0 266.5 -116.5t108.5 -286.5q0 -185 -123 -302q-31 36 -91.5 109
t-90.5 109l-74 -62l174 -209q-84 -51 -170 -51q-160 0 -269.5 117t-109.5 289z" />
    <glyph glyph-name="R.ss07" 
d="M1020 -315q-197 0 -371.5 71t-298.5 193.5t-196 293.5t-72 365q0 198 72 372.5t196 298.5t298 195.5t372 71.5q200 0 375.5 -71.5t301 -195.5t197.5 -298.5t72 -372.5q0 -259 -123 -470.5t-339.5 -332t-483.5 -120.5zM741 1096v-963h105v377h203l251 -377h117
q-41 63 -126 189.5t-128 193.5q109 17 173.5 95t64.5 196q0 140 -93.5 214.5t-224.5 74.5h-342zM1075 604h-229v397h221q101 0 163 -52.5t62 -145.5q0 -97 -58 -148t-159 -51z" />
    <glyph glyph-name="S.ss07" 
d="M1020 -315q-197 0 -371.5 71t-298.5 193.5t-196 293.5t-72 365q0 198 72 372.5t196 298.5t298 195.5t372 71.5q200 0 375.5 -71.5t301 -195.5t197.5 -298.5t72 -372.5q0 -259 -123 -470.5t-339.5 -332t-483.5 -120.5zM1040 113q142 0 237 81t95 205q0 48 -16.5 86.5
t-38.5 61.5t-60 44t-63.5 30.5t-67.5 22.5q-15 5 -22 7l-92 31q-26 8 -44.5 14.5t-49 22t-50 33t-34.5 47t-15 63.5q0 69 55.5 112.5t143.5 43.5q86 0 149 -47.5t88 -132.5l93 39q-28 109 -114 174t-210 65q-80 0 -150 -28t-117.5 -89.5t-47.5 -144.5q0 -51 20 -94.5t46 -70
t67.5 -50t68.5 -34.5t66 -23l88 -27q93 -29 120 -44q75 -41 75 -126q0 -58 -34 -99t-82.5 -58t-103.5 -17q-100 0 -172 60t-98 167l-94 -35q19 -78 58.5 -136.5t90.5 -90.5t104.5 -47.5t110.5 -15.5z" />
    <glyph glyph-name="T.ss07" 
d="M1020 -315q-197 0 -371.5 71t-298.5 193.5t-196 293.5t-72 365q0 198 72 372.5t196 298.5t298 195.5t372 71.5q200 0 375.5 -71.5t301 -195.5t197.5 -298.5t72 -372.5q0 -259 -123 -470.5t-339.5 -332t-483.5 -120.5zM971 999v-866h104v866h322v97h-750v-97h324z" />
    <glyph glyph-name="U.ss07" 
d="M1020 -315q-197 0 -371.5 71t-298.5 193.5t-196 293.5t-72 365q0 198 72 372.5t196 298.5t298 195.5t372 71.5q200 0 375.5 -71.5t301 -195.5t197.5 -298.5t72 -372.5q0 -259 -123 -470.5t-339.5 -332t-483.5 -120.5zM1020 123q176 0 264 101.5t88 271.5v610h-104v-606
q0 -281 -244 -281q-246 0 -246 281v606h-102v-610q0 -172 85 -272.5t259 -100.5z" />
    <glyph glyph-name="V.ss07" 
d="M1020 -315q-197 0 -371.5 71t-298.5 193.5t-196 293.5t-72 365q0 198 72 372.5t196 298.5t298 195.5t372 71.5q200 0 375.5 -71.5t301 -195.5t197.5 -298.5t72 -372.5q0 -259 -123 -470.5t-339.5 -332t-483.5 -120.5zM584 1096l391 -963h106l389 963h-108
q-213 -534 -332 -836q-188 481 -338 836h-108z" />
    <glyph glyph-name="W.ss07" 
d="M1020 -315q-197 0 -371.5 71t-298.5 193.5t-196 293.5t-72 365q0 198 72 372.5t196 298.5t298 195.5t372 71.5q200 0 375.5 -71.5t301 -195.5t197.5 -298.5t72 -372.5q0 -259 -123 -470.5t-339.5 -332t-483.5 -120.5zM344 1096l311 -963h117q111 337 252 807
q130 -442 254 -807h115l311 963h-111q-109 -324 -258 -815q-142 444 -256 815h-110q-178 -577 -254 -815q-79 265 -258 815h-113z" />
    <glyph glyph-name="X.ss07" 
d="M1020 -315q-197 0 -371.5 71t-298.5 193.5t-196 293.5t-72 365q0 198 72 372.5t196 298.5t298 195.5t372 71.5q200 0 375.5 -71.5t301 -195.5t197.5 -298.5t72 -372.5q0 -259 -123 -470.5t-339.5 -332t-483.5 -120.5zM631 133h121l274 412q46 -68 136 -205.5t136 -206.5
h121q-42 61 -155.5 231t-178.5 261q56 79 164.5 235.5t163.5 235.5h-121l-268 -387q-38 55 -127.5 186t-138.5 201h-121l328 -469q-60 -87 -171.5 -253.5t-162.5 -240.5z" />
    <glyph glyph-name="Y.ss07" 
d="M1020 -315q-197 0 -371.5 71t-298.5 193.5t-196 293.5t-72 365q0 198 72 372.5t196 298.5t298 195.5t372 71.5q200 0 375.5 -71.5t301 -195.5t197.5 -298.5t72 -372.5q0 -259 -123 -470.5t-339.5 -332t-483.5 -120.5zM971 485v-352h104v352q60 102 179.5 305.5
t179.5 305.5h-113q-276 -473 -297 -510q-52 91 -153 263t-144 247h-115q165 -278 359 -611z" />
    <glyph glyph-name="Z.ss07" 
d="M1020 -315q-197 0 -371.5 71t-298.5 193.5t-196 293.5t-72 365q0 198 72 372.5t196 298.5t298 195.5t372 71.5q200 0 375.5 -71.5t301 -195.5t197.5 -298.5t72 -372.5q0 -259 -123 -470.5t-339.5 -332t-483.5 -120.5zM668 229v-96h739v98h-612q100 129 301 385t301 385
v95h-705v-97q193 2 574 2q-100 -129 -299 -386t-299 -386z" />
    <glyph glyph-name="A.ss08" 
d="M1020 1546q200 0 375.5 -71.5t301 -195.5t197.5 -298.5t72 -372.5q0 -259 -123 -470.5t-339.5 -332t-483.5 -120.5q-197 0 -371.5 71t-298.5 193.5t-196 293.5t-72 365q0 198 72 372.5t196 298.5t298 195.5t372 71.5zM1020 -225q180 0 338 64t271 174.5t178 265.5t65 331
q0 178 -65 335.5t-178 269.5t-271 176.5t-338 64.5q-178 0 -335 -65t-269.5 -176.5t-178 -269t-65.5 -335.5q0 -175 65.5 -330t178 -266t269.5 -175t335 -64zM713 276l274 676h76l274 -676h-80q-13 36 -45.5 114.5t-48.5 119.5h-278q-70 -180 -94 -234h-78zM913 580h222
q-74 182 -111 280q-7 -19 -28 -72.5t-42.5 -107t-40.5 -100.5z" />
    <glyph glyph-name="B.ss08" 
d="M1020 1546q200 0 375.5 -71.5t301 -195.5t197.5 -298.5t72 -372.5q0 -259 -123 -470.5t-339.5 -332t-483.5 -120.5q-197 0 -371.5 71t-298.5 193.5t-196 293.5t-72 365q0 198 72 372.5t196 298.5t298 195.5t372 71.5zM1020 -225q180 0 338 64t271 174.5t178 265.5t65 331
q0 178 -65 335.5t-178 269.5t-271 176.5t-338 64.5q-178 0 -335 -65t-269.5 -176.5t-178 -269t-65.5 -335.5q0 -175 65.5 -330t178 -266t269.5 -175t335 -64zM1165 621q57 -17 90 -59t33 -99q0 -84 -61 -135.5t-150 -51.5h-272v676h242q97 0 158 -50t61 -130q0 -51 -27 -91
t-74 -60zM879 883v-234h161q67 0 108.5 32t41.5 85q0 52 -43.5 84.5t-112.5 32.5h-155zM1061 346q66 0 107.5 31t41.5 84q0 55 -43 89t-112 34h-176v-238h182z" />
    <glyph glyph-name="C.ss08" 
d="M1020 -315q-197 0 -371.5 71t-298.5 193.5t-196 293.5t-72 365q0 198 72 372.5t196 298.5t298 195.5t372 71.5q200 0 375.5 -71.5t301 -195.5t197.5 -298.5t72 -372.5q0 -259 -123 -470.5t-339.5 -332t-483.5 -120.5zM1020 -225q180 0 338 64t271 174.5t178 265.5t65 331
q0 178 -65 335.5t-178 269.5t-271 176.5t-338 64.5q-178 0 -335 -65t-269.5 -176.5t-178 -269t-65.5 -335.5q0 -175 65.5 -330t178 -266t269.5 -175t335 -64zM1044 262q-151 0 -247.5 97.5t-96.5 252.5t97.5 255t240.5 100q110 0 191.5 -55.5t109.5 -149.5l-65 -29
q-29 76 -91.5 119t-142.5 43q-114 0 -187 -79.5t-73 -205.5q0 -133 79.5 -205.5t189.5 -72.5q93 0 159.5 54.5t89.5 150.5l68 -25q-34 -118 -118.5 -184t-203.5 -66z" />
    <glyph glyph-name="D.ss08" 
d="M1020 -315q-197 0 -371.5 71t-298.5 193.5t-196 293.5t-72 365q0 198 72 372.5t196 298.5t298 195.5t372 71.5q200 0 375.5 -71.5t301 -195.5t197.5 -298.5t72 -372.5q0 -259 -123 -470.5t-339.5 -332t-483.5 -120.5zM1020 -225q180 0 338 64t271 174.5t178 265.5t65 331
q0 178 -65 335.5t-178 269.5t-271 176.5t-338 64.5q-178 0 -335 -65t-269.5 -176.5t-178 -269t-65.5 -335.5q0 -175 65.5 -330t178 -266t269.5 -175t335 -64zM1028 276h-248v676h240q151 0 236 -88.5t85 -245.5q0 -155 -86 -248.5t-227 -93.5zM854 346h178q108 0 171 71.5
t63 196.5q0 133 -69.5 201t-188.5 68h-154v-537z" />
    <glyph glyph-name="E.ss08" 
d="M1020 -315q-197 0 -371.5 71t-298.5 193.5t-196 293.5t-72 365q0 198 72 372.5t196 298.5t298 195.5t372 71.5q200 0 375.5 -71.5t301 -195.5t197.5 -298.5t72 -372.5q0 -259 -123 -470.5t-339.5 -332t-483.5 -120.5zM1020 -225q180 0 338 64t271 174.5t178 265.5t65 331
q0 178 -65 335.5t-178 269.5t-271 176.5t-338 64.5q-178 0 -335 -65t-269.5 -176.5t-178 -269t-65.5 -335.5q0 -175 65.5 -330t178 -266t269.5 -175t335 -64zM1260 276h-441v676h432v-69h-356v-224h340v-69h-340v-242h365v-72z" />
    <glyph glyph-name="F.ss08" 
d="M1020 -315q-197 0 -371.5 71t-298.5 193.5t-196 293.5t-72 365q0 198 72 372.5t196 298.5t298 195.5t372 71.5q200 0 375.5 -71.5t301 -195.5t197.5 -298.5t72 -372.5q0 -259 -123 -470.5t-339.5 -332t-483.5 -120.5zM1020 -225q180 0 338 64t271 174.5t178 265.5t65 331
q0 178 -65 335.5t-178 269.5t-271 176.5t-338 64.5q-178 0 -335 -65t-269.5 -176.5t-178 -269t-65.5 -335.5q0 -175 65.5 -330t178 -266t269.5 -175t335 -64zM909 276h-75v676h423v-69h-348v-232h332v-67h-332v-308z" />
    <glyph glyph-name="G.ss08" 
d="M1020 1546q200 0 375.5 -71.5t301 -195.5t197.5 -298.5t72 -372.5q0 -259 -123 -470.5t-339.5 -332t-483.5 -120.5q-197 0 -371.5 71t-298.5 193.5t-196 293.5t-72 365q0 198 72 372.5t196 298.5t298 195.5t372 71.5zM1020 -225q180 0 338 64t271 174.5t178 265.5t65 331
q0 178 -65 335.5t-178 269.5t-271 176.5t-338 64.5q-178 0 -335 -65t-269.5 -176.5t-178 -269t-65.5 -335.5q0 -175 65.5 -330t178 -266t269.5 -175t335 -64zM1053 549v65h307v-338h-66v134q-79 -148 -258 -148q-148 0 -242 98t-94 250q0 155 96.5 256t241.5 101
q110 0 191.5 -55.5t109.5 -149.5l-65 -29q-29 76 -91.5 119t-142.5 43q-114 0 -187 -79.5t-73 -205.5q0 -134 79 -206t188 -72q98 0 162 59.5t75 157.5h-231z" />
    <glyph glyph-name="H.ss08" 
d="M1020 1546q200 0 375.5 -71.5t301 -195.5t197.5 -298.5t72 -372.5q0 -259 -123 -470.5t-339.5 -332t-483.5 -120.5q-197 0 -371.5 71t-298.5 193.5t-196 293.5t-72 365q0 198 72 372.5t196 298.5t298 195.5t372 71.5zM1020 -225q180 0 338 64t271 174.5t178 265.5t65 331
q0 178 -65 335.5t-178 269.5t-271 176.5t-338 64.5q-178 0 -335 -65t-269.5 -176.5t-178 -269t-65.5 -335.5q0 -175 65.5 -330t178 -266t269.5 -175t335 -64zM838 653h372v299h76v-676h-76v306h-372v-306h-74v676h74v-299z" />
    <glyph glyph-name="I.ss08" 
d="M1020 -315q-197 0 -371.5 71t-298.5 193.5t-196 293.5t-72 365q0 198 72 372.5t196 298.5t298 195.5t372 71.5q200 0 375.5 -71.5t301 -195.5t197.5 -298.5t72 -372.5q0 -259 -123 -470.5t-339.5 -332t-483.5 -120.5zM1020 -225q180 0 338 64t271 174.5t178 265.5t65 331
q0 178 -65 335.5t-178 269.5t-271 176.5t-338 64.5q-178 0 -335 -65t-269.5 -176.5t-178 -269t-65.5 -335.5q0 -175 65.5 -330t178 -266t269.5 -175t335 -64zM1061 276h-76v676h76v-676z" />
    <glyph glyph-name="J.ss08" 
d="M1020 -315q-197 0 -371.5 71t-298.5 193.5t-196 293.5t-72 365q0 198 72 372.5t196 298.5t298 195.5t372 71.5q200 0 375.5 -71.5t301 -195.5t197.5 -298.5t72 -372.5q0 -259 -123 -470.5t-339.5 -332t-483.5 -120.5zM1020 -225q180 0 338 64t271 174.5t178 265.5t65 331
q0 178 -65 335.5t-178 269.5t-271 176.5t-338 64.5q-178 0 -335 -65t-269.5 -176.5t-178 -269t-65.5 -335.5q0 -175 65.5 -330t178 -266t269.5 -175t335 -64zM999 268q-98 0 -155.5 59t-57.5 162v25l72 10v-24q0 -77 36.5 -120.5t102.5 -43.5q41 0 67.5 18.5t37 52.5
t13.5 59t3 60v432h74v-415q0 -22 -0.5 -35.5t-2.5 -41t-7.5 -46.5t-13.5 -44t-23 -42.5t-34.5 -33.5t-48 -24t-63.5 -8z" />
    <glyph glyph-name="K.ss08" 
d="M1020 1546q200 0 375.5 -71.5t301 -195.5t197.5 -298.5t72 -372.5q0 -259 -123 -470.5t-339.5 -332t-483.5 -120.5q-197 0 -371.5 71t-298.5 193.5t-196 293.5t-72 365q0 198 72 372.5t196 298.5t298 195.5t372 71.5zM1020 -225q180 0 338 64t271 174.5t178 265.5t65 331
q0 178 -65 335.5t-178 269.5t-271 176.5t-338 64.5q-178 0 -335 -65t-269.5 -176.5t-178 -269t-65.5 -335.5q0 -175 65.5 -330t178 -266t269.5 -175t335 -64zM1206 952h94q-28 -29 -280 -297l293 -379h-92q-22 28 -113 144t-141 178q-4 -4 -82 -88v-234h-74v676h74v-344
q61 67 321 344z" />
    <glyph glyph-name="L.ss08" 
d="M1020 1546q200 0 375.5 -71.5t301 -195.5t197.5 -298.5t72 -372.5q0 -259 -123 -470.5t-339.5 -332t-483.5 -120.5q-197 0 -371.5 71t-298.5 193.5t-196 293.5t-72 365q0 198 72 372.5t196 298.5t298 195.5t372 71.5zM1020 -225q180 0 338 64t271 174.5t178 265.5t65 331
q0 178 -65 335.5t-178 269.5t-271 176.5t-338 64.5q-178 0 -335 -65t-269.5 -176.5t-178 -269t-65.5 -335.5q0 -175 65.5 -330t178 -266t269.5 -175t335 -64zM872 952h76v-604h340v-72h-416v676z" />
    <glyph glyph-name="M.ss08" 
d="M1020 1546q200 0 375.5 -71.5t301 -195.5t197.5 -298.5t72 -372.5q0 -259 -123 -470.5t-339.5 -332t-483.5 -120.5q-197 0 -371.5 71t-298.5 193.5t-196 293.5t-72 365q0 198 72 372.5t196 298.5t298 195.5t372 71.5zM1020 -225q180 0 338 64t271 174.5t178 265.5t65 331
q0 178 -65 335.5t-178 269.5t-271 176.5t-338 64.5q-178 0 -335 -65t-269.5 -176.5t-178 -269t-65.5 -335.5q0 -175 65.5 -330t178 -266t269.5 -175t335 -64zM1024 381q42 90 262 571h82v-676h-74v523q-45 -101 -129 -283.5t-110 -239.5h-62q-73 157 -239 523v-523h-74v676
h82q109 -228 262 -571z" />
    <glyph glyph-name="N.ss08" 
d="M1020 1546q200 0 375.5 -71.5t301 -195.5t197.5 -298.5t72 -372.5q0 -259 -123 -470.5t-339.5 -332t-483.5 -120.5q-197 0 -371.5 71t-298.5 193.5t-196 293.5t-72 365q0 198 72 372.5t196 298.5t298 195.5t372 71.5zM1020 -225q180 0 338 64t271 174.5t178 265.5t65 331
q0 178 -65 335.5t-178 269.5t-271 176.5t-338 64.5q-178 0 -335 -65t-269.5 -176.5t-178 -269t-65.5 -335.5q0 -175 65.5 -330t178 -266t269.5 -175t335 -64zM1227 399v553h73v-676h-75q-55 79 -184.5 262.5t-200.5 286.5v-549h-74v676h76q41 -59 175.5 -251.5t209.5 -301.5
z" />
    <glyph glyph-name="O.ss08" 
d="M1020 -315q-197 0 -371.5 71t-298.5 193.5t-196 293.5t-72 365q0 198 72 372.5t196 298.5t298 195.5t372 71.5q200 0 375.5 -71.5t301 -195.5t197.5 -298.5t72 -372.5q0 -259 -123 -470.5t-339.5 -332t-483.5 -120.5zM1020 -225q180 0 338 64t271 174.5t178 265.5t65 331
q0 178 -65 335.5t-178 269.5t-271 176.5t-338 64.5q-178 0 -335 -65t-269.5 -176.5t-178 -269t-65.5 -335.5q0 -175 65.5 -330t178 -266t269.5 -175t335 -64zM1024 262q-143 0 -240.5 101t-97.5 251q0 149 97.5 251t242.5 102q143 0 241.5 -102t98.5 -251t-98.5 -250.5
t-243.5 -101.5zM1026 332q109 0 184.5 82t75.5 200t-75.5 199.5t-184.5 81.5t-185.5 -81.5t-76.5 -199.5t76.5 -200t185.5 -82z" />
    <glyph glyph-name="P.ss08" 
d="M1020 1546q200 0 375.5 -71.5t301 -195.5t197.5 -298.5t72 -372.5q0 -259 -123 -470.5t-339.5 -332t-483.5 -120.5q-197 0 -371.5 71t-298.5 193.5t-196 293.5t-72 365q0 198 72 372.5t196 298.5t298 195.5t372 71.5zM1020 -225q180 0 338 64t271 174.5t178 265.5t65 331
q0 178 -65 335.5t-178 269.5t-271 176.5t-338 64.5q-178 0 -335 -65t-269.5 -176.5t-178 -269t-65.5 -335.5q0 -175 65.5 -330t178 -266t269.5 -175t335 -64zM821 952h240q94 0 158.5 -52.5t64.5 -149.5q0 -99 -62 -155t-149 -56h-178v-263h-74v676zM895 610h162
q71 0 111 35t40 103q0 63 -43.5 99t-113.5 36h-156v-273z" />
    <glyph glyph-name="Q.ss08" 
d="M1020 -315q-197 0 -371.5 71t-298.5 193.5t-196 293.5t-72 365q0 198 72 372.5t196 298.5t298 195.5t372 71.5q200 0 375.5 -71.5t301 -195.5t197.5 -298.5t72 -372.5q0 -259 -123 -470.5t-339.5 -332t-483.5 -120.5zM1020 -225q180 0 338 64t271 174.5t178 265.5t65 331
q0 178 -65 335.5t-178 269.5t-271 176.5t-338 64.5q-178 0 -335 -65t-269.5 -176.5t-178 -269t-65.5 -335.5q0 -175 65.5 -330t178 -266t269.5 -175t335 -64zM1339 272l-53 -45q-55 66 -96 111q-79 -45 -170 -45q-143 0 -241.5 102t-98.5 252q0 148 99 250t243 102
q143 0 241.5 -102t98.5 -250q0 -162 -113 -266q19 -25 90 -109zM1022 365q64 0 119 34q-21 24 -62.5 73t-62.5 73l53 45q67 -80 131 -152q84 84 84 209q0 118 -76 199.5t-186 81.5q-112 0 -188 -81t-76 -200t76 -200.5t188 -81.5z" />
    <glyph glyph-name="R.ss08" 
d="M1020 1546q200 0 375.5 -71.5t301 -195.5t197.5 -298.5t72 -372.5q0 -259 -123 -470.5t-339.5 -332t-483.5 -120.5q-197 0 -371.5 71t-298.5 193.5t-196 293.5t-72 365q0 198 72 372.5t196 298.5t298 195.5t372 71.5zM1020 -225q180 0 338 64t271 174.5t178 265.5t65 331
q0 178 -65 335.5t-178 269.5t-271 176.5t-338 64.5q-178 0 -335 -65t-269.5 -176.5t-178 -269t-65.5 -335.5q0 -175 65.5 -330t178 -266t269.5 -175t335 -64zM1288 750q0 -83 -45 -138t-121 -67q36 -55 103 -154t78 -115h-86l-177 265h-141v-265h-76v676h240
q94 0 159.5 -52.5t65.5 -149.5zM899 608h160q70 0 110.5 35.5t40.5 101.5q0 65 -43 102.5t-114 37.5h-154v-277z" />
    <glyph glyph-name="S.ss08" 
d="M1020 -315q-197 0 -371.5 71t-298.5 193.5t-196 293.5t-72 365q0 198 72 372.5t196 298.5t298 195.5t372 71.5q200 0 375.5 -71.5t301 -195.5t197.5 -298.5t72 -372.5q0 -259 -123 -470.5t-339.5 -332t-483.5 -120.5zM1020 -225q180 0 338 64t271 174.5t178 265.5t65 331
q0 178 -65 335.5t-178 269.5t-271 176.5t-338 64.5q-178 0 -335 -65t-269.5 -176.5t-178 -269t-65.5 -335.5q0 -175 65.5 -330t178 -266t269.5 -175t335 -64zM1036 262q-97 0 -165 54t-93 151l70 27q19 -75 69 -118.5t119 -43.5q61 0 106.5 31t45.5 92q0 28 -9 47t-32 32
t-36 18t-48 14q-7 2 -10 3l-62 21q-26 8 -45.5 15.5t-48.5 23.5t-47.5 35.5t-32.5 50t-14 67.5q0 87 67 136t156 49q84 0 144.5 -45.5t82.5 -124.5l-67 -29q-17 60 -61 93.5t-105 33.5t-99 -30.5t-38 -76.5q0 -85 133 -126l65 -21q90 -28 124 -52q65 -45 65 -126
q0 -87 -67 -144t-167 -57z" />
    <glyph glyph-name="T.ss08" 
d="M1020 -315q-197 0 -371.5 71t-298.5 193.5t-196 293.5t-72 365q0 198 72 372.5t196 298.5t298 195.5t372 71.5q200 0 375.5 -71.5t301 -195.5t197.5 -298.5t72 -372.5q0 -259 -123 -470.5t-339.5 -332t-483.5 -120.5zM1020 -225q180 0 338 64t271 174.5t178 265.5t65 331
q0 178 -65 335.5t-178 269.5t-271 176.5t-338 64.5q-178 0 -335 -65t-269.5 -176.5t-178 -269t-65.5 -335.5q0 -175 65.5 -330t178 -266t269.5 -175t335 -64zM1061 276h-76v607h-225v69h526v-69h-225v-607z" />
    <glyph glyph-name="U.ss08" 
d="M1020 -315q-197 0 -371.5 71t-298.5 193.5t-196 293.5t-72 365q0 198 72 372.5t196 298.5t298 195.5t372 71.5q200 0 375.5 -71.5t301 -195.5t197.5 -298.5t72 -372.5q0 -259 -123 -470.5t-339.5 -332t-483.5 -120.5zM1020 -225q180 0 338 64t271 174.5t178 265.5t65 331
q0 178 -65 335.5t-178 269.5t-271 176.5t-338 64.5q-178 0 -335 -65t-269.5 -176.5t-178 -269t-65.5 -335.5q0 -175 65.5 -330t178 -266t269.5 -175t335 -64zM1022 268q-122 0 -183 70t-61 192v428h76v-426q0 -196 170 -196t170 196v426h74v-428q0 -120 -62 -191t-184 -71z
" />
    <glyph glyph-name="V.ss08" 
d="M1020 1546q200 0 375.5 -71.5t301 -195.5t197.5 -298.5t72 -372.5q0 -259 -123 -470.5t-339.5 -332t-483.5 -120.5q-197 0 -371.5 71t-298.5 193.5t-196 293.5t-72 365q0 198 72 372.5t196 298.5t298 195.5t372 71.5zM1020 -225q180 0 338 64t271 174.5t178 265.5t65 331
q0 178 -65 335.5t-178 269.5t-271 176.5t-338 64.5q-178 0 -335 -65t-269.5 -176.5t-178 -269t-65.5 -335.5q0 -175 65.5 -330t178 -266t269.5 -175t335 -64zM1028 369q51 132 128.5 325t103.5 258h79l-274 -676h-76l-274 676h78q74 -167 235 -583z" />
    <glyph glyph-name="W.ss08" 
d="M1020 1546q200 0 375.5 -71.5t301 -195.5t197.5 -298.5t72 -372.5q0 -259 -123 -470.5t-339.5 -332t-483.5 -120.5q-197 0 -371.5 71t-298.5 193.5t-196 293.5t-72 365q0 198 72 372.5t196 298.5t298 195.5t372 71.5zM1020 -225q180 0 338 64t271 174.5t178 265.5t65 331
q0 178 -65 335.5t-178 269.5t-271 176.5t-338 64.5q-178 0 -335 -65t-269.5 -176.5t-178 -269t-65.5 -335.5q0 -175 65.5 -330t178 -266t269.5 -175t335 -64zM1241 383q93 308 180 569h80l-219 -676h-82q-15 46 -176 560q-75 -262 -176 -560h-82l-219 676h80
q117 -352 182 -565q21 65 178 565h76z" />
    <glyph glyph-name="X.ss08" 
d="M1020 1546q200 0 375.5 -71.5t301 -195.5t197.5 -298.5t72 -372.5q0 -259 -123 -470.5t-339.5 -332t-483.5 -120.5q-197 0 -371.5 71t-298.5 193.5t-196 293.5t-72 365q0 198 72 372.5t196 298.5t298 195.5t372 71.5zM1020 -225q180 0 338 64t271 174.5t178 265.5t65 331
q0 178 -65 335.5t-178 269.5t-271 176.5t-338 64.5q-178 0 -335 -65t-269.5 -176.5t-178 -269t-65.5 -335.5q0 -175 65.5 -330t178 -266t269.5 -175t335 -64zM1212 952h86q-87 -122 -229 -329q26 -38 234 -347h-86q-28 41 -91.5 137.5t-99.5 149.5q-40 -58 -112.5 -167.5
t-79.5 -119.5h-89q46 67 236 347q-48 68 -131 188t-98 141h86q9 -13 186 -270q159 232 188 270z" />
    <glyph glyph-name="Y.ss08" 
d="M1020 1546q200 0 375.5 -71.5t301 -195.5t197.5 -298.5t72 -372.5q0 -259 -123 -470.5t-339.5 -332t-483.5 -120.5q-197 0 -371.5 71t-298.5 193.5t-196 293.5t-72 365q0 198 72 372.5t196 298.5t298 195.5t372 71.5zM1020 -225q180 0 338 64t271 174.5t178 265.5t65 331
q0 178 -65 335.5t-178 269.5t-271 176.5t-338 64.5q-178 0 -335 -65t-269.5 -176.5t-178 -269t-65.5 -335.5q0 -175 65.5 -330t178 -266t269.5 -175t335 -64zM1024 596q30 51 99.5 171t109.5 185h80q-42 -70 -252 -428v-248h-76v248q-210 357 -252 428h84q117 -205 207 -356
z" />
    <glyph glyph-name="Z.ss08" 
d="M1020 1546q200 0 375.5 -71.5t301 -195.5t197.5 -298.5t72 -372.5q0 -259 -123 -470.5t-339.5 -332t-483.5 -120.5q-197 0 -371.5 71t-298.5 193.5t-196 293.5t-72 365q0 198 72 372.5t196 298.5t298 195.5t372 71.5zM1020 -225q180 0 338 64t271 174.5t178 265.5t65 331
q0 178 -65 335.5t-178 269.5t-271 176.5t-338 64.5q-178 0 -335 -65t-269.5 -176.5t-178 -269t-65.5 -335.5q0 -175 65.5 -330t178 -266t269.5 -175t335 -64zM1288 952v-65q-39 -51 -187.5 -241.5t-232.5 -297.5h428v-72h-522v68q82 107 240.5 309.5t181.5 231.5
q-137 -2 -405 -2v69h497z" />
    <glyph glyph-name="i.loclTRK" horiz-adv-x="501" 
d="M254 1413q-51 0 -84 33.5t-33 83.5q0 46 33.5 79t83.5 33q47 0 80 -33t33 -79q0 -49 -33 -83t-80 -34zM319 0h-137v1130h137v-1130z" />
    <glyph glyph-name="a.ss01" horiz-adv-x="1376" 
d="M618 -35q-227 0 -375.5 169.5t-148.5 428.5q0 132 41.5 245t113 190.5t168.5 121t206 43.5q136 0 250 -69t180 -197h4v233h137v-1130h-135v227h-6q-66 -126 -182 -194t-253 -68zM643 92q116 0 209.5 63.5t146 172.5t52.5 241q0 201 -118.5 334t-291.5 133t-286 -134
t-113 -337q0 -205 114.5 -339t286.5 -134z" />
    <glyph glyph-name="aacute.ss01" horiz-adv-x="1376" 
d="M1055 1669l-312 -391h-122l245 391h189zM618 -35q-227 0 -375.5 169.5t-148.5 428.5q0 132 41.5 245t113 190.5t168.5 121t206 43.5q136 0 250 -69t180 -197h4v233h137v-1130h-135v227h-6q-66 -126 -182 -194t-253 -68zM643 92q116 0 209.5 63.5t146 172.5t52.5 241
q0 201 -118.5 334t-291.5 133t-286 -134t-113 -337q0 -205 114.5 -339t286.5 -134z" />
    <glyph glyph-name="abreve.ss01" horiz-adv-x="1376" 
d="M690 1276q-170 0 -269.5 111t-105.5 284h123q4 -128 74.5 -205t179.5 -77q108 0 178 77t74 205h123q-6 -174 -105.5 -284.5t-271.5 -110.5zM618 -35q-227 0 -375.5 169.5t-148.5 428.5q0 132 41.5 245t113 190.5t168.5 121t206 43.5q136 0 250 -69t180 -197h4v233h137
v-1130h-135v227h-6q-66 -126 -182 -194t-253 -68zM643 92q116 0 209.5 63.5t146 172.5t52.5 241q0 201 -118.5 334t-291.5 133t-286 -134t-113 -337q0 -205 114.5 -339t286.5 -134z" />
    <glyph glyph-name="acircumflex.ss01" horiz-adv-x="1376" 
d="M436 1278h-131l295 358h180l297 -358h-131q-199 203 -254 264q-41 -44 -256 -264zM618 -35q-227 0 -375.5 169.5t-148.5 428.5q0 132 41.5 245t113 190.5t168.5 121t206 43.5q136 0 250 -69t180 -197h4v233h137v-1130h-135v227h-6q-66 -126 -182 -194t-253 -68zM643 92
q116 0 209.5 63.5t146 172.5t52.5 241q0 201 -118.5 334t-291.5 133t-286 -134t-113 -337q0 -205 114.5 -339t286.5 -134z" />
    <glyph glyph-name="adieresis.ss01" horiz-adv-x="1376" 
d="M508 1370q-44 0 -75.5 32.5t-31.5 76.5q0 42 31.5 73t75.5 31q45 0 74.5 -31t29.5 -73q0 -45 -29.5 -77t-74.5 -32zM872 1370q-45 0 -75.5 32t-30.5 77q0 42 30.5 73t75.5 31q44 0 74.5 -31t30.5 -73q0 -45 -30.5 -77t-74.5 -32zM618 -35q-227 0 -375.5 169.5
t-148.5 428.5q0 132 41.5 245t113 190.5t168.5 121t206 43.5q136 0 250 -69t180 -197h4v233h137v-1130h-135v227h-6q-66 -126 -182 -194t-253 -68zM643 92q116 0 209.5 63.5t146 172.5t52.5 241q0 201 -118.5 334t-291.5 133t-286 -134t-113 -337q0 -205 114.5 -339
t286.5 -134z" />
    <glyph glyph-name="agrave.ss01" horiz-adv-x="1376" 
d="M758 1278h-121l-311 391h188zM618 -35q-227 0 -375.5 169.5t-148.5 428.5q0 132 41.5 245t113 190.5t168.5 121t206 43.5q136 0 250 -69t180 -197h4v233h137v-1130h-135v227h-6q-66 -126 -182 -194t-253 -68zM643 92q116 0 209.5 63.5t146 172.5t52.5 241
q0 201 -118.5 334t-291.5 133t-286 -134t-113 -337q0 -205 114.5 -339t286.5 -134z" />
    <glyph glyph-name="amacron.ss01" horiz-adv-x="1376" 
d="M1036 1413h-688v115h688v-115zM618 -35q-227 0 -375.5 169.5t-148.5 428.5q0 132 41.5 245t113 190.5t168.5 121t206 43.5q136 0 250 -69t180 -197h4v233h137v-1130h-135v227h-6q-66 -126 -182 -194t-253 -68zM643 92q116 0 209.5 63.5t146 172.5t52.5 241
q0 201 -118.5 334t-291.5 133t-286 -134t-113 -337q0 -205 114.5 -339t286.5 -134z" />
    <glyph glyph-name="aogonek.ss01" horiz-adv-x="1376" 
d="M1178 -362q42 0 90 14v-101q-55 -14 -103 -14q-114 0 -191 63t-77 167q0 139 164 233h-2v227h-6q-66 -126 -182 -194t-253 -68q-227 0 -375.5 169.5t-148.5 428.5q0 132 41.5 245t113 190.5t168.5 121t206 43.5q136 0 250 -69t180 -197h4v233h137v-1130h-18
q-172 -84 -172 -209q0 -69 50 -111t124 -42zM643 92q116 0 209.5 63.5t146 172.5t52.5 241q0 201 -118.5 334t-291.5 133t-286 -134t-113 -337q0 -205 114.5 -339t286.5 -134z" />
    <glyph glyph-name="aring.ss01" horiz-adv-x="1376" 
d="M692 1247q-98 0 -162.5 63t-64.5 158q0 94 64.5 157t162.5 63q96 0 161 -62.5t65 -157.5q0 -96 -65 -158.5t-161 -62.5zM692 1343q55 0 91 34t36 91q0 55 -36 88t-91 33q-56 0 -92.5 -33t-36.5 -88q0 -57 36 -91t93 -34zM618 -35q-227 0 -375.5 169.5t-148.5 428.5
q0 132 41.5 245t113 190.5t168.5 121t206 43.5q136 0 250 -69t180 -197h4v233h137v-1130h-135v227h-6q-66 -126 -182 -194t-253 -68zM643 92q116 0 209.5 63.5t146 172.5t52.5 241q0 201 -118.5 334t-291.5 133t-286 -134t-113 -337q0 -205 114.5 -339t286.5 -134z" />
    <glyph glyph-name="atilde.ss01" horiz-adv-x="1376" 
d="M846 1329q-15 0 -28.5 2t-24 4t-22.5 8t-19 9t-19 11.5t-16.5 12t-17.5 14t-17 13.5l-39 33q-21 18 -30.5 25.5t-29 16.5t-38.5 9q-49 0 -78 -40t-29 -101h-104q2 110 60.5 179.5t150.5 69.5q41 0 75 -17t74 -50l43 -37q62 -53 109 -53q46 0 72 40t26 103h105
q0 -117 -53.5 -184.5t-149.5 -67.5zM618 -35q-227 0 -375.5 169.5t-148.5 428.5q0 132 41.5 245t113 190.5t168.5 121t206 43.5q136 0 250 -69t180 -197h4v233h137v-1130h-135v227h-6q-66 -126 -182 -194t-253 -68zM643 92q116 0 209.5 63.5t146 172.5t52.5 241
q0 201 -118.5 334t-291.5 133t-286 -134t-113 -337q0 -205 114.5 -339t286.5 -134z" />
    <glyph glyph-name="b.ss01" horiz-adv-x="1159" 
d="M668 -35q-120 0 -210 50.5t-141 146.5h-4v-162h-131v1638h137v-999h5q51 83 141 125.5t199 42.5q191 0 311.5 -121t120.5 -303q0 -179 -120 -298.5t-308 -119.5zM655 80q127 0 214 87.5t87 219.5q0 126 -80.5 214.5t-220.5 88.5q-142 0 -225.5 -88t-83.5 -209
q0 -128 89 -220.5t220 -92.5z" />
    <glyph glyph-name="d.ss01" horiz-adv-x="1368" 
d="M621 -35q-151 0 -271.5 77t-188 213.5t-67.5 307.5q0 132 41.5 245t113 190.5t168.5 121t206 43.5q134 0 245.5 -67t178.5 -193h4v735h137v-1638h-131v227h-4q-66 -127 -181 -194.5t-251 -67.5zM641 92q172 0 291 133.5t119 339.5t-119.5 338.5t-290.5 132.5
q-173 0 -286 -134t-113 -337q0 -205 114 -339t285 -134z" />
    <glyph glyph-name="dcaron.ss01" horiz-adv-x="1368" 
d="M1448 1180h-90l127 254q-35 12 -54.5 40.5t-19.5 65.5q0 46 33 79.5t82 33.5q46 0 78 -32.5t32 -78.5q0 -41 -33 -102.5t-155 -259.5zM621 -35q-151 0 -271.5 77t-188 213.5t-67.5 307.5q0 132 41.5 245t113 190.5t168.5 121t206 43.5q134 0 245.5 -67t178.5 -193h4v735
h137v-1638h-131v227h-4q-66 -127 -181 -194.5t-251 -67.5zM641 92q172 0 291 133.5t119 339.5t-119.5 338.5t-290.5 132.5q-173 0 -286 -134t-113 -337q0 -205 114 -339t285 -134z" />
    <glyph glyph-name="dcroat.ss01" horiz-adv-x="1368" 
d="M1188 1444h266v-115h-266v-1329h-131v227h-4q-66 -127 -181 -194.5t-251 -67.5q-151 0 -271.5 77t-188 213.5t-67.5 307.5q0 132 41.5 245t113 190.5t168.5 121t206 43.5q134 0 245.5 -67t178.5 -193h4v426h-287v115h287v194h137v-194zM641 92q172 0 291 133.5t119 339.5
t-119.5 338.5t-290.5 132.5q-173 0 -286 -134t-113 -337q0 -205 114 -339t285 -134z" />
    <glyph glyph-name="g.ss01" horiz-adv-x="1368" 
d="M1186 -451h-1014v125h877v588h-5q-66 -128 -177.5 -194t-248.5 -66q-151 0 -271 77t-186.5 210t-66.5 297q0 251 150.5 414t373.5 163q137 0 251 -68.5t180 -197.5h4v233h133v-1581zM639 129q111 0 205.5 59.5t150.5 165.5t56 234q0 96 -33 180t-88.5 142.5t-131 92
t-159.5 33.5q-172 0 -285.5 -129t-113.5 -321q0 -126 52 -231t143.5 -165.5t203.5 -60.5z" />
    <glyph glyph-name="gbreve.ss01" horiz-adv-x="1368" 
d="M688 1276q-170 0 -269.5 111t-105.5 284h123q4 -128 74.5 -205t179.5 -77q108 0 178 77t74 205h123q-6 -174 -105.5 -284.5t-271.5 -110.5zM1186 -451h-1014v125h877v588h-5q-66 -128 -177.5 -194t-248.5 -66q-151 0 -271 77t-186.5 210t-66.5 297q0 251 150.5 414
t373.5 163q137 0 251 -68.5t180 -197.5h4v233h133v-1581zM639 129q111 0 205.5 59.5t150.5 165.5t56 234q0 96 -33 180t-88.5 142.5t-131 92t-159.5 33.5q-172 0 -285.5 -129t-113.5 -321q0 -126 52 -231t143.5 -165.5t203.5 -60.5z" />
    <glyph glyph-name="uni0123.ss01" horiz-adv-x="1368" 
d="M557 1360q0 40 29.5 97t148.5 253h88l-123 -246q34 -12 53 -39.5t19 -62.5q0 -46 -31 -76.5t-77 -30.5t-76.5 30.5t-30.5 74.5zM1186 -451h-1014v125h877v588h-5q-66 -128 -177.5 -194t-248.5 -66q-151 0 -271 77t-186.5 210t-66.5 297q0 251 150.5 414t373.5 163
q137 0 251 -68.5t180 -197.5h4v233h133v-1581zM639 129q111 0 205.5 59.5t150.5 165.5t56 234q0 96 -33 180t-88.5 142.5t-131 92t-159.5 33.5q-172 0 -285.5 -129t-113.5 -321q0 -126 52 -231t143.5 -165.5t203.5 -60.5z" />
    <glyph glyph-name="gdotaccent.ss01" horiz-adv-x="1368" 
d="M690 1417q-51 0 -84 33.5t-33 83.5q0 47 33.5 80t83.5 33q47 0 80 -33.5t33 -79.5q0 -49 -33 -83t-80 -34zM1186 -451h-1014v125h877v588h-5q-66 -128 -177.5 -194t-248.5 -66q-151 0 -271 77t-186.5 210t-66.5 297q0 251 150.5 414t373.5 163q137 0 251 -68.5
t180 -197.5h4v233h133v-1581zM639 129q111 0 205.5 59.5t150.5 165.5t56 234q0 96 -33 180t-88.5 142.5t-131 92t-159.5 33.5q-172 0 -285.5 -129t-113.5 -321q0 -126 52 -231t143.5 -165.5t203.5 -60.5z" />
    <glyph glyph-name="i.ss01" horiz-adv-x="704" 
d="M362 1413q-49 0 -81.5 33.5t-32.5 83.5q0 46 32.5 79t81.5 33q47 0 80 -33t33 -79q0 -49 -33 -83t-80 -34zM676 0h-379v1004h-274v126h413v-1005h240v-125z" />
    <glyph glyph-name="dotlessi.ss01" horiz-adv-x="704" 
d="M676 0h-379v1004h-274v126h413v-1005h240v-125z" />
    <glyph glyph-name="iacute.ss01" horiz-adv-x="704" 
d="M676 1669l-311 -391h-123l245 391h189zM676 0h-379v1004h-274v126h413v-1005h240v-125z" />
    <glyph glyph-name="icircumflex.ss01" horiz-adv-x="704" 
d="M57 1278h-131l295 358h180l297 -358h-131q-199 203 -254 264q-41 -44 -256 -264zM676 0h-379v1004h-274v126h413v-1005h240v-125z" />
    <glyph glyph-name="idieresis.ss01" horiz-adv-x="704" 
d="M129 1370q-44 0 -75 32t-31 77q0 42 31 73t75 31q45 0 74.5 -31t29.5 -73q0 -45 -29.5 -77t-74.5 -32zM494 1370q-45 0 -76 32t-31 77q0 42 31 73t76 31q44 0 74 -31t30 -73q0 -45 -30 -77t-74 -32zM676 0h-379v1004h-274v126h413v-1005h240v-125z" />
    <glyph glyph-name="i.loclTRK.ss01" horiz-adv-x="704" 
d="M348 1417q-49 0 -82 33.5t-33 83.5q0 45 33.5 79t81.5 34q47 0 80 -34t33 -79q0 -49 -33 -83t-80 -34zM676 0h-379v1004h-274v126h413v-1005h240v-125z" />
    <glyph glyph-name="igrave.ss01" horiz-adv-x="704" 
d="M379 1278h-121l-311 391h188zM676 0h-379v1004h-274v126h413v-1005h240v-125z" />
    <glyph glyph-name="imacron.ss01" horiz-adv-x="704" 
d="M657 1413h-688v115h688v-115zM676 0h-379v1004h-274v126h413v-1005h240v-125z" />
    <glyph glyph-name="iogonek.ss01" horiz-adv-x="704" 
d="M315 1417q-51 0 -83.5 33.5t-32.5 83.5q0 47 33 80t83 33q47 0 80 -33.5t33 -79.5q0 -49 -33 -83t-80 -34zM676 0h-262q-172 -84 -172 -209q0 -69 50 -111t124 -42q42 0 90 14v-101q-55 -14 -103 -14q-114 0 -191 63t-77 167q0 139 164 233h-2v1004h-274v126h413v-1005
h240v-125z" />
    <glyph glyph-name="j.ss01" horiz-adv-x="628" 
d="M373 1413q-49 0 -82 33.5t-33 83.5q0 46 33 79t82 33q47 0 79.5 -33t32.5 -79q0 -49 -32.5 -83t-79.5 -34zM446 -451h-557v125h418v1330h-287v126h426v-1581z" />
    <glyph glyph-name="l.ss01" horiz-adv-x="753" 
d="M745 0h-557v1638h140v-1513h417v-125z" />
    <glyph glyph-name="lacute.ss01" horiz-adv-x="753" 
d="M733 2085l-340 -324h-127l260 324h207zM745 0h-557v1638h140v-1513h417v-125z" />
    <glyph glyph-name="lcaron.ss01" horiz-adv-x="753" 
d="M745 0h-557v1638h140v-1513h417v-125zM641 1165h-90l127 254q-35 12 -54.5 41t-19.5 66q0 46 33 79t82 33q45 0 77.5 -32.5t32.5 -77.5q0 -41 -33.5 -104t-154.5 -259z" />
    <glyph glyph-name="uni013C.ss01" horiz-adv-x="753" 
d="M745 0h-557v1638h140v-1513h417v-125zM330 -520h-72l100 194q-44 10 -66 38t-22 65q0 44 32 75t79 31q44 0 75 -30.5t31 -73.5q0 -41 -29 -94t-128 -205z" />
    <glyph glyph-name="lslash.ss01" horiz-adv-x="753" 
d="M328 915v-790h417v-125h-557v817l-204 -147v125l204 145v698h140v-598l196 140v-123z" />
    <glyph glyph-name="m.ss01" horiz-adv-x="2068" 
d="M319 0h-137v1130h137v-493l607 493h178v-493l606 493h176v-1130h-137v995h-12l-633 -510v-485h-139v995h-13l-633 -510v-485z" />
    <glyph glyph-name="n.ss01" horiz-adv-x="1306" 
d="M319 623l648 507h157v-1130h-137v985h-12l-656 -504v-481h-137v1130h137v-507z" />
    <glyph glyph-name="nacute.ss01" horiz-adv-x="1306" 
d="M829 1669h189l-311 -391h-123zM319 623l648 507h157v-1130h-137v985h-12l-656 -504v-481h-137v1130h137v-507z" />
    <glyph glyph-name="ncaron.ss01" horiz-adv-x="1306" 
d="M1038 1645l-297 -363h-180l-295 363h131q185 -190 256 -267q73 82 254 267h131zM319 623l648 507h157v-1130h-137v985h-12l-656 -504v-481h-137v1130h137v-507z" />
    <glyph glyph-name="uni0146.ss01" horiz-adv-x="1306" 
d="M319 623l648 507h157v-1130h-137v985h-12l-656 -504v-481h-137v1130h137v-507zM682 -117q44 0 75 -30.5t31 -73.5q0 -41 -29 -94t-128 -205h-72l100 194q-44 10 -66 38t-22 65q0 44 32 75t79 31z" />
    <glyph glyph-name="eng.ss01" horiz-adv-x="1306" 
d="M807 -483q-125 0 -215 55v129q98 -61 190 -61q33 0 61 8.5t47.5 21t35.5 34.5t26 41t17 49t10.5 51t5.5 54t2 50v47v989h-12l-656 -504v-481h-137v1130h137v-505l648 505h157v-1144q0 -39 -0.5 -61.5t-3 -65.5t-8 -70.5t-16.5 -67.5t-26.5 -65.5t-39.5 -54t-55 -45.5
t-74 -28t-94 -11z" />
    <glyph glyph-name="ntilde.ss01" horiz-adv-x="1306" 
d="M508 1487q-49 0 -78 -40t-29 -101h-104q2 110 60.5 179.5t150.5 69.5q41 0 75 -17t74 -50l43 -37q62 -53 109 -53q46 0 72 40t26 103h105q0 -117 -53.5 -184.5t-149.5 -67.5q-15 0 -28.5 2t-24 4t-22.5 8t-19 9t-19 11.5t-16.5 12t-17.5 14t-17 13.5l-39 33
q-21 18 -30.5 25.5t-29 16.5t-38.5 9zM319 623l648 507h157v-1130h-137v985h-12l-656 -504v-481h-137v1130h137v-507z" />
    <glyph glyph-name="p.ss01" horiz-adv-x="1370" 
d="M319 -451h-137v1581h133v-237h4q72 133 186.5 201.5t250.5 68.5q225 0 372.5 -169t147.5 -429q0 -175 -70 -313t-189 -212.5t-265 -74.5q-140 0 -254.5 69.5t-178.5 194.5v-680zM729 92q173 0 286 134.5t113 338.5t-113.5 337.5t-285.5 133.5q-171 0 -290.5 -133
t-119.5 -340q0 -206 119.5 -338.5t290.5 -132.5z" />
    <glyph glyph-name="q.ss01" horiz-adv-x="1370" 
d="M1188 -451h-137v684q-68 -130 -182.5 -199t-252.5 -69q-149 0 -268 77t-186.5 214t-67.5 309q0 131 41.5 244t112 190t167.5 120.5t206 43.5q137 0 250 -68.5t180 -197.5h4v233h133v-1581zM641 92q172 0 291 133.5t119 339.5t-119.5 338.5t-290.5 132.5
q-173 0 -286 -134.5t-113 -338.5t113.5 -337.5t285.5 -133.5z" />
    <glyph glyph-name="r.ss01" horiz-adv-x="819" 
d="M319 0h-137v1130h617v-126h-480v-1004z" />
    <glyph glyph-name="racute.ss01" horiz-adv-x="819" 
d="M776 1669l-311 -391h-123l246 391h188zM319 0h-137v1130h617v-126h-480v-1004z" />
    <glyph glyph-name="rcaron.ss01" horiz-adv-x="819" 
d="M502 1282h-180l-295 363h131q185 -190 256 -267q73 82 254 267h131zM319 0h-137v1130h617v-126h-480v-1004z" />
    <glyph glyph-name="uni0157.ss01" horiz-adv-x="819" 
d="M319 0h-137v1130h617v-126h-480v-1004zM209 -520h-72l101 194q-44 10 -66 38t-22 65q0 45 31.5 75.5t78.5 30.5q44 0 75.5 -30.5t31.5 -73.5q0 -40 -28.5 -92.5t-129.5 -206.5z" />
    <glyph glyph-name="s.ss01" horiz-adv-x="968" 
d="M844 0h-721v127h584v395h-584v608h721v-126h-584v-369h584v-635z" />
    <glyph glyph-name="sacute.ss01" horiz-adv-x="968" 
d="M823 1669l-311 -391h-123l246 391h188zM844 0h-721v127h584v395h-584v608h721v-126h-584v-369h584v-635z" />
    <glyph glyph-name="scaron.ss01" horiz-adv-x="968" 
d="M549 1282h-180l-295 363h131q185 -190 256 -267q73 82 254 267h131zM844 0h-721v127h584v395h-584v608h721v-126h-584v-369h584v-635z" />
    <glyph glyph-name="scedilla.ss01" horiz-adv-x="968" 
d="M844 1130v-126h-584v-369h584v-635h-303l-107 -158q30 19 80 19q84 0 136 -45.5t52 -120.5q0 -83 -65 -135t-164 -52q-74 0 -142.5 30.5t-111.5 80.5l57 59q34 -42 85 -67t104 -25q59 0 98 30t39 77q0 43 -35.5 70.5t-89.5 27.5t-96 -27l-55 54l118 182h-321v127h584v395
h-584v608h721z" />
    <glyph glyph-name="uni0219.ss01" horiz-adv-x="968" 
d="M844 0h-721v127h584v395h-584v608h721v-126h-584v-369h584v-635zM436 -520h-71l100 194q-44 10 -66 38t-22 65q0 45 31.5 75.5t78.5 30.5q44 0 75.5 -30.5t31.5 -73.5q0 -40 -28.5 -92.5t-129.5 -206.5z" />
    <glyph glyph-name="t.ss01" horiz-adv-x="798" 
d="M391 1008v-883h379v-125h-518v1008h-225v122h225v336h139v-336h344v-122h-344z" />
    <glyph glyph-name="tbar.ss01" horiz-adv-x="798" 
d="M391 575v-450h379v-125h-518v575h-221v115h221v318h-225v122h225v336h139v-336h344v-122h-344v-318h330v-115h-330z" />
    <glyph glyph-name="tcaron.ss01" horiz-adv-x="798" 
d="M961 1640q46 0 78 -32t32 -78q0 -39 -33.5 -102t-154.5 -259h-90l127 252q-36 12 -55 41.5t-19 67.5q0 46 33 78t82 32zM735 1008h-344v-883h379v-125h-518v1008h-225v122h225v336h139v-336h344v-122z" />
    <glyph glyph-name="uni0163.ss01" horiz-adv-x="798" 
d="M770 125v-125h-260l-107 -158q30 19 80 19q84 0 136.5 -45.5t52.5 -120.5q0 -82 -65.5 -134.5t-164.5 -52.5q-74 0 -142.5 30.5t-111.5 80.5l58 59q34 -43 84.5 -67.5t103.5 -24.5q59 0 98 30t39 77q0 43 -35.5 70.5t-89.5 27.5t-96 -27l-55 54l119 182h-162v1008h-225
v122h225v336h139v-336h344v-122h-344v-883h379z" />
    <glyph glyph-name="uni021B.ss01" horiz-adv-x="798" 
d="M391 1008v-883h379v-125h-518v1008h-225v122h225v336h139v-336h344v-122h-344zM457 -117q44 0 75 -30.5t31 -73.5q0 -41 -29 -94t-128 -205h-72l100 194q-44 10 -66 38t-22 65q0 44 32 75t79 31z" />
    <glyph glyph-name="yacute.ss01" horiz-adv-x="1126" 
d="M934 1669l-311 -391h-123l245 391h189zM555 -451h-141l149 441h-143l-375 1140h143l326 -987h100l326 987h141z" />
    <glyph glyph-name="ycircumflex.ss01" horiz-adv-x="1126" 
d="M315 1278h-131l295 358h180l297 -358h-131q-199 203 -254 264q-41 -44 -256 -264zM555 -451h-141l149 441h-143l-375 1140h143l326 -987h100l326 987h141z" />
    <glyph glyph-name="ydieresis.ss01" horiz-adv-x="1126" 
d="M387 1370q-44 0 -75 32t-31 77q0 42 31 73t75 31q45 0 75 -31t30 -73q0 -45 -30 -77t-75 -32zM752 1370q-45 0 -76 32t-31 77q0 42 31 73t76 31q44 0 74 -31t30 -73q0 -45 -30 -77t-74 -32zM555 -451h-141l149 441h-143l-375 1140h143l326 -987h100l326 987h141z" />
    <glyph glyph-name="ygrave.ss01" horiz-adv-x="1126" 
d="M635 1278h-121l-311 391h188zM555 -451h-141l149 441h-143l-375 1140h143l326 -987h100l326 987h141z" />
    <glyph glyph-name="a.ss02" horiz-adv-x="1173" 
d="M455 -35q-101 0 -181 31.5t-130 99.5t-50 164q0 63 23.5 115.5t60.5 88.5t92.5 64.5t110.5 46t123 31.5q26 5 71.5 13.5t68.5 13t59 13t54.5 16.5t42 21.5t35 29t19.5 37.5t8 49q0 98 -80.5 171.5t-206.5 73.5q-114 0 -194 -63.5t-113 -173.5l-135 47q33 104 105.5 175.5
t160 102.5t185.5 31q80 0 153 -22t135 -65.5t99 -118.5t37 -171v-786h-134v236h-4q-127 -271 -415 -271zM471 78q86 0 162 37.5t124.5 94t76.5 121.5t28 122v153q-47 -37 -99.5 -55.5t-168.5 -40.5q-36 -7 -61.5 -12.5t-65 -16.5t-67 -23t-59.5 -31.5t-51.5 -41.5
t-32.5 -52.5t-13 -66.5q0 -87 63 -137.5t164 -50.5z" />
    <glyph glyph-name="aacute.ss02" horiz-adv-x="1173" 
d="M956 1669l-311 -391h-123l246 391h188zM455 -35q-101 0 -181 31.5t-130 99.5t-50 164q0 63 23.5 115.5t60.5 88.5t92.5 64.5t110.5 46t123 31.5q26 5 71.5 13.5t68.5 13t59 13t54.5 16.5t42 21.5t35 29t19.5 37.5t8 49q0 98 -80.5 171.5t-206.5 73.5q-114 0 -194 -63.5
t-113 -173.5l-135 47q33 104 105.5 175.5t160 102.5t185.5 31q80 0 153 -22t135 -65.5t99 -118.5t37 -171v-786h-134v236h-4q-127 -271 -415 -271zM471 78q86 0 162 37.5t124.5 94t76.5 121.5t28 122v153q-47 -37 -99.5 -55.5t-168.5 -40.5q-36 -7 -61.5 -12.5t-65 -16.5
t-67 -23t-59.5 -31.5t-51.5 -41.5t-32.5 -52.5t-13 -66.5q0 -87 63 -137.5t164 -50.5z" />
    <glyph glyph-name="abreve.ss02" horiz-adv-x="1173" 
d="M592 1276q-170 0 -269.5 111t-105.5 284h123q4 -128 74.5 -205t179.5 -77q108 0 178 77t74 205h123q-6 -174 -105.5 -284.5t-271.5 -110.5zM455 -35q-101 0 -181 31.5t-130 99.5t-50 164q0 63 23.5 115.5t60.5 88.5t92.5 64.5t110.5 46t123 31.5q26 5 71.5 13.5t68.5 13
t59 13t54.5 16.5t42 21.5t35 29t19.5 37.5t8 49q0 98 -80.5 171.5t-206.5 73.5q-114 0 -194 -63.5t-113 -173.5l-135 47q33 104 105.5 175.5t160 102.5t185.5 31q80 0 153 -22t135 -65.5t99 -118.5t37 -171v-786h-134v236h-4q-127 -271 -415 -271zM471 78q86 0 162 37.5
t124.5 94t76.5 121.5t28 122v153q-47 -37 -99.5 -55.5t-168.5 -40.5q-36 -7 -61.5 -12.5t-65 -16.5t-67 -23t-59.5 -31.5t-51.5 -41.5t-32.5 -52.5t-13 -66.5q0 -87 63 -137.5t164 -50.5z" />
    <glyph glyph-name="acircumflex.ss02" horiz-adv-x="1173" 
d="M297 1278h-131l297 358h178l297 -358h-131q-199 203 -254 264q-115 -123 -256 -264zM455 -35q-101 0 -181 31.5t-130 99.5t-50 164q0 63 23.5 115.5t60.5 88.5t92.5 64.5t110.5 46t123 31.5q26 5 71.5 13.5t68.5 13t59 13t54.5 16.5t42 21.5t35 29t19.5 37.5t8 49
q0 98 -80.5 171.5t-206.5 73.5q-114 0 -194 -63.5t-113 -173.5l-135 47q33 104 105.5 175.5t160 102.5t185.5 31q80 0 153 -22t135 -65.5t99 -118.5t37 -171v-786h-134v236h-4q-127 -271 -415 -271zM471 78q86 0 162 37.5t124.5 94t76.5 121.5t28 122v153
q-47 -37 -99.5 -55.5t-168.5 -40.5q-36 -7 -61.5 -12.5t-65 -16.5t-67 -23t-59.5 -31.5t-51.5 -41.5t-32.5 -52.5t-13 -66.5q0 -87 63 -137.5t164 -50.5z" />
    <glyph glyph-name="adieresis.ss02" horiz-adv-x="1173" 
d="M410 1370q-44 0 -75.5 32.5t-31.5 76.5q0 42 31.5 73t75.5 31q45 0 74.5 -31t29.5 -73q0 -45 -29.5 -77t-74.5 -32zM774 1370q-45 0 -75.5 32t-30.5 77q0 42 30.5 73t75.5 31q44 0 74.5 -31t30.5 -73q0 -45 -30.5 -77t-74.5 -32zM455 -35q-101 0 -181 31.5t-130 99.5
t-50 164q0 63 23.5 115.5t60.5 88.5t92.5 64.5t110.5 46t123 31.5q26 5 71.5 13.5t68.5 13t59 13t54.5 16.5t42 21.5t35 29t19.5 37.5t8 49q0 98 -80.5 171.5t-206.5 73.5q-114 0 -194 -63.5t-113 -173.5l-135 47q33 104 105.5 175.5t160 102.5t185.5 31q80 0 153 -22
t135 -65.5t99 -118.5t37 -171v-786h-134v236h-4q-127 -271 -415 -271zM471 78q86 0 162 37.5t124.5 94t76.5 121.5t28 122v153q-47 -37 -99.5 -55.5t-168.5 -40.5q-36 -7 -61.5 -12.5t-65 -16.5t-67 -23t-59.5 -31.5t-51.5 -41.5t-32.5 -52.5t-13 -66.5q0 -87 63 -137.5
t164 -50.5z" />
    <glyph glyph-name="agrave.ss02" horiz-adv-x="1173" 
d="M659 1278h-120l-312 391h189zM455 -35q-101 0 -181 31.5t-130 99.5t-50 164q0 63 23.5 115.5t60.5 88.5t92.5 64.5t110.5 46t123 31.5q26 5 71.5 13.5t68.5 13t59 13t54.5 16.5t42 21.5t35 29t19.5 37.5t8 49q0 98 -80.5 171.5t-206.5 73.5q-114 0 -194 -63.5
t-113 -173.5l-135 47q33 104 105.5 175.5t160 102.5t185.5 31q80 0 153 -22t135 -65.5t99 -118.5t37 -171v-786h-134v236h-4q-127 -271 -415 -271zM471 78q86 0 162 37.5t124.5 94t76.5 121.5t28 122v153q-47 -37 -99.5 -55.5t-168.5 -40.5q-36 -7 -61.5 -12.5t-65 -16.5
t-67 -23t-59.5 -31.5t-51.5 -41.5t-32.5 -52.5t-13 -66.5q0 -87 63 -137.5t164 -50.5z" />
    <glyph glyph-name="amacron.ss02" horiz-adv-x="1173" 
d="M950 1430h-688v114h688v-114zM455 -35q-101 0 -181 31.5t-130 99.5t-50 164q0 63 23.5 115.5t60.5 88.5t92.5 64.5t110.5 46t123 31.5q26 5 71.5 13.5t68.5 13t59 13t54.5 16.5t42 21.5t35 29t19.5 37.5t8 49q0 98 -80.5 171.5t-206.5 73.5q-114 0 -194 -63.5
t-113 -173.5l-135 47q33 104 105.5 175.5t160 102.5t185.5 31q80 0 153 -22t135 -65.5t99 -118.5t37 -171v-786h-134v236h-4q-127 -271 -415 -271zM471 78q86 0 162 37.5t124.5 94t76.5 121.5t28 122v153q-47 -37 -99.5 -55.5t-168.5 -40.5q-36 -7 -61.5 -12.5t-65 -16.5
t-67 -23t-59.5 -31.5t-51.5 -41.5t-32.5 -52.5t-13 -66.5q0 -87 63 -137.5t164 -50.5z" />
    <glyph glyph-name="aogonek.ss02" horiz-adv-x="1173" 
d="M991 -362q42 0 90 14v-101q-55 -14 -102 -14q-114 0 -191 63t-77 167q0 140 163 233v236h-4q-127 -271 -415 -271q-101 0 -181 31.5t-130 99.5t-50 164q0 63 23.5 115.5t60.5 88.5t92.5 64.5t110.5 46t123 31.5q26 5 71.5 13.5t68.5 13t59 13t54.5 16.5t42 21.5t35 29
t19.5 37.5t8 49q0 98 -80.5 171.5t-206.5 73.5q-114 0 -194 -63.5t-113 -173.5l-135 47q33 104 105.5 175.5t160 102.5t185.5 31q80 0 153 -22t135 -65.5t99 -118.5t37 -171v-786h-19q-172 -84 -172 -209q0 -69 50 -111t124 -42zM862 453v153q-47 -37 -99.5 -55.5
t-168.5 -40.5q-36 -7 -61.5 -12.5t-65 -16.5t-67 -23t-59.5 -31.5t-51.5 -41.5t-32.5 -52.5t-13 -66.5q0 -87 63 -137.5t164 -50.5q86 0 162 37.5t124.5 94t76.5 121.5t28 122z" />
    <glyph glyph-name="aring.ss02" horiz-adv-x="1173" 
d="M594 1247q-98 0 -162.5 63t-64.5 158q0 94 64.5 157t162.5 63q96 0 160.5 -62.5t64.5 -157.5q0 -96 -64.5 -158.5t-160.5 -62.5zM594 1343q55 0 91 34t36 91q0 55 -36 88t-91 33q-56 0 -92.5 -33t-36.5 -88q0 -57 36 -91t93 -34zM455 -35q-101 0 -181 31.5t-130 99.5
t-50 164q0 63 23.5 115.5t60.5 88.5t92.5 64.5t110.5 46t123 31.5q26 5 71.5 13.5t68.5 13t59 13t54.5 16.5t42 21.5t35 29t19.5 37.5t8 49q0 98 -80.5 171.5t-206.5 73.5q-114 0 -194 -63.5t-113 -173.5l-135 47q33 104 105.5 175.5t160 102.5t185.5 31q80 0 153 -22
t135 -65.5t99 -118.5t37 -171v-786h-134v236h-4q-127 -271 -415 -271zM471 78q86 0 162 37.5t124.5 94t76.5 121.5t28 122v153q-47 -37 -99.5 -55.5t-168.5 -40.5q-36 -7 -61.5 -12.5t-65 -16.5t-67 -23t-59.5 -31.5t-51.5 -41.5t-32.5 -52.5t-13 -66.5q0 -87 63 -137.5
t164 -50.5z" />
    <glyph glyph-name="atilde.ss02" horiz-adv-x="1173" 
d="M748 1329q-15 0 -28.5 2t-24 4t-22.5 8t-19 9t-19 11.5t-16.5 12t-17.5 14t-17 13.5l-39 33q-20 18 -30.5 25.5t-30 16.5t-38.5 9q-48 0 -77 -40t-29 -101h-104q2 110 60 179.5t150 69.5q69 0 150 -67l43 -37q62 -53 109 -53q46 0 72 40t26 103h104q0 -117 -53 -184.5
t-149 -67.5zM455 -35q-101 0 -181 31.5t-130 99.5t-50 164q0 63 23.5 115.5t60.5 88.5t92.5 64.5t110.5 46t123 31.5q26 5 71.5 13.5t68.5 13t59 13t54.5 16.5t42 21.5t35 29t19.5 37.5t8 49q0 98 -80.5 171.5t-206.5 73.5q-114 0 -194 -63.5t-113 -173.5l-135 47
q33 104 105.5 175.5t160 102.5t185.5 31q80 0 153 -22t135 -65.5t99 -118.5t37 -171v-786h-134v236h-4q-127 -271 -415 -271zM471 78q86 0 162 37.5t124.5 94t76.5 121.5t28 122v153q-47 -37 -99.5 -55.5t-168.5 -40.5q-36 -7 -61.5 -12.5t-65 -16.5t-67 -23t-59.5 -31.5
t-51.5 -41.5t-32.5 -52.5t-13 -66.5q0 -87 63 -137.5t164 -50.5z" />
    <glyph glyph-name="h.ss02" horiz-adv-x="1306" 
d="M319 0h-137v1638h137v-1013l648 505h157v-1130h-137v985h-12l-656 -504v-481z" />
    <glyph glyph-name="hbar.ss02" horiz-adv-x="1306" 
d="M319 625l648 505h157v-1130h-137v985h-12l-656 -504v-481h-137v1329h-192v115h192v194h137v-194h361v-115h-361v-704z" />
    <glyph glyph-name="t.ss02" horiz-adv-x="749" 
d="M391 0h-139v1008h-225v122h225v336h139v-336h344v-122h-344v-1008z" />
    <glyph glyph-name="tbar.ss02" horiz-adv-x="749" 
d="M735 1130v-122h-344v-318h330v-115h-330v-575h-139v575h-221v115h221v318h-225v122h225v336h139v-336h344z" />
    <glyph glyph-name="tcaron.ss02" horiz-adv-x="749" 
d="M883 1169h-90l127 252q-36 12 -55 41.5t-19 67.5q0 46 32.5 78t79.5 32t80 -32t33 -78q0 -39 -33.5 -102t-154.5 -259zM391 0h-139v1008h-225v122h225v336h139v-336h344v-122h-344v-1008z" />
    <glyph glyph-name="uni0163.ss02" horiz-adv-x="749" 
d="M391 1008v-1008h-24l-107 -158q30 19 80 19q84 0 136 -45.5t52 -120.5q0 -83 -65 -135t-164 -52q-74 0 -142.5 30.5t-111.5 80.5l57 59q34 -42 85 -67t104 -25q59 0 98 30t39 77q0 43 -35.5 70.5t-89.5 27.5t-96 -27l-55 54l118 182h-18v1008h-225v122h225v336h139v-336
h344v-122h-344z" />
    <glyph glyph-name="uni021B.ss02" horiz-adv-x="749" 
d="M391 0h-139v1008h-225v122h225v336h139v-336h344v-122h-344v-1008zM264 -520h-71l100 194q-44 10 -66 38t-22 65q0 45 31.5 75.5t78.5 30.5q44 0 75.5 -30.5t31.5 -73.5q0 -40 -28.5 -92.5t-129.5 -206.5z" />
    <glyph glyph-name="a.ss03" horiz-adv-x="1179" 
d="M508 -35q-184 0 -306 111t-122 293q0 179 120 292t304 113q110 0 204.5 -44.5t143.5 -127.5h4v402h-666v126h807v-1130h-133v162h-4q-51 -96 -141 -146.5t-211 -50.5zM522 80q136 0 222.5 88.5t86.5 200.5q0 114 -88.5 201t-232.5 87q-136 0 -212.5 -81t-76.5 -203
q0 -130 85 -211.5t216 -81.5z" />
    <glyph glyph-name="aacute.ss03" horiz-adv-x="1179" 
d="M956 1669l-311 -391h-123l246 391h188zM508 -35q-184 0 -306 111t-122 293q0 179 120 292t304 113q110 0 204.5 -44.5t143.5 -127.5h4v402h-666v126h807v-1130h-133v162h-4q-51 -96 -141 -146.5t-211 -50.5zM522 80q136 0 222.5 88.5t86.5 200.5q0 114 -88.5 201
t-232.5 87q-136 0 -212.5 -81t-76.5 -203q0 -130 85 -211.5t216 -81.5z" />
    <glyph glyph-name="abreve.ss03" horiz-adv-x="1179" 
d="M592 1276q-170 0 -269.5 111t-105.5 284h123q4 -128 74.5 -205t179.5 -77q108 0 178 77t74 205h123q-6 -174 -105.5 -284.5t-271.5 -110.5zM508 -35q-184 0 -306 111t-122 293q0 179 120 292t304 113q110 0 204.5 -44.5t143.5 -127.5h4v402h-666v126h807v-1130h-133v162
h-4q-51 -96 -141 -146.5t-211 -50.5zM522 80q136 0 222.5 88.5t86.5 200.5q0 114 -88.5 201t-232.5 87q-136 0 -212.5 -81t-76.5 -203q0 -130 85 -211.5t216 -81.5z" />
    <glyph glyph-name="acircumflex.ss03" horiz-adv-x="1179" 
d="M338 1278h-131l295 358h180l297 -358h-131q-199 203 -254 264q-41 -44 -256 -264zM508 -35q-184 0 -306 111t-122 293q0 179 120 292t304 113q110 0 204.5 -44.5t143.5 -127.5h4v402h-666v126h807v-1130h-133v162h-4q-51 -96 -141 -146.5t-211 -50.5zM522 80
q136 0 222.5 88.5t86.5 200.5q0 114 -88.5 201t-232.5 87q-136 0 -212.5 -81t-76.5 -203q0 -130 85 -211.5t216 -81.5z" />
    <glyph glyph-name="adieresis.ss03" horiz-adv-x="1179" 
d="M410 1370q-44 0 -75.5 32.5t-31.5 76.5q0 42 31.5 73t75.5 31q45 0 74.5 -31t29.5 -73q0 -45 -29.5 -77t-74.5 -32zM774 1370q-45 0 -75.5 32t-30.5 77q0 42 30.5 73t75.5 31q44 0 74.5 -31t30.5 -73q0 -45 -30.5 -77t-74.5 -32zM508 -35q-184 0 -306 111t-122 293
q0 179 120 292t304 113q110 0 204.5 -44.5t143.5 -127.5h4v402h-666v126h807v-1130h-133v162h-4q-51 -96 -141 -146.5t-211 -50.5zM522 80q136 0 222.5 88.5t86.5 200.5q0 114 -88.5 201t-232.5 87q-136 0 -212.5 -81t-76.5 -203q0 -130 85 -211.5t216 -81.5z" />
    <glyph glyph-name="agrave.ss03" horiz-adv-x="1179" 
d="M659 1278h-120l-312 391h189zM508 -35q-184 0 -306 111t-122 293q0 179 120 292t304 113q110 0 204.5 -44.5t143.5 -127.5h4v402h-666v126h807v-1130h-133v162h-4q-51 -96 -141 -146.5t-211 -50.5zM522 80q136 0 222.5 88.5t86.5 200.5q0 114 -88.5 201t-232.5 87
q-136 0 -212.5 -81t-76.5 -203q0 -130 85 -211.5t216 -81.5z" />
    <glyph glyph-name="amacron.ss03" horiz-adv-x="1179" 
d="M938 1413h-688v115h688v-115zM508 -35q-184 0 -306 111t-122 293q0 179 120 292t304 113q110 0 204.5 -44.5t143.5 -127.5h4v402h-666v126h807v-1130h-133v162h-4q-51 -96 -141 -146.5t-211 -50.5zM522 80q136 0 222.5 88.5t86.5 200.5q0 114 -88.5 201t-232.5 87
q-136 0 -212.5 -81t-76.5 -203q0 -130 85 -211.5t216 -81.5z" />
    <glyph glyph-name="aogonek.ss03" horiz-adv-x="1179" 
d="M981 -362q42 0 90 14v-101q-55 -14 -102 -14q-114 0 -191.5 63t-77.5 167q0 139 164 233v162h-4q-51 -96 -141 -146.5t-211 -50.5q-184 0 -306 111t-122 293q0 179 120 292t304 113q110 0 204.5 -44.5t143.5 -127.5h4v402h-666v126h807v-1130h-18q-172 -84 -172 -209
q0 -69 50 -111t124 -42zM522 80q136 0 222.5 88.5t86.5 200.5q0 114 -88.5 201t-232.5 87q-136 0 -212.5 -81t-76.5 -203q0 -130 85 -211.5t216 -81.5z" />
    <glyph glyph-name="aring.ss03" horiz-adv-x="1179" 
d="M594 1247q-98 0 -162.5 63t-64.5 158q0 94 64.5 157t162.5 63q96 0 160.5 -62.5t64.5 -157.5q0 -96 -64.5 -158.5t-160.5 -62.5zM594 1343q55 0 91 34t36 91q0 55 -36 88t-91 33q-56 0 -92.5 -33t-36.5 -88q0 -57 36 -91t93 -34zM508 -35q-184 0 -306 111t-122 293
q0 179 120 292t304 113q110 0 204.5 -44.5t143.5 -127.5h4v402h-666v126h807v-1130h-133v162h-4q-51 -96 -141 -146.5t-211 -50.5zM522 80q136 0 222.5 88.5t86.5 200.5q0 114 -88.5 201t-232.5 87q-136 0 -212.5 -81t-76.5 -203q0 -130 85 -211.5t216 -81.5z" />
    </font>
</defs>
</svg>
